<svg viewBox="0 0 64 64" xmlns="http://www.w3.org/2000/svg" xml:space="preserve" style="fill-rule:evenodd;clip-rule:evenodd;stroke-linejoin:round;stroke-miterlimit:2">
  <path d="M.837 24.526 15.698 9.811c.302-.453.755-.603 1.208-.603h29.886c.453 0 .906.15 1.208.452l15.547 15.095c.302.302.453.754.453 1.207 0 .303-.067.605-.247.863a1.701 1.701 0 0 1-.65.607L33.057 54.34a1.53 1.53 0 0 1-.439.3 1.48 1.48 0 0 1-.369.127c-.083.025-.166.025-.249.025h-.028a1.11 1.11 0 0 1-.168-.01 1.274 1.274 0 0 1-.525-.173 1.78 1.78 0 0 1-.135-.075 1.4 1.4 0 0 1-.54-.498L.897 27.432a1.685 1.685 0 0 1-.55-.463C.092 26.727 0 26.466 0 26.113l.002-.079a1.672 1.672 0 0 1 .835-1.508Zm23.465 3.097 7.623 20.962 7.622-20.962H24.302Zm18.703 0-7.298 20.07 22.367-20.07H43.005Zm-37.079 0 22.334 20.04-7.36-20.04H5.926Zm-.19-3.321H19.68l-3.745-10.199L5.736 24.302Zm19.3 0h13.928L32 14.324l-6.964 9.978Zm19.177 0h14.014L47.889 14.191l-3.676 10.111Zm-25.4-11.774 3.583 9.853 6.876-9.853H18.813Zm15.81 0 6.846 9.81 3.567-9.81H34.623Z" style="fill:#f767b3;fill-rule:nonzero"/>
</svg>
