<?xml version="1.0" encoding="UTF-8" standalone="no"?><!DOCTYPE svg PUBLIC "-//W3C//DTD SVG 1.1//EN" "http://www.w3.org/Graphics/SVG/1.1/DTD/svg11.dtd"><svg width="100%" height="100%" viewBox="0 0 878 152" version="1.1" xmlns="http://www.w3.org/2000/svg" xmlns:xlink="http://www.w3.org/1999/xlink" xml:space="preserve" xmlns:serif="http://www.serif.com/" style="fill-rule:evenodd;clip-rule:evenodd;stroke-linecap:round;stroke-linejoin:round;stroke-miterlimit:1.5;"><g><g><g><g><g><path d="M228.87,148.232c-9.068,-0.014 -16.522,-7.479 -16.522,-16.547l0,-111.118l2.949,0l-0,111.118c-0,7.457 6.137,13.594 13.594,13.594c7.457,-0 13.593,-6.137 13.593,-13.594l0,-111.118l2.949,0l0,111.118c0,9.077 -7.469,16.547 -16.547,16.547l-0.016,-0Z" style="fill:#5ec2ee;fill-rule:nonzero;"/></g><g><path d="M228.87,72.575c-9.059,-0.014 -16.508,-7.463 -16.522,-16.522l0,-36.109c0,-9.064 7.458,-16.522 16.522,-16.522c9.063,0 16.521,7.458 16.521,16.522l0,36.109c-0.013,9.059 -7.463,16.508 -16.521,16.522Zm-0,-66.204c-7.443,0.009 -13.564,6.13 -13.573,13.573l-0,36.109c-0,7.446 6.127,13.573 13.573,13.573c7.446,0 13.572,-6.127 13.572,-13.573l0,-36.109c-0.009,-7.443 -6.13,-13.564 -13.572,-13.573Z" style="fill:#ff4cab;fill-rule:nonzero;"/></g><g><path d="M305.917,93.254l-76.903,-0c-9.064,-0 -16.522,-7.458 -16.522,-16.522c0,-9.064 7.458,-16.521 16.522,-16.521l76.903,-0c9.064,-0 16.522,7.457 16.522,16.521c-0,9.064 -7.458,16.522 -16.522,16.522Zm-76.903,-30.078c-7.446,0 -13.573,6.127 -13.573,13.573c-0,7.446 6.127,13.573 13.573,13.573l76.903,-0c7.447,-0 13.573,-6.127 13.573,-13.573c0,-7.446 -6.126,-13.573 -13.573,-13.573l-76.903,0Z" style="fill:#ff9a1b;fill-rule:nonzero;"/></g><g><path d="M228.977,148.578c-9.167,-0.005 -16.71,-7.541 -16.724,-16.707l0,-18.451c0,-9.17 7.546,-16.715 16.715,-16.715c9.17,-0 16.716,7.545 16.716,16.715l-0,18.451c-0.01,9.161 -7.546,16.697 -16.707,16.707Zm-0,-48.916c-7.549,0.004 -13.762,6.209 -13.775,13.758l-0,18.451c-0,7.552 6.214,13.766 13.766,13.766c7.553,0 13.767,-6.214 13.767,-13.766l-0,-18.451c-0.009,-7.544 -6.214,-13.749 -13.758,-13.758Z" style="fill:#ba9cdb;fill-rule:nonzero;"/></g><g><path d="M306.216,148.232c-9.068,-0.014 -16.522,-7.479 -16.522,-16.547l0,-111.118l2.949,0l-0,111.118c-0,7.457 6.137,13.594 13.594,13.594c7.457,-0 13.594,-6.137 13.594,-13.594l-0,-111.118l2.948,0l0,111.118c0,9.077 -7.469,16.547 -16.546,16.547l-0.017,-0Z" style="fill:#5ec2ee;fill-rule:nonzero;"/></g><g><path d="M306.216,72.575c-9.059,-0.014 -16.508,-7.463 -16.522,-16.522l0,-36.109c0,-9.064 7.458,-16.522 16.522,-16.522c9.063,0 16.521,7.458 16.521,16.522l0,36.109c-0.013,9.059 -7.463,16.508 -16.521,16.522Zm-0,-66.204c-7.443,0.009 -13.564,6.13 -13.573,13.573l-0,36.109c-0,7.446 6.127,13.573 13.573,13.573c7.446,0 13.572,-6.127 13.572,-13.573l0,-36.109c-0.009,-7.443 -6.13,-13.564 -13.572,-13.573Z" style="fill:#ff4cab;fill-rule:nonzero;"/></g><g><path d="M306.467,148.41c-9.167,-0.004 -16.71,-7.54 -16.724,-16.707l0,-18.451c0,-9.17 7.546,-16.715 16.715,-16.715c9.17,0 16.716,7.545 16.716,16.715l-0,18.451c-0.01,9.162 -7.546,16.698 -16.707,16.707Zm-0,-48.916c-7.549,0.004 -13.762,6.209 -13.775,13.758l-0,18.451c-0,7.552 6.214,13.767 13.766,13.767c7.553,-0 13.767,-6.215 13.767,-13.767l-0,-18.451c-0.009,-7.543 -6.214,-13.749 -13.758,-13.758Z" style="fill:#ba9cdb;fill-rule:nonzero;"/></g></g></g><g><g><g><path d="M483.206,18.342c0,-8.722 -7.081,-15.803 -15.803,-15.803c-8.722,0 -15.803,7.081 -15.803,15.803l0,115.618c0,8.723 7.081,15.803 15.803,15.803c8.722,0 15.803,-7.08 15.803,-15.803l0,-115.618Z" style="fill:none;stroke:#5ec2ee;stroke-width:3px;"/></g><g><path d="M499.252,151.412c28.559,-0.033 52.05,-23.525 52.084,-52.084l-0,-46.656c-0.034,-28.559 -23.525,-52.051 -52.084,-52.084c-9.371,0 -17.082,7.711 -17.082,17.083c-0,9.371 7.711,17.082 17.082,17.082c9.823,0.014 17.9,8.096 17.91,17.919l0,46.656c-0.01,9.823 -8.087,17.905 -17.91,17.919c-9.371,-0 -17.082,7.711 -17.082,17.082c-0,9.372 7.711,17.083 17.082,17.083Zm0,-147.775c26.887,0.033 49.002,22.148 49.035,49.035l-0,46.656c-0.033,26.887 -22.148,49.002 -49.035,49.035c-7.699,-0 -14.033,-6.335 -14.033,-14.034c-0,-7.699 6.334,-14.033 14.033,-14.033c11.495,-0.014 20.949,-9.473 20.959,-20.968l-0,-46.656c-0.01,-11.495 -9.464,-20.954 -20.959,-20.968c-7.699,0 -14.033,-6.334 -14.033,-14.033c-0,-7.699 6.334,-14.034 14.033,-14.034Z" style="fill:#ff9a1b;fill-rule:nonzero;"/></g><g><path d="M450.382,17.743c0.014,-9.058 7.463,-16.508 16.522,-16.521l36.11,-0c9.063,-0 16.521,7.458 16.521,16.521c0,9.064 -7.458,16.522 -16.521,16.522l-36.11,-0c-9.059,-0.014 -16.508,-7.463 -16.522,-16.522Zm66.204,0c-0.009,-7.442 -6.13,-13.563 -13.572,-13.572l-36.11,-0c-7.446,-0 -13.573,6.126 -13.573,13.572c0,7.446 6.127,13.573 13.573,13.573l36.11,0c7.442,-0.009 13.563,-6.13 13.572,-13.573Z" style="fill:#ff4cab;fill-rule:nonzero;"/></g><g><path d="M450.382,134.557c0.014,-9.058 7.463,-16.508 16.522,-16.521l36.11,-0c9.063,-0 16.521,7.458 16.521,16.521c0,9.064 -7.458,16.522 -16.521,16.522l-36.11,-0c-9.059,-0.014 -16.508,-7.463 -16.522,-16.522Zm66.204,0c-0.009,-7.442 -6.13,-13.563 -13.572,-13.572l-36.11,-0c-7.446,-0 -13.573,6.126 -13.573,13.572c0,7.446 6.127,13.573 13.573,13.573l36.11,0c7.442,-0.009 13.563,-6.13 13.572,-13.573Z" style="fill:#ba9cdb;fill-rule:nonzero;"/></g></g></g><g><g><g><path d="M119.776,69.454c-8.866,-0.009 -16.228,-7.146 -16.513,-16.008l0,-0.471c0.303,-27.427 22.911,-49.843 50.34,-49.91l0.076,-0c11.495,0.016 22.646,3.969 31.585,11.197c3.816,3.138 6.032,7.826 6.035,12.766c-0,9.064 -7.458,16.522 -16.522,16.522c-3.744,-0 -7.379,-1.273 -10.306,-3.609c-3.079,-2.479 -6.915,-3.831 -10.868,-3.832c-9.5,0 -17.321,7.812 -17.331,17.312c-0.271,8.865 -7.627,16.014 -16.496,16.033Zm-13.573,-16.336c0.051,7.411 6.162,13.48 13.573,13.48c7.446,-0 13.573,-6.127 13.573,-13.573l-0,-0.093c0.277,-10.923 9.337,-19.756 20.264,-19.756c4.619,-0 9.103,1.579 12.703,4.473c2.341,1.741 5.181,2.681 8.098,2.681c7.446,0 13.573,-6.127 13.573,-13.572c-0,-3.889 -1.672,-7.596 -4.585,-10.171c-8.408,-6.813 -18.902,-10.547 -29.723,-10.574l-0.102,0c-25.861,0.069 -47.158,21.244 -47.374,47.105Z" style="fill:#ff4cab;fill-rule:nonzero;"/></g><g><path d="M142.338,147.023c-1.877,-0.001 -3.74,-0.323 -5.51,-0.952c-20.114,-7.134 -33.624,-26.293 -33.59,-47.635l-0,-45.495c-0,-9.064 7.458,-16.522 16.521,-16.522c9.064,0 16.522,7.458 16.522,16.522l-0,45.546c-0.022,7.36 4.632,13.973 11.567,16.437c6.579,2.335 11.002,8.597 11.002,15.578c-0,9.061 -7.45,16.52 -16.512,16.53l0,-0.009Zm-22.579,-107.663c-7.442,0.009 -13.563,6.13 -13.572,13.572l-0,45.496c-0.032,20.093 12.689,38.131 31.627,44.846c1.453,0.514 2.983,0.776 4.524,0.776c7.446,0 13.574,-6.127 13.574,-13.573c-0,-5.739 -3.639,-10.886 -9.049,-12.798c-8.11,-2.881 -13.553,-10.611 -13.531,-19.218l0,-45.529c-0.009,-7.442 -6.13,-13.563 -13.573,-13.572Z" style="fill:#5ec2ee;fill-rule:nonzero;"/></g><g><path d="M153.679,148.936l-0.186,-0c-5.674,0.001 -11.308,-0.968 -16.656,-2.865c-6.592,-2.327 -11.028,-8.595 -11.028,-15.586c0,-9.067 7.462,-16.529 16.529,-16.529c1.874,-0 3.735,0.319 5.502,0.943c6.838,2.395 14.488,0.274 19.116,-5.3c3.139,-3.82 7.829,-6.038 12.773,-6.041c9.063,-0 16.522,7.458 16.522,16.522c0,3.822 -1.326,7.527 -3.75,10.481c-9.52,11.635 -23.789,18.388 -38.822,18.375Zm-11.349,-32.015l-0.01,-0c-7.446,-0 -13.573,6.126 -13.573,13.572c0.016,5.744 3.662,10.888 9.076,12.806c5.032,1.782 10.331,2.694 15.67,2.696l0.186,0c14.147,0.018 27.576,-6.333 36.539,-17.279c2.088,-2.454 3.236,-5.573 3.236,-8.796c-0,-7.446 -6.128,-13.573 -13.573,-13.573c-4.144,0.003 -8.068,1.9 -10.641,5.148c-3.835,4.667 -9.572,7.369 -15.612,7.355l-0.135,0c-2.262,-0.004 -4.506,-0.392 -6.639,-1.146c-1.452,-0.519 -2.982,-0.787 -4.524,-0.792l-0,0.009Z" style="fill:#ff9a1b;fill-rule:nonzero;"/></g><g><path d="M173.986,44.266c-9.436,0 -17.2,-7.764 -17.2,-17.2c-0,-9.435 7.764,-17.2 17.2,-17.2c9.435,0 17.2,7.765 17.2,17.2c-0.01,9.432 -7.769,17.191 -17.2,17.2Zm-0,-31.306c-7.758,-0 -14.142,6.384 -14.142,14.142c-0,7.757 6.384,14.141 14.142,14.141c7.757,0 14.141,-6.384 14.141,-14.141c0,-7.758 -6.384,-14.142 -14.141,-14.142Z" style="fill:#ba9cdb;fill-rule:nonzero;"/></g></g></g><g><g><g><path d="M35.744,69.523c-2.973,7.611 1.224,16.256 9.304,19.166c8.497,3.051 12.911,12.144 9.776,20.142c-3.134,7.998 -12.705,12.069 -21.203,9.018c-8.086,-2.904 -17.194,0.97 -20.176,8.581c-2.983,7.611 1.217,16.263 9.303,19.166c24.67,8.858 52.457,-2.96 61.556,-26.18c5.28,-13.474 3.182,-28.017 -4.329,-39.582c-5.434,-8.366 -13.699,-15.174 -24.054,-18.892c-8.086,-2.895 -17.187,0.976 -20.177,8.581Zm21.688,40.244c3.643,-9.344 -1.509,-19.952 -11.425,-23.525c-6.66,-2.391 -10.119,-9.517 -7.662,-15.785c2.456,-6.268 9.957,-9.459 16.617,-7.068c23.243,8.346 35.314,33.216 26.742,55.093c-8.573,21.877 -34.754,33.012 -57.997,24.667c-6.659,-2.392 -10.118,-9.517 -7.662,-15.785c2.456,-6.269 9.957,-9.459 16.617,-7.068c9.926,3.555 21.098,-1.194 24.77,-10.529Z" style="fill:#ff4cab;fill-rule:nonzero;"/></g><g><path d="M69.087,79.762c2.154,-7.622 -2.916,-15.621 -11.24,-17.735c-8.753,-2.215 -14.085,-10.628 -11.811,-18.639c2.273,-8.01 11.347,-12.78 20.1,-10.565c8.329,2.107 16.962,-2.431 19.126,-10.054c2.163,-7.622 -2.911,-15.628 -11.24,-17.735c-25.411,-6.429 -51.752,7.417 -58.352,30.672c-6.6,23.255 8.88,47.681 34.291,54.11c8.328,2.098 16.955,-2.436 19.126,-10.054Zm-25.737,-37.053c-2.638,9.356 3.586,19.172 13.802,21.769c6.86,1.735 11.038,8.329 9.256,14.607c-1.781,6.277 -8.892,10.015 -15.752,8.28c-23.941,-6.057 -38.526,-29.071 -32.307,-50.981c6.218,-21.911 31.036,-34.956 54.978,-28.899c6.859,1.735 11.038,8.329 9.256,14.607c-1.781,6.277 -8.892,10.015 -15.752,8.28c-10.223,-2.578 -20.814,2.986 -23.481,12.337Z" style="fill:#ff9a1b;fill-rule:nonzero;"/></g><g><path d="M43.114,135.718c-2.193,7.838 -9.896,12.64 -17.078,10.647l-14.449,-4.035c-7.181,-2.005 -11.289,-10.107 -9.099,-17.949c2.19,-7.841 9.901,-12.643 17.082,-10.638l14.449,4.035c7.173,2.012 11.275,10.104 9.095,17.94Zm-38.308,-10.697c-1.799,6.456 1.577,13.125 7.485,14.788l14.45,4.035c5.914,1.651 12.265,-2.303 14.068,-8.761c1.803,-6.458 -1.579,-13.131 -7.494,-14.783l-14.449,-4.035c-5.91,-1.642 -12.251,2.307 -14.06,8.756Z" style="fill:#ba9cdb;fill-rule:nonzero;"/></g><g><ellipse cx="71.263" cy="18.838" rx="13.068" ry="13.068" style="fill:none;stroke:#5ec2ee;stroke-width:3px;"/></g></g></g><g><g><g><path d="M417.858,36.107l-27.802,0c-9.064,0 -16.522,-7.458 -16.522,-16.521c0,-9.064 7.458,-16.522 16.522,-16.522l27.802,0c9.064,0 16.522,7.458 16.522,16.522c-0,9.063 -7.458,16.521 -16.522,16.521Zm-27.802,-30.094c-7.446,-0 -13.573,6.127 -13.573,13.573c0,7.446 6.127,13.572 13.573,13.572l27.802,0c7.446,0 13.573,-6.126 13.573,-13.572c0,-7.446 -6.127,-13.573 -13.573,-13.573l-27.802,-0Z" style="fill:#ba9cdb;fill-rule:nonzero;"/></g><g><path d="M417.858,148.935l-27.802,0c-9.064,0 -16.522,-7.458 -16.522,-16.521c0,-9.064 7.458,-16.522 16.522,-16.522l27.802,0c9.064,0 16.522,7.458 16.522,16.522c-0,9.063 -7.458,16.521 -16.522,16.521Zm-27.802,-30.094c-7.446,0 -13.573,6.127 -13.573,13.573c0,7.446 6.127,13.572 13.573,13.572l27.802,0c7.446,0 13.573,-6.126 13.573,-13.572c0,-7.446 -6.127,-13.573 -13.573,-13.573l-27.802,0Z" style="fill:#5ec2ee;fill-rule:nonzero;"/></g><g><path d="M389.55,148.935c-27.621,-0.032 -50.341,-22.752 -50.373,-50.373l-0,-45.125c0.032,-27.621 22.752,-50.341 50.373,-50.373c9.064,0 16.522,7.458 16.522,16.522c-0,9.063 -7.458,16.521 -16.522,16.521c-9.5,0.014 -17.312,7.83 -17.322,17.33l0,45.125c0.01,9.5 7.822,17.317 17.322,17.33c9.064,0 16.522,7.458 16.522,16.522c-0,9.063 -7.458,16.521 -16.522,16.521Zm0,-142.922c-26.004,0.032 -47.392,21.421 -47.424,47.424l-0,45.125c0.032,26.004 21.42,47.392 47.424,47.424c7.446,0 13.573,-6.126 13.573,-13.572c-0,-7.446 -6.127,-13.573 -13.573,-13.573c-11.117,-0.013 -20.261,-9.161 -20.27,-20.279l-0,-45.125c0.009,-11.117 9.153,-20.265 20.27,-20.279c7.446,0 13.573,-6.126 13.573,-13.572c-0,-7.446 -6.127,-13.573 -13.573,-13.573Z" style="fill:#ff9a1b;fill-rule:nonzero;"/></g><g><path d="M403.553,88.747l-31.754,-0c-6.998,-0 -12.756,-5.758 -12.756,-12.756c0,-6.998 5.758,-12.755 12.756,-12.755l31.754,-0c6.997,-0 12.755,5.757 12.755,12.755c0,6.998 -5.758,12.756 -12.755,12.756Zm-31.754,-22.562c-5.381,-0 -9.807,4.426 -9.807,9.806c-0,5.38 4.426,9.807 9.807,9.807l31.754,-0c5.38,-0 9.806,-4.427 9.806,-9.807c0,-5.38 -4.426,-9.806 -9.806,-9.806l-31.754,-0Z" style="fill:#ff4cab;fill-rule:nonzero;"/></g></g></g><g><g><g><path d="M859.58,36.107l-27.803,0c-9.064,0 -16.522,-7.458 -16.522,-16.521c0,-9.064 7.458,-16.522 16.522,-16.522l27.803,0c9.063,0 16.521,7.458 16.521,16.522c0,9.063 -7.458,16.521 -16.521,16.521Zm-27.803,-30.094c-7.446,-0 -13.573,6.127 -13.573,13.573c0,7.446 6.127,13.572 13.573,13.572l27.803,0c7.446,0 13.572,-6.126 13.572,-13.572c0,-7.446 -6.126,-13.573 -13.572,-13.573l-27.803,-0Z" style="fill:#ba9cdb;fill-rule:nonzero;"/></g><g><path d="M859.58,148.935l-27.803,0c-9.064,0 -16.522,-7.458 -16.522,-16.521c0,-9.064 7.458,-16.522 16.522,-16.522l27.803,0c9.063,0 16.521,7.458 16.521,16.522c0,9.063 -7.458,16.521 -16.521,16.521Zm-27.803,-30.094c-7.446,0 -13.573,6.127 -13.573,13.573c0,7.446 6.127,13.572 13.573,13.572l27.803,0c7.446,0 13.572,-6.126 13.572,-13.572c0,-7.446 -6.126,-13.573 -13.572,-13.573l-27.803,0Z" style="fill:#5ec2ee;fill-rule:nonzero;"/></g><g><path d="M831.271,148.935c-27.621,-0.032 -50.341,-22.752 -50.373,-50.373l0,-45.125c0.032,-27.621 22.752,-50.341 50.373,-50.373c9.064,0 16.522,7.458 16.522,16.522c-0,9.063 -7.458,16.521 -16.522,16.521c-9.5,0.014 -17.312,7.83 -17.321,17.33l-0,45.125c0.009,9.5 7.821,17.317 17.321,17.33c9.064,0 16.522,7.458 16.522,16.522c-0,9.063 -7.458,16.521 -16.522,16.521Zm0,-142.922c-26.003,0.032 -47.392,21.421 -47.424,47.424l-0,45.125c0.032,26.004 21.421,47.392 47.424,47.424c7.447,0 13.573,-6.126 13.573,-13.572c0,-7.446 -6.126,-13.573 -13.573,-13.573c-11.117,-0.013 -20.261,-9.161 -20.27,-20.279l-0,-45.125c0.009,-11.117 9.153,-20.265 20.27,-20.279c7.447,0 13.573,-6.126 13.573,-13.572c0,-7.446 -6.126,-13.573 -13.573,-13.573Z" style="fill:#ff9a1b;fill-rule:nonzero;"/></g><g><path d="M845.274,88.747l-31.754,-0c-6.998,-0 -12.756,-5.758 -12.756,-12.756c0,-6.998 5.758,-12.755 12.756,-12.755l31.754,-0c6.998,-0 12.755,5.757 12.755,12.755c0,6.998 -5.757,12.756 -12.755,12.756Zm-31.754,-22.562c-5.38,-0 -9.807,4.426 -9.807,9.806c0,5.38 4.427,9.807 9.807,9.807l31.754,-0c5.38,-0 9.807,-4.427 9.807,-9.807c-0,-5.38 -4.427,-9.806 -9.807,-9.806l-31.754,-0Z" style="fill:#ff4cab;fill-rule:nonzero;"/></g></g></g><g><g><g><path d="M583.999,117.447l-0,-2.949l0.084,0c7.504,-0.055 13.639,-6.262 13.606,-13.766l0,-81.934c0,-7.51 -6.18,-13.691 -13.69,-13.691c-7.51,0 -13.691,6.181 -13.691,13.691l0,74.983l-2.949,-0l0,-74.983c0,-9.128 7.511,-16.639 16.64,-16.639c9.128,-0 16.639,7.511 16.639,16.639l0,81.925c0.037,9.125 -7.431,16.668 -16.555,16.724l-0.084,-0Z" style="fill:#ff9a1b;fill-rule:nonzero;"/></g><g><path d="M583.99,117.447c-9.124,-0.009 -16.63,-7.515 -16.639,-16.64l-0,-81.882l2.991,-0l-0,81.925c0.183,7.384 6.308,13.359 13.695,13.359c7.387,0 13.512,-5.975 13.695,-13.359l-0,-74.983l2.94,-0l-0,74.983c-0.032,9.124 -7.557,16.611 -16.682,16.597Z" style="fill:#ff9a1b;fill-rule:nonzero;"/></g><g><path d="M652.545,117.447c-9.085,-0.019 -16.567,-7.462 -16.631,-16.547l-0,-60.197l2.949,0l-0,60.189c0.054,7.475 6.215,13.597 13.69,13.606l0.076,0c7.51,-0.004 13.69,-6.18 13.699,-13.691l0,-65.032l2.949,-0l0,65.075c-0.009,9.124 -7.515,16.63 -16.639,16.639l-0.093,-0.042Z" style="fill:#5ec2ee;fill-rule:nonzero;"/></g><g><path d="M638.863,100.723l-2.949,0l-0,-81.925c0.013,-9.133 7.532,-16.639 16.665,-16.639l0.075,-0c9.087,0.013 16.572,7.46 16.631,16.546l0,77.047l-2.948,0l-0,-77.038c-0.205,-7.392 -6.341,-13.361 -13.736,-13.361c-7.427,-0 -13.578,6.02 -13.738,13.445l-0,81.925Z" style="fill:#5ec2ee;fill-rule:nonzero;"/></g><g><path d="M652.907,53.939c-9.168,-0 -16.714,-7.539 -16.723,-16.707l-0,-18.451c0.203,-9.025 7.682,-16.34 16.711,-16.34c9.028,-0 16.508,7.315 16.711,16.34l-0,18.451c-0.005,9.161 -7.538,16.698 -16.699,16.707Zm0,-48.916c-7.55,0 -13.765,6.208 -13.775,13.758l0,18.451c0.184,7.422 6.339,13.426 13.763,13.426c7.423,0 13.578,-6.004 13.762,-13.426l-0,-18.451c-0.009,-7.54 -6.209,-13.744 -13.75,-13.758Z" style="fill:#ba9cdb;fill-rule:nonzero;"/></g><g><path d="M618.365,149.841c-27.973,-0.028 -50.985,-23.032 -51.022,-51.005c-0.003,-0.125 -0.005,-0.25 -0.005,-0.375c0,-9.17 7.546,-16.715 16.716,-16.715c9.169,-0 16.715,7.545 16.715,16.715c-0,0.125 -0.002,0.25 -0.004,0.375c0.013,9.646 7.954,17.575 17.6,17.575c9.638,-0.005 17.566,-7.937 17.566,-17.575l-0,-0.008c-0,-9.17 7.545,-16.716 16.715,-16.716c9.17,0 16.715,7.546 16.715,16.716l0,0.016c0,27.977 -23.02,50.997 -50.996,50.997Zm-34.316,-64.771c-7.526,0.041 -13.698,6.24 -13.707,13.766c-0,26.36 21.692,48.052 48.052,48.052c26.36,0 48.052,-21.692 48.052,-48.052c0,-7.552 -6.214,-13.766 -13.766,-13.766c-7.552,-0 -13.767,6.214 -13.767,13.766c0,11.259 -9.264,20.523 -20.523,20.523c-11.259,0 -20.524,-9.264 -20.524,-20.523c-0.009,-7.555 -6.228,-13.766 -13.783,-13.766l-0.034,-0Z" style="fill:#ff4cab;fill-rule:nonzero;"/></g></g></g><g><g><g><path d="M702.13,148.936c-9.068,-0.014 -16.521,-7.479 -16.521,-16.547l-0,-112.803c-0,-9.064 7.457,-16.521 16.521,-16.521c9.064,-0 16.522,7.457 16.522,16.521l-0,112.803c-0,9.068 -7.454,16.533 -16.522,16.547Zm0,-142.923c-7.452,-0.004 -13.589,6.121 -13.598,13.573l-0,112.803c-0,7.446 6.127,13.573 13.573,13.573c7.446,-0 13.572,-6.127 13.572,-13.573l0,-112.803c-0.009,-7.433 -6.114,-13.55 -13.547,-13.573Z" style="fill:#ba9cdb;fill-rule:nonzero;"/></g><g><path d="M758.224,148.936l-56.094,-0c-9.064,-0 -16.521,-7.458 -16.521,-16.522c-0,-9.063 7.457,-16.521 16.521,-16.521l56.094,-0c9.064,-0 16.521,7.458 16.521,16.521c0,9.064 -7.457,16.522 -16.521,16.522Zm-56.094,-30.095c-7.446,0 -13.573,6.127 -13.573,13.573c0,7.446 6.127,13.573 13.573,13.573l56.094,-0c7.446,-0 13.573,-6.127 13.573,-13.573c-0,-7.446 -6.127,-13.573 -13.573,-13.573l-56.094,0Z" style="fill:#ff4cab;fill-rule:nonzero;"/></g><g><path d="M702.13,50.498c-9.059,-0.014 -16.508,-7.463 -16.521,-16.522l-0,-14.39c-0,-9.064 7.457,-16.521 16.521,-16.521c9.064,-0 16.522,7.457 16.522,16.521l-0,14.39c-0.014,9.059 -7.463,16.508 -16.522,16.522Zm0,-44.485c-7.452,-0.004 -13.589,6.121 -13.598,13.573l-0,14.39c-0,7.446 6.127,13.573 13.573,13.573c7.446,-0 13.572,-6.127 13.572,-13.573l0,-14.39c-0.009,-7.433 -6.114,-13.55 -13.547,-13.573Z" style="fill:#ff9a1b;fill-rule:nonzero;"/></g><g><path d="M702.13,148.717c-9.059,-0.014 -16.508,-7.463 -16.521,-16.522l-0,-21.062c-0,-9.064 7.457,-16.522 16.521,-16.522c9.064,0 16.522,7.458 16.522,16.522l-0,21.062c-0.014,9.059 -7.463,16.508 -16.522,16.522Zm0,-51.157c-7.452,-0.004 -13.589,6.121 -13.598,13.573l-0,21.062c-0,7.446 6.127,13.573 13.573,13.573c7.446,-0 13.572,-6.127 13.572,-13.573l0,-21.062c-0.009,-7.433 -6.114,-13.55 -13.547,-13.573Z" style="fill:#5ec2ee;fill-rule:nonzero;"/></g></g></g></g></g></svg>