<?xml version="1.0" encoding="UTF-8" standalone="no"?>
<!DOCTYPE svg PUBLIC "-//W3C//DTD SVG 1.1//EN" "http://www.w3.org/Graphics/SVG/1.1/DTD/svg11.dtd">
<svg width="100%" height="100%" viewBox="0 0 942 313" version="1.1" xmlns="http://www.w3.org/2000/svg" xmlns:xlink="http://www.w3.org/1999/xlink" xml:space="preserve" xmlns:serif="http://www.serif.com/" style="fill-rule:evenodd;clip-rule:evenodd;stroke-linecap:round;stroke-linejoin:round;stroke-miterlimit:1.5;">
    <g transform="matrix(1,0,0,1,-34.6246,-137.876)">
        <g transform="matrix(0.837577,0,0,0.837577,-24.808,153.149)">
            <g transform="matrix(0.842504,0,0,0.842504,-189.311,54.9843)">
                <g transform="matrix(1,0,0,1,385.484,-38.1686)">
                    <path d="M192.84,389.64C182.077,389.624 173.23,380.763 173.23,370L173.23,238.11L176.73,238.11L176.73,370C176.73,378.851 184.014,386.135 192.865,386.135C201.716,386.135 209,378.851 209,370L209,238.11L212.5,238.11L212.5,370C212.5,380.774 203.634,389.64 192.86,389.64L192.84,389.64Z" style="fill:rgb(94,194,238);fill-rule:nonzero;"/>
                </g>
                <g transform="matrix(1,0,0,1,385.484,-38.1686)">
                    <path d="M192.84,299.84C182.088,299.824 173.246,290.982 173.23,280.23L173.23,237.37C173.23,226.612 182.082,217.76 192.84,217.76C203.598,217.76 212.45,226.612 212.45,237.37L212.45,280.23C212.434,290.982 203.592,299.824 192.84,299.84ZM192.84,221.26C184.006,221.271 176.741,228.536 176.73,237.37L176.73,280.23C176.73,289.068 184.002,296.34 192.84,296.34C201.678,296.34 208.95,289.068 208.95,280.23L208.95,237.37C208.939,228.536 201.674,221.271 192.84,221.26Z" style="fill:rgb(255,76,171);fill-rule:nonzero;"/>
                </g>
                <g transform="matrix(1,0,0,1,431.295,30.5157)">
                    <path d="M238.48,255.7L147.2,255.7C136.442,255.7 127.59,246.848 127.59,236.09C127.59,225.332 136.442,216.48 147.2,216.48L238.48,216.48C249.238,216.48 258.09,225.332 258.09,236.09C258.09,246.848 249.238,255.7 238.48,255.7ZM147.2,220C138.362,220 131.09,227.272 131.09,236.11C131.09,244.948 138.362,252.22 147.2,252.22L238.48,252.22C247.318,252.22 254.59,244.948 254.59,236.11C254.59,227.272 247.318,220 238.48,220L147.2,220Z" style="fill:rgb(255,154,27);fill-rule:nonzero;"/>
                </g>
                <g transform="matrix(1,0,0,1,49.4512,-141.678)">
                    <path d="M529,493.56C518.12,493.555 509.166,484.61 509.15,473.73L509.15,451.83C509.15,440.946 518.106,431.99 528.99,431.99C539.874,431.99 548.83,440.946 548.83,451.83L548.83,473.73C548.819,484.604 539.874,493.549 529,493.56ZM529,435.5C520.04,435.505 512.666,442.87 512.65,451.83L512.65,473.73C512.65,482.694 520.026,490.07 528.99,490.07C537.954,490.07 545.33,482.694 545.33,473.73L545.33,451.83C545.319,442.876 537.954,435.511 529,435.5Z" style="fill:rgb(186,156,219);fill-rule:nonzero;"/>
                </g>
                <g transform="matrix(1,0,0,1,477.289,-38.1686)">
                    <path d="M192.84,389.64C182.077,389.624 173.23,380.763 173.23,370L173.23,238.11L176.73,238.11L176.73,370C176.73,378.851 184.014,386.135 192.865,386.135C201.716,386.135 209,378.851 209,370L209,238.11L212.5,238.11L212.5,370C212.5,380.774 203.634,389.64 192.86,389.64L192.84,389.64Z" style="fill:rgb(94,194,238);fill-rule:nonzero;"/>
                </g>
                <g transform="matrix(1,0,0,1,477.289,-38.1686)">
                    <path d="M192.84,299.84C182.088,299.824 173.246,290.982 173.23,280.23L173.23,237.37C173.23,226.612 182.082,217.76 192.84,217.76C203.598,217.76 212.45,226.612 212.45,237.37L212.45,280.23C212.434,290.982 203.592,299.824 192.84,299.84ZM192.84,221.26C184.006,221.271 176.741,228.536 176.73,237.37L176.73,280.23C176.73,289.068 184.002,296.34 192.84,296.34C201.678,296.34 208.95,289.068 208.95,280.23L208.95,237.37C208.939,228.536 201.674,221.271 192.84,221.26Z" style="fill:rgb(255,76,171);fill-rule:nonzero;"/>
                </g>
                <g transform="matrix(1,0,0,1,141.427,-141.877)">
                    <path d="M529,493.56C518.12,493.555 509.166,484.61 509.15,473.73L509.15,451.83C509.15,440.946 518.106,431.99 528.99,431.99C539.874,431.99 548.83,440.946 548.83,451.83L548.83,473.73C548.819,484.604 539.874,493.549 529,493.56ZM529,435.5C520.04,435.505 512.666,442.87 512.65,451.83L512.65,473.73C512.65,482.694 520.026,490.07 528.99,490.07C537.954,490.07 545.33,482.694 545.33,473.73L545.33,451.83C545.319,442.876 537.954,435.511 529,435.5Z" style="fill:rgb(186,156,219);fill-rule:nonzero;"/>
                </g>
            </g>
            <g transform="matrix(0.842504,0,0,0.842504,39.8558,35.9722)">
                <g transform="matrix(0.680835,0,0,0.940389,161.844,11.4819)">
                    <path d="M655.599,221.594C655.599,210.586 643.254,201.648 628.049,201.648C612.844,201.648 600.499,210.586 600.499,221.594L600.499,367.525C600.499,378.534 612.844,387.471 628.049,387.471C643.254,387.471 655.599,378.534 655.599,367.525L655.599,221.594Z" style="fill:none;stroke:rgb(94,194,238);stroke-width:5.18px;"/>
                </g>
                <g transform="matrix(-1.03395,0,0,1.03395,946.218,198.277)">
                    <path d="M308.5,173.64C275.715,173.602 248.748,146.635 248.71,113.85L248.71,60.29C248.748,27.505 275.715,0.538 308.5,0.5C319.258,0.5 328.11,9.352 328.11,20.11C328.11,30.868 319.258,39.72 308.5,39.72C297.224,39.736 287.951,49.014 287.94,60.29L287.94,113.85C287.951,125.126 297.224,134.404 308.5,134.42C319.258,134.42 328.11,143.272 328.11,154.03C328.11,164.788 319.258,173.64 308.5,173.64ZM308.5,4C277.635,4.038 252.248,29.425 252.21,60.29L252.21,113.85C252.248,144.715 277.635,170.102 308.5,170.14C317.338,170.14 324.61,162.868 324.61,154.03C324.61,145.192 317.338,137.92 308.5,137.92C295.304,137.904 284.451,127.046 284.44,113.85L284.44,60.29C284.451,47.094 295.304,36.236 308.5,36.22C317.338,36.22 324.61,28.948 324.61,20.11C324.61,11.272 317.338,4 308.5,4Z" style="fill:rgb(255,154,27);fill-rule:nonzero;"/>
                </g>
                <g transform="matrix(6.12323e-17,1,-1,6.12323e-17,869.079,26.316)">
                    <path d="M192.84,299.84C182.088,299.824 173.246,290.982 173.23,280.23L173.23,237.37C173.23,226.612 182.082,217.76 192.84,217.76C203.598,217.76 212.45,226.612 212.45,237.37L212.45,280.23C212.434,290.982 203.592,299.824 192.84,299.84ZM192.84,221.26C184.006,221.271 176.741,228.536 176.73,237.37L176.73,280.23C176.73,289.068 184.002,296.34 192.84,296.34C201.678,296.34 208.95,289.068 208.95,280.23L208.95,237.37C208.939,228.536 201.674,221.271 192.84,221.26Z" style="fill:rgb(255,76,171);fill-rule:nonzero;"/>
                </g>
                <g transform="matrix(6.12323e-17,1,-1,6.12323e-17,869.079,164.967)">
                    <path d="M192.84,299.84C182.088,299.824 173.246,290.982 173.23,280.23L173.23,237.37C173.23,226.612 182.082,217.76 192.84,217.76C203.598,217.76 212.45,226.612 212.45,237.37L212.45,280.23C212.434,290.982 203.592,299.824 192.84,299.84ZM192.84,221.26C184.006,221.271 176.741,228.536 176.73,237.37L176.73,280.23C176.73,289.068 184.002,296.34 192.84,296.34C201.678,296.34 208.95,289.068 208.95,280.23L208.95,237.37C208.939,228.536 201.674,221.271 192.84,221.26Z" style="fill:rgb(186,156,219);fill-rule:nonzero;"/>
                </g>
            </g>
            <g transform="matrix(0.842504,0,0,0.842504,-102.326,-118.488)">
                <g transform="matrix(1,0,0,1,-200.169,385.068)">
                    <path d="M545.76,78.8C535.236,78.789 526.498,70.318 526.16,59.8L526.16,59.24C526.519,26.686 553.354,0.08 585.91,0L586,0C599.645,0.019 612.88,4.711 623.49,13.29C628.019,17.015 630.65,22.579 630.653,28.443C630.653,39.201 621.801,48.053 611.043,48.053C606.599,48.053 602.284,46.543 598.81,43.77C595.155,40.828 590.602,39.223 585.91,39.222C574.634,39.222 565.352,48.494 565.34,59.77C565.018,70.292 556.287,78.778 545.76,78.8ZM529.65,59.41C529.71,68.206 536.964,75.41 545.76,75.41C554.598,75.41 561.87,68.138 561.87,59.3L561.87,59.19C562.199,46.225 572.953,35.74 585.922,35.74C591.405,35.74 596.727,37.614 601,41.05C603.778,43.116 607.15,44.232 610.612,44.232C619.45,44.232 626.722,36.959 626.722,28.122C626.722,23.506 624.738,19.106 621.28,16.05C611.3,7.963 598.845,3.532 586,3.5L585.88,3.5C555.184,3.581 529.906,28.715 529.65,59.41Z" style="fill:rgb(255,76,171);fill-rule:nonzero;"/>
                </g>
                <g transform="matrix(1,0,0,1,-200.169,385.068)">
                    <path d="M572.54,170.87C570.312,170.869 568.1,170.486 566,169.74C542.125,161.272 526.09,138.532 526.13,113.2L526.13,59.2C526.13,48.442 534.982,39.59 545.74,39.59C556.498,39.59 565.35,48.442 565.35,59.2L565.35,113.26C565.324,121.996 570.848,129.845 579.08,132.77C586.889,135.541 592.138,142.974 592.138,151.26C592.138,162.015 583.295,170.868 572.54,170.88L572.54,170.87ZM545.74,43.08C536.906,43.091 529.641,50.356 529.63,59.19L529.63,113.19C529.592,137.04 544.691,158.45 567.17,166.42C568.895,167.03 570.711,167.341 572.54,167.341C581.378,167.341 588.651,160.068 588.651,151.23C588.651,144.419 584.332,138.31 577.91,136.04C568.284,132.621 561.824,123.445 561.85,113.23L561.85,59.19C561.839,50.356 554.574,43.091 545.74,43.08Z" style="fill:rgb(94,194,238);fill-rule:nonzero;"/>
                </g>
                <g transform="matrix(1,0,0,1,-200.169,385.068)">
                    <path d="M586,173.14L585.78,173.14C579.045,173.141 572.358,171.991 566.01,169.74C558.186,166.978 552.921,159.538 552.921,151.24C552.921,140.478 561.778,131.621 572.54,131.621C574.764,131.621 576.973,132 579.07,132.74C587.186,135.583 596.266,133.066 601.76,126.45C605.485,121.916 611.052,119.283 616.92,119.279C627.678,119.279 636.531,128.132 636.531,138.89C636.531,143.426 634.957,147.824 632.08,151.33C620.78,165.14 603.844,173.156 586,173.14ZM572.53,135.14L572.518,135.14C563.68,135.14 556.408,142.412 556.408,151.25C556.427,158.067 560.754,164.173 567.18,166.45C573.153,168.565 579.443,169.647 585.78,169.65L586,169.65C602.792,169.671 618.732,162.133 629.37,149.14C631.849,146.227 633.211,142.525 633.211,138.7C633.211,129.862 625.938,122.59 617.101,122.59C612.182,122.593 607.525,124.845 604.47,128.7C599.919,134.239 593.109,137.447 585.94,137.43L585.78,137.43C583.095,137.425 580.431,136.965 577.9,136.07C576.176,135.454 574.36,135.136 572.53,135.13L572.53,135.14Z" style="fill:rgb(255,154,27);fill-rule:nonzero;"/>
                </g>
                <g transform="matrix(1.04909,0,0,1.04909,-231.322,383.5)">
                    <path d="M611.25,48.11C600.575,48.11 591.79,39.325 591.79,28.65C591.79,17.975 600.575,9.19 611.25,9.19C621.925,9.19 630.71,17.975 630.71,28.65C630.699,39.321 621.921,48.099 611.25,48.11ZM611.25,12.69C602.473,12.69 595.25,19.913 595.25,28.69C595.25,37.467 602.473,44.69 611.25,44.69C620.027,44.69 627.25,37.467 627.25,28.69C627.25,19.913 620.027,12.69 611.25,12.69Z" style="fill:rgb(186,156,219);fill-rule:nonzero;"/>
                </g>
            </g>
            <g transform="matrix(0.889425,0,0,0.839741,-207.698,49.1832)">
                <g transform="matrix(0.308084,-0.832724,-0.835291,-0.317663,916.975,625.069)">
                    <path d="M151.76,733.13C140.88,733.119 131.931,724.17 131.92,713.29C131.92,701.852 122.508,692.44 111.07,692.44C99.632,692.44 90.22,701.852 90.22,713.29C90.22,724.174 81.264,733.13 70.38,733.13C59.496,733.13 50.54,724.174 50.54,713.29C50.54,680.084 77.864,652.76 111.07,652.76C130.338,652.76 147.626,661.96 158.744,676.171C166.786,686.451 171.6,699.352 171.6,713.29C171.589,724.17 162.64,733.119 151.76,733.13ZM111.07,688.93C124.424,688.952 135.404,699.936 135.42,713.29C135.42,722.254 142.796,729.63 151.76,729.63C160.724,729.63 168.1,722.254 168.1,713.29C168.1,682.004 142.356,656.26 111.07,656.26C79.784,656.26 54.04,682.004 54.04,713.29C54.04,722.254 61.416,729.63 70.38,729.63C79.344,729.63 86.72,722.254 86.72,713.29C86.731,699.934 97.714,688.946 111.07,688.93Z" style="fill:rgb(255,76,171);fill-rule:nonzero;"/>
                </g>
                <g transform="matrix(-0.223465,0.833984,0.860398,0.230543,-173.74,-144.902)">
                    <path d="M304.475,732.94C293.595,732.929 284.646,723.98 284.635,713.1C284.635,701.662 275.223,692.25 263.785,692.25C252.347,692.25 242.935,701.662 242.935,713.1C242.935,723.984 233.979,732.94 223.095,732.94C212.211,732.94 203.255,723.984 203.255,713.1C203.255,679.894 230.579,652.57 263.785,652.57C296.991,652.57 324.315,679.894 324.315,713.1C324.304,723.98 315.355,732.929 304.475,732.94ZM263.785,688.74C277.139,688.762 288.119,699.746 288.135,713.1C288.135,722.064 295.511,729.44 304.475,729.44C313.439,729.44 320.815,722.064 320.815,713.1C320.815,681.814 295.071,656.07 263.785,656.07C232.499,656.07 206.755,681.814 206.755,713.1C206.755,722.064 214.131,729.44 223.095,729.44C232.059,729.44 239.435,722.064 239.435,713.1C239.446,699.744 250.429,688.756 263.785,688.74Z" style="fill:rgb(255,154,27);fill-rule:nonzero;"/>
                </g>
                <g transform="matrix(0.226195,-0.857926,0.741821,0.219411,-126.152,690.185)">
                    <path d="M529,493.56C518.12,493.555 509.166,484.61 509.15,473.73L509.15,451.83C509.15,440.946 518.106,431.99 528.99,431.99C539.874,431.99 548.83,440.946 548.83,451.83L548.83,473.73C548.819,484.604 539.874,493.549 529,493.56ZM529,435.5C520.04,435.505 512.666,442.87 512.65,451.83L512.65,473.73C512.65,482.694 520.026,490.07 528.99,490.07C537.954,490.07 545.33,482.694 545.33,473.73L545.33,451.83C545.319,442.876 537.954,435.511 529,435.5Z" style="fill:rgb(186,156,219);fill-rule:nonzero;"/>
                </g>
                <g transform="matrix(1.03917,0,0,1.10066,248.871,20.3546)">
                    <circle cx="137.048" cy="168.166" r="14.139" style="fill:none;stroke:rgb(94,194,238);stroke-width:3.88px;"/>
                </g>
            </g>
            <g transform="matrix(0.842504,0,0,0.842504,-4.81533,26.519)">
                <g transform="matrix(1,0,0,1,241.557,212.453)">
                    <path d="M342.1,39.72L309.1,39.72C298.342,39.72 289.49,30.868 289.49,20.11C289.49,9.352 298.342,0.5 309.1,0.5L342.1,0.5C352.858,0.5 361.71,9.352 361.71,20.11C361.71,30.868 352.858,39.72 342.1,39.72ZM309.1,4C300.262,4 292.99,11.272 292.99,20.11C292.99,28.948 300.262,36.22 309.1,36.22L342.1,36.22C350.938,36.22 358.21,28.948 358.21,20.11C358.21,11.272 350.938,4 342.1,4L309.1,4Z" style="fill:rgb(186,156,219);fill-rule:nonzero;"/>
                </g>
                <g transform="matrix(1,0,0,1,241.557,212.453)">
                    <path d="M342.1,173.64L309.1,173.64C298.342,173.64 289.49,164.788 289.49,154.03C289.49,143.272 298.342,134.42 309.1,134.42L342.1,134.42C352.858,134.42 361.71,143.272 361.71,154.03C361.71,164.788 352.858,173.64 342.1,173.64ZM309.1,137.92C300.262,137.92 292.99,145.192 292.99,154.03C292.99,162.868 300.262,170.14 309.1,170.14L342.1,170.14C350.938,170.14 358.21,162.868 358.21,154.03C358.21,145.192 350.938,137.92 342.1,137.92L309.1,137.92Z" style="fill:rgb(94,194,238);fill-rule:nonzero;"/>
                </g>
                <g transform="matrix(1,0,0,1,241.557,212.453)">
                    <path d="M308.5,173.64C275.715,173.602 248.748,146.635 248.71,113.85L248.71,60.29C248.748,27.505 275.715,0.538 308.5,0.5C319.258,0.5 328.11,9.352 328.11,20.11C328.11,30.868 319.258,39.72 308.5,39.72C297.224,39.736 287.951,49.014 287.94,60.29L287.94,113.85C287.951,125.126 297.224,134.404 308.5,134.42C319.258,134.42 328.11,143.272 328.11,154.03C328.11,164.788 319.258,173.64 308.5,173.64ZM308.5,4C277.635,4.038 252.248,29.425 252.21,60.29L252.21,113.85C252.248,144.715 277.635,170.102 308.5,170.14C317.338,170.14 324.61,162.868 324.61,154.03C324.61,145.192 317.338,137.92 308.5,137.92C295.304,137.904 284.451,127.046 284.44,113.85L284.44,60.29C284.451,47.094 295.304,36.236 308.5,36.22C317.338,36.22 324.61,28.948 324.61,20.11C324.61,11.272 317.338,4 308.5,4Z" style="fill:rgb(255,154,27);fill-rule:nonzero;"/>
                </g>
                <g transform="matrix(1,0,0,1,241.557,212.453)">
                    <path d="M325.12,102.2L287.43,102.2C279.124,102.2 272.29,95.366 272.29,87.06C272.29,78.754 279.124,71.92 287.43,71.92L325.12,71.92C333.426,71.92 340.26,78.754 340.26,87.06C340.26,95.366 333.426,102.2 325.12,102.2ZM287.43,75.42C281.044,75.42 275.79,80.674 275.79,87.06C275.79,93.446 281.044,98.7 287.43,98.7L325.12,98.7C331.506,98.7 336.76,93.446 336.76,87.06C336.76,80.674 331.506,75.42 325.12,75.42L287.43,75.42Z" style="fill:rgb(255,76,171);fill-rule:nonzero;"/>
                </g>
            </g>
            <g transform="matrix(0.842504,0,0,0.842504,446.755,26.519)">
                <g transform="matrix(1,0,0,1,241.557,212.453)">
                    <path d="M342.1,39.72L309.1,39.72C298.342,39.72 289.49,30.868 289.49,20.11C289.49,9.352 298.342,0.5 309.1,0.5L342.1,0.5C352.858,0.5 361.71,9.352 361.71,20.11C361.71,30.868 352.858,39.72 342.1,39.72ZM309.1,4C300.262,4 292.99,11.272 292.99,20.11C292.99,28.948 300.262,36.22 309.1,36.22L342.1,36.22C350.938,36.22 358.21,28.948 358.21,20.11C358.21,11.272 350.938,4 342.1,4L309.1,4Z" style="fill:rgb(186,156,219);fill-rule:nonzero;"/>
                </g>
                <g transform="matrix(1,0,0,1,241.557,212.453)">
                    <path d="M342.1,173.64L309.1,173.64C298.342,173.64 289.49,164.788 289.49,154.03C289.49,143.272 298.342,134.42 309.1,134.42L342.1,134.42C352.858,134.42 361.71,143.272 361.71,154.03C361.71,164.788 352.858,173.64 342.1,173.64ZM309.1,137.92C300.262,137.92 292.99,145.192 292.99,154.03C292.99,162.868 300.262,170.14 309.1,170.14L342.1,170.14C350.938,170.14 358.21,162.868 358.21,154.03C358.21,145.192 350.938,137.92 342.1,137.92L309.1,137.92Z" style="fill:rgb(94,194,238);fill-rule:nonzero;"/>
                </g>
                <g transform="matrix(1,0,0,1,241.557,212.453)">
                    <path d="M308.5,173.64C275.715,173.602 248.748,146.635 248.71,113.85L248.71,60.29C248.748,27.505 275.715,0.538 308.5,0.5C319.258,0.5 328.11,9.352 328.11,20.11C328.11,30.868 319.258,39.72 308.5,39.72C297.224,39.736 287.951,49.014 287.94,60.29L287.94,113.85C287.951,125.126 297.224,134.404 308.5,134.42C319.258,134.42 328.11,143.272 328.11,154.03C328.11,164.788 319.258,173.64 308.5,173.64ZM308.5,4C277.635,4.038 252.248,29.425 252.21,60.29L252.21,113.85C252.248,144.715 277.635,170.102 308.5,170.14C317.338,170.14 324.61,162.868 324.61,154.03C324.61,145.192 317.338,137.92 308.5,137.92C295.304,137.904 284.451,127.046 284.44,113.85L284.44,60.29C284.451,47.094 295.304,36.236 308.5,36.22C317.338,36.22 324.61,28.948 324.61,20.11C324.61,11.272 317.338,4 308.5,4Z" style="fill:rgb(255,154,27);fill-rule:nonzero;"/>
                </g>
                <g transform="matrix(1,0,0,1,241.557,212.453)">
                    <path d="M325.12,102.2L287.43,102.2C279.124,102.2 272.29,95.366 272.29,87.06C272.29,78.754 279.124,71.92 287.43,71.92L325.12,71.92C333.426,71.92 340.26,78.754 340.26,87.06C340.26,95.366 333.426,102.2 325.12,102.2ZM287.43,75.42C281.044,75.42 275.79,80.674 275.79,87.06C275.79,93.446 281.044,98.7 287.43,98.7L325.12,98.7C331.506,98.7 336.76,93.446 336.76,87.06C336.76,80.674 331.506,75.42 325.12,75.42L287.43,75.42Z" style="fill:rgb(255,76,171);fill-rule:nonzero;"/>
                </g>
            </g>
            <g transform="matrix(0.842504,0,0,0.842504,-3.72077,28.1967)">
                <g transform="matrix(1,0,0,1,8.34622,-222.213)">
                    <path d="M771.21,568.94L771.21,565.44L771.31,565.44C780.217,565.374 787.499,558.007 787.46,549.1L787.46,451.85C787.46,442.936 780.124,435.6 771.21,435.6C762.296,435.6 754.96,442.936 754.96,451.85L754.96,540.85L751.46,540.85L751.46,451.85C751.46,441.015 760.375,432.1 771.21,432.1C782.045,432.1 790.96,441.015 790.96,451.85L790.96,549.09C791.004,559.92 782.14,568.874 771.31,568.94L771.21,568.94Z" style="fill:rgb(255,154,27);fill-rule:nonzero;"/>
                </g>
                <g transform="matrix(1,0,0,1,8.34622,-222.213)">
                    <path d="M771.2,568.94C760.37,568.929 751.461,560.02 751.45,549.19L751.45,452L755,452L755,549.24C755.217,558.005 762.487,565.097 771.255,565.097C780.023,565.097 787.293,558.005 787.51,549.24L787.51,460.24L791,460.24L791,549.24C790.962,560.07 782.03,568.957 771.2,568.94Z" style="fill:rgb(255,154,27);fill-rule:nonzero;"/>
                </g>
                <g transform="matrix(1,0,0,1,8.34622,-222.213)">
                    <path d="M852.57,568.94C841.787,568.918 832.906,560.083 832.83,549.3L832.83,477.85L836.33,477.85L836.33,549.29C836.395,558.163 843.707,565.429 852.58,565.44L852.67,565.44C861.584,565.435 868.919,558.104 868.93,549.19L868.93,472L872.43,472L872.43,549.24C872.419,560.07 863.51,568.979 852.68,568.99L852.57,568.94Z" style="fill:rgb(94,194,238);fill-rule:nonzero;"/>
                </g>
                <g transform="matrix(1,0,0,1,8.34622,-222.213)">
                    <path d="M836.33,549.09L832.83,549.09L832.83,451.85C832.846,441.01 841.77,432.1 852.61,432.1L852.7,432.1C863.485,432.116 872.369,440.955 872.44,451.74L872.44,543.19L868.94,543.19L868.94,451.75C868.697,442.976 861.414,435.891 852.636,435.891C843.821,435.891 836.52,443.037 836.33,451.85L836.33,549.09Z" style="fill:rgb(94,194,238);fill-rule:nonzero;"/>
                </g>
                <g transform="matrix(1,0,0,1,8.34622,-222.213)">
                    <path d="M853,493.56C842.118,493.56 833.161,484.612 833.15,473.73L833.15,451.83C833.391,441.117 842.269,432.435 852.985,432.435C863.701,432.435 872.579,441.117 872.82,451.83L872.82,473.73C872.815,484.603 863.873,493.549 853,493.56ZM853,435.5C844.038,435.5 836.661,442.868 836.65,451.83L836.65,473.73C836.868,482.539 844.174,489.666 852.985,489.666C861.796,489.666 869.102,482.539 869.32,473.73L869.32,451.83C869.309,442.88 861.95,435.516 853,435.5Z" style="fill:rgb(186,156,219);fill-rule:nonzero;"/>
                </g>
                <g transform="matrix(1,0,0,1,8.34622,-222.213)">
                    <path d="M812,607.39C778.798,607.357 751.484,580.052 751.44,546.85C751.437,546.702 751.435,546.553 751.435,546.405C751.435,535.521 760.391,526.565 771.275,526.565C782.159,526.565 791.115,535.521 791.115,546.405C791.115,546.553 791.113,546.702 791.11,546.85C791.126,558.299 800.551,567.71 812,567.71C823.44,567.705 832.85,558.29 832.85,546.85L832.85,546.84C832.85,535.956 841.806,527 852.69,527C863.574,527 872.53,535.956 872.53,546.84L872.53,546.86C872.53,580.066 845.206,607.39 812,607.39ZM771.27,530.51C762.337,530.559 755.011,537.917 755,546.85C755,578.138 780.747,603.885 812.035,603.885C843.323,603.885 869.07,578.138 869.07,546.85C869.07,537.886 861.694,530.51 852.73,530.51C843.766,530.51 836.39,537.886 836.39,546.85C836.39,560.214 825.394,571.21 812.03,571.21C798.666,571.21 787.67,560.214 787.67,546.85C787.659,537.883 780.277,530.51 771.31,530.51L771.27,530.51Z" style="fill:rgb(255,76,171);fill-rule:nonzero;"/>
                </g>
            </g>
            <g transform="matrix(0.842504,0,0,0.842504,30.9707,37.6565)">
                <g transform="matrix(1,0,0,1,457.454,199.234)">
                    <path d="M421.14,173.64C410.377,173.624 401.53,164.763 401.53,154L401.53,20.11C401.53,9.352 410.382,0.5 421.14,0.5C431.898,0.5 440.75,9.352 440.75,20.11L440.75,154C440.75,164.763 431.903,173.624 421.14,173.64ZM421.14,4C412.295,3.995 405.011,11.265 405,20.11L405,154C405,162.838 412.272,170.11 421.11,170.11C429.948,170.11 437.22,162.838 437.22,154L437.22,20.11C437.209,11.288 429.962,4.027 421.14,4Z" style="fill:rgb(186,156,219);fill-rule:nonzero;"/>
                </g>
                <g transform="matrix(1,0,0,1,457.454,199.234)">
                    <path d="M487.72,173.64L421.14,173.64C410.382,173.64 401.53,164.788 401.53,154.03C401.53,143.272 410.382,134.42 421.14,134.42L487.72,134.42C498.478,134.42 507.33,143.272 507.33,154.03C507.33,164.788 498.478,173.64 487.72,173.64ZM421.14,137.92C412.302,137.92 405.03,145.192 405.03,154.03C405.03,162.868 412.302,170.14 421.14,170.14L487.72,170.14C496.558,170.14 503.83,162.868 503.83,154.03C503.83,145.192 496.558,137.92 487.72,137.92L421.14,137.92Z" style="fill:rgb(255,76,171);fill-rule:nonzero;"/>
                </g>
                <g transform="matrix(1,0,0,1,457.454,199.234)">
                    <path d="M421.14,56.8C410.388,56.784 401.546,47.942 401.53,37.19L401.53,20.11C401.53,9.352 410.382,0.5 421.14,0.5C431.898,0.5 440.75,9.352 440.75,20.11L440.75,37.19C440.734,47.942 431.892,56.784 421.14,56.8ZM421.14,4C412.295,3.995 405.011,11.265 405,20.11L405,37.19C405,46.028 412.272,53.3 421.11,53.3C429.948,53.3 437.22,46.028 437.22,37.19L437.22,20.11C437.209,11.288 429.962,4.027 421.14,4Z" style="fill:rgb(255,154,27);fill-rule:nonzero;"/>
                </g>
                <g transform="matrix(1,0,0,1,457.454,199.234)">
                    <path d="M421.14,173.38C410.388,173.364 401.546,164.522 401.53,153.77L401.53,128.77C401.53,118.012 410.382,109.16 421.14,109.16C431.898,109.16 440.75,118.012 440.75,128.77L440.75,153.77C440.734,164.522 431.892,173.364 421.14,173.38ZM421.14,112.66C412.295,112.655 405.011,119.925 405,128.77L405,153.77C405,162.608 412.272,169.88 421.11,169.88C429.948,169.88 437.22,162.608 437.22,153.77L437.22,128.77C437.209,119.948 429.962,112.687 421.14,112.66Z" style="fill:rgb(94,194,238);fill-rule:nonzero;"/>
                </g>
            </g>
        </g>
        <g transform="matrix(0.725637,0,0,0.725637,4.14894,118.94)">
            <g transform="matrix(1,0,0,1,-237.118,-406.705)">
                <path d="M355.26,534.82L317.56,534.82C309.254,534.82 302.42,527.986 302.42,519.68C302.42,511.374 309.254,504.54 317.56,504.54L355.26,504.54C363.566,504.54 370.4,511.374 370.4,519.68C370.4,527.986 363.566,534.82 355.26,534.82ZM317.56,508C311.174,508 305.92,513.254 305.92,519.64C305.92,526.026 311.174,531.28 317.56,531.28L355.26,531.28C361.646,531.28 366.9,526.026 366.9,519.64C366.9,513.254 361.646,508 355.26,508L317.56,508Z" style="fill:rgb(255,76,171);fill-rule:nonzero;"/>
            </g>
            <g transform="matrix(1,0,0,1,-237.118,-406.705)">
                <path d="M1072.9,525.58C1062.16,525.564 1053.32,516.74 1053.29,506L1053.29,492.59C1053.33,459.805 1080.3,432.838 1113.08,432.8L1113.19,432.8C1126.84,432.819 1140.07,437.511 1150.68,446.09C1155.34,449.811 1158.05,455.457 1158.06,461.417C1158.06,472.174 1149.2,481.027 1138.45,481.027C1133.91,481.027 1129.51,479.451 1126,476.57C1122.34,473.624 1117.79,472.017 1113.09,472.017C1101.81,472.017 1092.53,481.29 1092.51,492.57L1092.51,506C1092.48,516.74 1083.64,525.564 1072.9,525.58ZM1113.08,436.3C1082.21,436.333 1056.82,461.723 1056.79,492.59L1056.79,506C1056.79,514.838 1064.06,522.11 1072.9,522.11C1081.74,522.11 1089.01,514.838 1089.01,506L1089.01,492.59C1089.02,479.384 1099.88,468.519 1113.09,468.519C1118.59,468.519 1123.92,470.401 1128.2,473.85C1131.14,476.45 1134.94,477.887 1138.87,477.888C1147.71,477.888 1154.98,470.616 1154.98,461.778C1154.98,456.688 1152.57,451.887 1148.48,448.85C1138.49,440.775 1126.03,436.358 1113.19,436.34L1113.08,436.3Z" style="fill:rgb(255,76,171);fill-rule:nonzero;"/>
            </g>
            <g transform="matrix(1,0,0,1,-236.852,-405.878)">
                <path d="M372.24,472.34L339.24,472.34C328.482,472.34 319.63,463.488 319.63,452.73C319.63,441.972 328.482,433.12 339.24,433.12L372.24,433.12C382.998,433.12 391.85,441.972 391.85,452.73C391.85,463.488 382.998,472.34 372.24,472.34ZM339.24,436.62C330.402,436.62 323.13,443.892 323.13,452.73C323.13,461.568 330.402,468.84 339.24,468.84L372.24,468.84C381.078,468.84 388.35,461.568 388.35,452.73C388.35,443.892 381.078,436.62 372.24,436.62L339.24,436.62Z" style="fill:rgb(186,156,219);fill-rule:nonzero;"/>
            </g>
            <g transform="matrix(1,0,0,1,-236.852,-405.878)">
                <path d="M372.24,606.26L339.24,606.26C328.482,606.26 319.63,597.408 319.63,586.65C319.63,575.892 328.482,567.04 339.24,567.04L372.24,567.04C382.998,567.04 391.85,575.892 391.85,586.65C391.85,597.408 382.998,606.26 372.24,606.26ZM339.24,570.54C330.402,570.54 323.13,577.812 323.13,586.65C323.13,595.488 330.402,602.76 339.24,602.76L372.24,602.76C381.078,602.76 388.35,595.488 388.35,586.65C388.35,577.812 381.078,570.54 372.24,570.54L339.24,570.54Z" style="fill:rgb(94,194,238);fill-rule:nonzero;"/>
            </g>
            <g transform="matrix(1,0,0,1,-236.852,-405.878)">
                <path d="M338.64,606.26C305.855,606.222 278.888,579.255 278.85,546.47L278.85,492.91C278.888,460.125 305.855,433.158 338.64,433.12C349.398,433.12 358.25,441.972 358.25,452.73C358.25,463.488 349.398,472.34 338.64,472.34C327.362,472.356 318.086,481.632 318.07,492.91L318.07,546.47C318.108,557.733 327.377,566.984 338.64,567C349.398,567 358.25,575.852 358.25,586.61C358.25,597.368 349.398,606.22 338.64,606.22L338.64,606.26ZM338.64,436.62C307.773,436.653 282.383,462.043 282.35,492.91L282.35,546.47C282.383,577.337 307.773,602.727 338.64,602.76C347.478,602.76 354.75,595.488 354.75,586.65C354.75,577.812 347.478,570.54 338.64,570.54C325.442,570.524 314.586,559.668 314.57,546.47L314.57,492.91C314.586,479.712 325.442,468.856 338.64,468.84C347.478,468.84 354.75,461.568 354.75,452.73C354.75,443.892 347.478,436.62 338.64,436.62Z" style="fill:rgb(255,154,27);fill-rule:nonzero;"/>
            </g>
            <g transform="matrix(1,0,0,1,-236.852,-405.878)">
                <path d="M612.22,607.38C601.34,607.375 592.386,598.43 592.37,587.55L592.37,451.85C592.375,440.97 601.32,432.016 612.2,432C623.072,432.016 632.014,440.958 632.03,451.83L632.03,587.53C632.03,598.404 623.094,607.358 612.22,607.38ZM612.22,435.52C603.266,435.531 595.901,442.896 595.89,451.85L595.89,587.55C595.89,596.514 603.266,603.89 612.23,603.89C621.194,603.89 628.57,596.514 628.57,587.55L628.57,451.85C628.559,442.896 621.194,435.531 612.24,435.52L612.22,435.52ZM946.23,570L942.73,570L942.73,449.85C942.73,443.09 935.73,435.52 926.4,435.52C917.07,435.52 910.05,443.09 910.05,449.85L910.05,569.26L906.55,569.26L906.55,449.85C906.55,440.52 916,432.02 926.38,432.02C936.76,432.02 946.23,440.52 946.23,449.85L946.23,570Z" style="fill:rgb(94,194,238);fill-rule:nonzero;"/>
            </g>
            <g transform="matrix(1,0,0,1,-236.852,-405.878)">
                <path d="M926.4,497.5C915.52,497.495 906.566,488.55 906.55,477.67L906.55,451.85C906.555,440.97 915.5,432.016 926.38,432C937.252,432.016 946.194,440.958 946.21,451.83L946.21,477.65C946.21,488.524 937.274,497.478 926.4,497.5ZM926.4,435.5C917.446,435.511 910.081,442.876 910.07,451.83L910.07,477.65C910.07,486.614 917.446,493.99 926.41,493.99C935.374,493.99 942.75,486.614 942.75,477.65L942.75,451.85C942.739,442.896 935.374,435.531 926.42,435.52L926.4,435.5Z" style="fill:rgb(255,76,171);fill-rule:nonzero;"/>
            </g>
            <g transform="matrix(1,0,0,1,-236.852,-405.878)">
                <path d="M1007.4,607.39C1002.12,607.404 997.054,605.299 993.34,601.55L961.7,569.79C936.384,544.397 936.384,502.693 961.7,477.3L999.7,439.2C1003.45,435.261 1008.65,433.027 1014.08,433.025C1024.97,433.025 1033.92,441.982 1033.92,452.865C1033.92,458.276 1031.71,463.458 1027.8,467.2L989.8,505.32C979.814,515.311 979.814,531.749 989.8,541.74L1021.47,573.53C1025.17,577.248 1027.25,582.285 1027.25,587.53C1027.25,598.414 1018.3,607.37 1007.41,607.37L1007.41,607.37L1007.4,607.39ZM1013.76,436.88C1009.42,436.874 1005.25,438.599 1002.19,441.67L964.19,479.77C940.225,503.807 940.225,543.283 964.19,567.32L995.83,599.08C998.898,602.158 1003.07,603.891 1007.42,603.892C1016.38,603.892 1023.77,596.51 1023.77,587.54C1023.77,583.216 1022.05,579.064 1019,576L987.33,544.22C975.985,532.867 975.985,514.193 987.33,502.84L1025.33,464.73C1028.39,461.668 1030.1,457.516 1030.11,453.19C1030.11,444.232 1022.73,436.86 1013.78,436.86L1013.76,436.86L1013.76,436.88ZM655.12,545.59L639.34,545.59C628.456,545.59 619.5,536.634 619.5,525.75C619.5,514.866 628.456,505.91 639.34,505.91L655.12,505.91C664.506,505.91 672.23,498.186 672.23,488.8C672.23,479.414 664.506,471.69 655.12,471.69L612.2,471.69C601.316,471.69 592.36,462.734 592.36,451.85C592.36,440.966 601.316,432.01 612.2,432.01L655.12,432.01C686.274,432.01 711.91,457.646 711.91,488.8C711.91,519.954 686.274,545.59 655.12,545.59ZM639.34,509.41C630.376,509.41 623,516.786 623,525.75C623,534.714 630.376,542.09 639.34,542.09L655.12,542.09C684.354,542.09 708.41,518.034 708.41,488.8C708.41,459.566 684.354,435.51 655.12,435.51L612.2,435.51C603.236,435.51 595.86,442.886 595.86,451.85C595.86,460.814 603.236,468.19 612.2,468.19L655.12,468.19C666.426,468.19 675.73,477.494 675.73,488.8C675.73,500.106 666.426,509.41 655.12,509.41L639.34,509.41Z" style="fill:rgb(255,154,27);fill-rule:nonzero;"/>
            </g>
            <g transform="matrix(1,0,0,1,-236.852,-405.878)">
                <path d="M693.61,607.37C687.901,607.367 682.461,604.906 678.69,600.62L624.43,538.84C621.253,535.22 619.5,530.566 619.499,525.75C619.499,514.866 628.456,505.909 639.34,505.909C645.046,505.911 650.484,508.373 654.25,512.66L708.51,574.44C711.687,578.06 713.44,582.714 713.441,587.53C713.441,598.411 704.491,607.365 693.61,607.37ZM639.32,509.37C630.364,509.381 623,516.754 623,525.71C623,529.676 624.443,533.51 627.06,536.49L681.32,598.27C684.422,601.8 688.9,603.828 693.6,603.83C702.564,603.83 709.94,596.454 709.94,587.49C709.94,583.524 708.496,579.691 705.88,576.71L651.62,515C648.766,511.739 644.725,509.747 640.4,509.47L639.32,509.37Z" style="fill:rgb(255,76,171);fill-rule:nonzero;"/>
            </g>
            <g transform="matrix(1,0,0,1,-236.852,-405.878)">
                <path d="M612.22,607.36C601.34,607.355 592.386,598.41 592.37,587.53L592.37,572.29C592.386,561.418 601.328,552.476 612.2,552.46C623.072,552.476 632.014,561.418 632.03,572.29L632.03,587.53C632.014,598.395 623.085,607.333 612.22,607.36ZM612.22,555.96C603.266,555.971 595.901,563.336 595.89,572.29L595.89,587.53C595.89,596.494 603.266,603.87 612.23,603.87C621.194,603.87 628.57,596.494 628.57,587.53L628.57,572.29C628.537,563.343 621.167,556 612.22,556L612.22,555.96ZM926.4,607.62C915.52,607.615 906.566,598.67 906.55,587.79L906.55,566.89C906.55,556.006 915.506,547.05 926.39,547.05C937.274,547.05 946.23,556.006 946.23,566.89L946.23,587.79C946.214,598.662 937.272,607.604 926.4,607.62ZM926.4,550.56C917.44,550.565 910.066,557.93 910.05,566.89L910.05,587.79C910.05,596.754 917.426,604.13 926.39,604.13C935.354,604.13 942.73,596.754 942.73,587.79L942.73,566.89C942.719,557.936 935.354,550.571 926.4,550.56Z" style="fill:rgb(186,156,219);fill-rule:nonzero;"/>
            </g>
            <g transform="matrix(1,0,0,1,-236.852,-405.878)">
                <path d="M771.21,568.94L771.21,565.44L771.31,565.44C780.217,565.374 787.499,558.007 787.46,549.1L787.46,451.85C787.46,442.936 780.124,435.6 771.21,435.6C762.296,435.6 754.96,442.936 754.96,451.85L754.96,540.85L751.46,540.85L751.46,451.85C751.46,441.015 760.375,432.1 771.21,432.1C782.045,432.1 790.96,441.015 790.96,451.85L790.96,549.09C791.004,559.92 782.14,568.874 771.31,568.94L771.21,568.94Z" style="fill:rgb(255,154,27);fill-rule:nonzero;"/>
            </g>
            <g transform="matrix(1,0,0,1,-236.852,-405.878)">
                <path d="M771.2,568.94C760.37,568.929 751.461,560.02 751.45,549.19L751.45,452L755,452L755,549.24C755.217,558.005 762.487,565.097 771.255,565.097C780.023,565.097 787.293,558.005 787.51,549.24L787.51,460.24L791,460.24L791,549.24C790.962,560.07 782.03,568.957 771.2,568.94Z" style="fill:rgb(255,154,27);fill-rule:nonzero;"/>
            </g>
            <g transform="matrix(1,0,0,1,-236.852,-405.878)">
                <path d="M852.57,568.94C841.787,568.918 832.906,560.083 832.83,549.3L832.83,477.85L836.33,477.85L836.33,549.29C836.395,558.163 843.707,565.429 852.58,565.44L852.67,565.44C861.584,565.435 868.919,558.104 868.93,549.19L868.93,472L872.43,472L872.43,549.24C872.419,560.07 863.51,568.979 852.68,568.99L852.57,568.94Z" style="fill:rgb(94,194,238);fill-rule:nonzero;"/>
            </g>
            <g transform="matrix(1,0,0,1,-236.852,-405.878)">
                <path d="M836.33,549.09L832.83,549.09L832.83,451.85C832.846,441.01 841.77,432.1 852.61,432.1L852.7,432.1C863.485,432.116 872.369,440.955 872.44,451.74L872.44,543.19L868.94,543.19L868.94,451.75C868.697,442.976 861.414,435.891 852.636,435.891C843.821,435.891 836.52,443.037 836.33,451.85L836.33,549.09Z" style="fill:rgb(94,194,238);fill-rule:nonzero;"/>
            </g>
            <g transform="matrix(1,0,0,1,-236.852,-405.878)">
                <path d="M853,493.56C842.118,493.56 833.161,484.612 833.15,473.73L833.15,451.83C833.391,441.117 842.269,432.435 852.985,432.435C863.701,432.435 872.579,441.117 872.82,451.83L872.82,473.73C872.815,484.603 863.873,493.549 853,493.56ZM853,435.5C844.038,435.5 836.661,442.868 836.65,451.83L836.65,473.73C836.868,482.539 844.174,489.666 852.985,489.666C861.796,489.666 869.102,482.539 869.32,473.73L869.32,451.83C869.309,442.88 861.95,435.516 853,435.5Z" style="fill:rgb(186,156,219);fill-rule:nonzero;"/>
            </g>
            <g transform="matrix(1,0,0,1,-236.852,-405.878)">
                <path d="M812,607.39C778.798,607.357 751.484,580.052 751.44,546.85C751.437,546.702 751.435,546.553 751.435,546.405C751.435,535.521 760.391,526.565 771.275,526.565C782.159,526.565 791.115,535.521 791.115,546.405C791.115,546.553 791.113,546.702 791.11,546.85C791.126,558.299 800.551,567.71 812,567.71C823.44,567.705 832.85,558.29 832.85,546.85L832.85,546.84C832.85,535.956 841.806,527 852.69,527C863.574,527 872.53,535.956 872.53,546.84L872.53,546.86C872.53,580.066 845.206,607.39 812,607.39ZM771.27,530.51C762.337,530.559 755.011,537.917 755,546.85C755,578.138 780.747,603.885 812.035,603.885C843.323,603.885 869.07,578.138 869.07,546.85C869.07,537.886 861.694,530.51 852.73,530.51C843.766,530.51 836.39,537.886 836.39,546.85C836.39,560.214 825.394,571.21 812.03,571.21C798.666,571.21 787.67,560.214 787.67,546.85C787.659,537.883 780.277,530.51 771.31,530.51L771.27,530.51Z" style="fill:rgb(255,76,171);fill-rule:nonzero;"/>
            </g>
            <g transform="matrix(1,0,0,1,-236.852,-405.878)">
                <path d="M447.17,568.94L447.17,565.44L447.27,565.44C456.177,565.374 463.459,558.007 463.42,549.1L463.42,451.85C463.42,442.936 456.084,435.6 447.17,435.6C438.256,435.6 430.92,442.936 430.92,451.85L430.92,540.85L427.42,540.85L427.42,451.85C427.42,441.015 436.335,432.1 447.17,432.1C458.005,432.1 466.92,441.015 466.92,451.85L466.92,549.09C466.964,559.917 458.107,568.869 447.28,568.94L447.17,568.94Z" style="fill:rgb(255,154,27);fill-rule:nonzero;"/>
            </g>
            <g transform="matrix(1,0,0,1,-236.852,-405.878)">
                <path d="M447.17,568.94C436.34,568.929 427.431,560.02 427.42,549.19L427.42,452L430.92,452L430.92,549.24C430.92,558.154 438.256,565.49 447.17,565.49C456.084,565.49 463.42,558.154 463.42,549.24L463.42,460.24L466.92,460.24L466.92,549.24C466.882,560.051 457.982,568.929 447.17,568.94Z" style="fill:rgb(255,154,27);fill-rule:nonzero;"/>
            </g>
            <g transform="matrix(1,0,0,1,-236.852,-405.878)">
                <path d="M528.54,568.94C517.755,568.924 508.871,560.085 508.8,549.3L508.8,477.85L512.3,477.85L512.3,549.19C512.322,558.096 519.644,565.418 528.55,565.44L528.64,565.44C537.554,565.435 544.889,558.104 544.9,549.19L544.9,472L548.4,472L548.4,549.24C548.389,560.07 539.48,568.979 528.65,568.99L528.54,568.94Z" style="fill:rgb(94,194,238);fill-rule:nonzero;"/>
            </g>
            <g transform="matrix(1,0,0,1,-236.852,-405.878)">
                <path d="M512.3,549.09L508.8,549.09L508.8,451.85C508.811,441.02 517.72,432.111 528.55,432.1L528.66,432.1C539.449,432.105 548.34,440.951 548.4,451.74L548.4,543.19L544.9,543.19L544.9,451.75C544.845,442.873 537.527,435.6 528.65,435.6L528.56,435.6C519.646,435.605 512.311,442.936 512.3,451.85L512.3,549.09Z" style="fill:rgb(94,194,238);fill-rule:nonzero;"/>
            </g>
            <g transform="matrix(1,0,0,1,-236.852,-405.878)">
                <path d="M529,493.56C518.12,493.555 509.166,484.61 509.15,473.73L509.15,451.83C509.15,440.946 518.106,431.99 528.99,431.99C539.874,431.99 548.83,440.946 548.83,451.83L548.83,473.73C548.819,484.604 539.874,493.549 529,493.56ZM529,435.5C520.04,435.505 512.666,442.87 512.65,451.83L512.65,473.73C512.65,482.694 520.026,490.07 528.99,490.07C537.954,490.07 545.33,482.694 545.33,473.73L545.33,451.83C545.319,442.876 537.954,435.511 529,435.5Z" style="fill:rgb(186,156,219);fill-rule:nonzero;"/>
            </g>
            <g transform="matrix(1,0,0,1,-236.852,-405.878)">
                <path d="M488,607.39C454.794,607.363 427.474,580.056 427.43,546.85C427.43,535.966 436.386,527.01 447.27,527.01C458.154,527.01 467.11,535.966 467.11,546.85C467.11,558.293 476.527,567.71 487.97,567.71C499.413,567.71 508.83,558.293 508.83,546.85C508.83,535.966 517.786,527.01 528.67,527.01C539.554,527.01 548.51,535.966 548.51,546.85C548.515,580.052 521.202,607.379 488,607.39ZM447.27,530.51C438.31,530.521 430.941,537.89 430.93,546.85C430.93,578.141 456.679,603.89 487.97,603.89C519.261,603.89 545.01,578.141 545.01,546.85C545.01,537.886 537.634,530.51 528.67,530.51C519.706,530.51 512.33,537.886 512.33,546.85C512.33,560.214 501.334,571.21 487.97,571.21C474.606,571.21 463.61,560.214 463.61,546.85C463.599,537.883 456.217,530.51 447.25,530.51L447.27,530.51Z" style="fill:rgb(255,76,171);fill-rule:nonzero;"/>
            </g>
            <g transform="matrix(1,0,0,1,-236.852,-405.878)">
                <path d="M1099.76,603.67C1097.53,603.669 1095.32,603.286 1093.22,602.54C1069.4,594.085 1053.38,571.426 1053.35,546.15L1053.35,506C1053.35,495.242 1062.2,486.39 1072.96,486.39C1083.72,486.39 1092.57,495.242 1092.57,506L1092.57,546.18C1092.58,554.882 1098.1,562.682 1106.3,565.59C1114.11,568.361 1119.36,575.794 1119.36,584.08C1119.36,594.835 1110.52,603.688 1099.76,603.7L1099.76,603.67ZM1073,489.86L1072.98,489.86C1064.13,489.86 1056.85,497.141 1056.85,505.99L1056.85,546.18C1056.88,569.978 1071.96,591.312 1094.39,599.27C1096.12,599.88 1097.93,600.191 1099.76,600.191C1108.6,600.191 1115.87,592.918 1115.87,584.08C1115.87,577.269 1111.55,571.16 1105.13,568.89C1095.54,565.485 1089.08,556.36 1089.07,546.18L1089.07,506C1089.08,497.17 1081.83,489.893 1073,489.86Z" style="fill:rgb(94,194,238);fill-rule:nonzero;"/>
            </g>
            <g transform="matrix(1,0,0,1,-236.852,-405.878)">
                <path d="M1113.13,605.94L1113.03,605.94C1106.27,605.946 1099.55,604.796 1093.17,602.54C1083.02,598.974 1077.61,587.689 1081.17,577.54C1084.75,567.403 1096.02,561.993 1106.17,565.54C1108.37,566.317 1110.69,566.714 1113.02,566.714C1124.3,566.714 1133.59,557.428 1133.59,546.144L1133.59,527.81C1133.59,517.052 1142.44,508.2 1153.2,508.2C1163.96,508.2 1172.81,517.052 1172.81,527.81L1172.81,546.15C1172.82,578.933 1145.85,605.918 1113.07,605.94L1113.13,605.94ZM1099.72,567.94L1099.71,567.94C1090.87,567.94 1083.6,575.212 1083.6,584.05C1083.62,590.856 1087.93,596.955 1094.34,599.24C1100.34,601.36 1106.66,602.443 1113.03,602.44L1113.13,602.44C1137.06,602.428 1157.69,587.153 1165.76,565.905C1168.09,559.747 1169.37,553.086 1169.37,546.15L1169.37,527.81C1169.37,518.972 1162.1,511.7 1153.26,511.7C1144.42,511.7 1137.15,518.972 1137.15,527.81L1137.15,546.16C1137.12,559.367 1126.25,570.219 1113.04,570.219C1110.32,570.219 1107.62,569.759 1105.06,568.86C1103.35,568.254 1101.54,567.943 1099.72,567.94Z" style="fill:rgb(255,154,27);fill-rule:nonzero;"/>
            </g>
            <g transform="matrix(1,0,0,1,-236.852,-405.878)">
                <path d="M1153.26,545.44C1142.51,545.424 1133.67,536.582 1133.65,525.83L1133.65,492.59C1133.66,486.379 1130.85,480.488 1126.01,476.59C1121.41,472.867 1118.73,467.257 1118.73,461.34C1118.73,450.582 1127.58,441.729 1138.34,441.729C1142.83,441.729 1147.18,443.269 1150.67,446.09C1164.73,457.42 1172.91,474.551 1172.87,492.61L1172.87,525.84C1172.85,536.588 1164.01,545.424 1153.26,545.44ZM1138.37,445.22C1137.79,445.22 1137.21,445.25 1136.64,445.31C1128.49,446.173 1122.23,453.131 1122.23,461.33C1122.23,466.192 1124.43,470.802 1128.21,473.86C1133.88,478.418 1137.17,485.317 1137.15,492.59L1137.15,525.83C1137.15,534.668 1144.42,541.94 1153.26,541.94C1162.1,541.94 1169.37,534.668 1169.37,525.83L1169.37,492.6C1169.41,475.596 1161.71,459.465 1148.47,448.8C1145.62,446.482 1142.05,445.218 1138.37,445.22Z" style="fill:rgb(186,156,219);fill-rule:nonzero;"/>
            </g>
        </g>
        <g transform="matrix(0.718953,0,0,0.718953,237.649,70.7397)">
            <g transform="matrix(1,0,0,1,702.878,-555.643)">
                <path d="M11.8,702.47C5.329,702.465 0.005,697.141 0,690.67L0,663.55C0,657.077 5.327,651.75 11.8,651.75C18.273,651.75 23.6,657.077 23.6,663.55L23.6,690.67C23.595,697.141 18.271,702.465 11.8,702.47ZM11.8,655.25C7.249,655.255 3.505,658.999 3.5,663.55L3.5,690.67C3.5,695.223 7.247,698.97 11.8,698.97C16.353,698.97 20.1,695.223 20.1,690.67L20.1,663.55C20.095,658.999 16.351,655.255 11.8,655.25Z" style="fill:rgb(186,156,219);fill-rule:nonzero;"/>
            </g>
            <g transform="matrix(1,0,0,1,702.878,-555.643)">
                <path d="M69.64,828.11C58.76,828.099 49.811,819.15 49.8,808.27C49.8,791.2 65.1,779.33 86.28,762.89C103.09,749.89 131.22,728 131.22,713.29C131.22,702.406 140.176,693.45 151.06,693.45C161.944,693.45 170.9,702.406 170.9,713.29C170.9,744.61 143.28,768.76 115,790.82L112.85,788.06C140.45,766.54 167.4,743.06 167.4,713.29C167.4,704.326 160.024,696.95 151.06,696.95C142.096,696.95 134.72,704.326 134.72,713.29C134.72,729.72 106.86,751.34 88.43,765.65C68,781.48 53.3,792.92 53.3,808.27C53.311,817.23 60.68,824.599 69.64,824.61L69.64,828.11Z" style="fill:rgb(255,154,27);fill-rule:nonzero;"/>
            </g>
            <g transform="matrix(1,0,0,1,702.878,-555.643)">
                <path d="M151.76,733.13C140.88,733.119 131.931,724.17 131.92,713.29C131.92,701.852 122.508,692.44 111.07,692.44C99.632,692.44 90.22,701.852 90.22,713.29C90.22,724.174 81.264,733.13 70.38,733.13C59.496,733.13 50.54,724.174 50.54,713.29C50.54,680.084 77.864,652.76 111.07,652.76C144.276,652.76 171.6,680.084 171.6,713.29C171.589,724.17 162.64,733.119 151.76,733.13ZM111.07,688.93C124.424,688.952 135.404,699.936 135.42,713.29C135.42,722.254 142.796,729.63 151.76,729.63C160.724,729.63 168.1,722.254 168.1,713.29C168.1,682.004 142.356,656.26 111.07,656.26C79.784,656.26 54.04,682.004 54.04,713.29C54.04,722.254 61.416,729.63 70.38,729.63C79.344,729.63 86.72,722.254 86.72,713.29C86.731,699.934 97.714,688.946 111.07,688.93Z" style="fill:rgb(255,76,171);fill-rule:nonzero;"/>
            </g>
            <g transform="matrix(1,0,0,1,702.878,-555.643)">
                <path d="M151.06,828.1L69.64,828.1C58.756,828.1 49.8,819.144 49.8,808.26C49.8,797.376 58.756,788.42 69.64,788.42L151.06,788.42C161.944,788.42 170.9,797.376 170.9,808.26C170.9,819.144 161.944,828.1 151.06,828.1ZM69.64,791.92C60.676,791.92 53.3,799.296 53.3,808.26C53.3,817.224 60.676,824.6 69.64,824.6L151.06,824.6C160.024,824.6 167.4,817.224 167.4,808.26C167.4,799.296 160.024,791.92 151.06,791.92L69.64,791.92Z" style="fill:rgb(94,194,238);fill-rule:nonzero;"/>
            </g>
            <g transform="matrix(1,0,0,1,702.878,-555.643)">
                <path d="M84.86,827.92L69.66,827.92C58.825,827.92 49.91,819.005 49.91,808.17C49.91,797.335 58.825,788.42 69.66,788.42L84.86,788.42C95.695,788.42 104.61,797.335 104.61,808.17C104.61,819.005 95.695,827.92 84.86,827.92ZM69.64,791.92C60.726,791.92 53.39,799.256 53.39,808.17C53.39,817.084 60.726,824.42 69.64,824.42L84.84,824.42C93.754,824.42 101.09,817.084 101.09,808.17C101.09,799.256 93.754,791.92 84.84,791.92L69.64,791.92Z" style="fill:rgb(186,156,219);fill-rule:nonzero;"/>
            </g>
            <g transform="matrix(1,0,0,1,702.878,-555.643)">
                <path d="M222.355,827.92C211.475,827.909 202.526,818.96 202.515,808.08C202.515,791.01 217.815,779.14 238.995,762.7C255.805,749.7 283.935,727.81 283.935,713.1C283.935,702.216 292.891,693.26 303.775,693.26C314.659,693.26 323.615,702.216 323.615,713.1C323.615,744.42 295.995,768.57 267.715,790.63L265.565,787.87C293.165,766.35 320.115,742.87 320.115,713.1C320.115,704.136 312.739,696.76 303.775,696.76C294.811,696.76 287.435,704.136 287.435,713.1C287.435,729.53 259.575,751.15 241.145,765.46C220.715,781.29 206.015,792.73 206.015,808.08C206.026,817.04 213.395,824.409 222.355,824.42L222.355,827.92Z" style="fill:rgb(255,76,171);fill-rule:nonzero;"/>
            </g>
            <g transform="matrix(1,0,0,1,702.878,-555.643)">
                <path d="M304.475,732.94C293.595,732.929 284.646,723.98 284.635,713.1C284.635,701.662 275.223,692.25 263.785,692.25C252.347,692.25 242.935,701.662 242.935,713.1C242.935,723.984 233.979,732.94 223.095,732.94C212.211,732.94 203.255,723.984 203.255,713.1C203.255,679.894 230.579,652.57 263.785,652.57C296.991,652.57 324.315,679.894 324.315,713.1C324.304,723.98 315.355,732.929 304.475,732.94ZM263.785,688.74C277.139,688.762 288.119,699.746 288.135,713.1C288.135,722.064 295.511,729.44 304.475,729.44C313.439,729.44 320.815,722.064 320.815,713.1C320.815,681.814 295.071,656.07 263.785,656.07C232.499,656.07 206.755,681.814 206.755,713.1C206.755,722.064 214.131,729.44 223.095,729.44C232.059,729.44 239.435,722.064 239.435,713.1C239.446,699.744 250.429,688.756 263.785,688.74Z" style="fill:rgb(255,154,27);fill-rule:nonzero;"/>
            </g>
            <g transform="matrix(1,0,0,1,702.878,-555.643)">
                <path d="M303.775,827.91L222.355,827.91C211.471,827.91 202.515,818.954 202.515,808.07C202.515,797.186 211.471,788.23 222.355,788.23L303.775,788.23C314.659,788.23 323.615,797.186 323.615,808.07C323.615,818.954 314.659,827.91 303.775,827.91ZM222.355,791.73C213.391,791.73 206.015,799.106 206.015,808.07C206.015,817.034 213.391,824.41 222.355,824.41L303.775,824.41C312.739,824.41 320.115,817.034 320.115,808.07C320.115,799.106 312.739,791.73 303.775,791.73L222.355,791.73Z" style="fill:rgb(186,156,219);fill-rule:nonzero;"/>
            </g>
            <g transform="matrix(1,0,0,1,702.878,-555.643)">
                <path d="M237.575,827.73L222.375,827.73C211.54,827.73 202.625,818.815 202.625,807.98C202.625,797.145 211.54,788.23 222.375,788.23L237.575,788.23C248.41,788.23 257.325,797.145 257.325,807.98C257.325,818.815 248.41,827.73 237.575,827.73ZM222.355,791.73C213.441,791.73 206.105,799.066 206.105,807.98C206.105,816.894 213.441,824.23 222.355,824.23L237.555,824.23C246.469,824.23 253.805,816.894 253.805,807.98C253.805,799.066 246.469,791.73 237.555,791.73L222.355,791.73Z" style="fill:rgb(94,194,238);fill-rule:nonzero;"/>
            </g>
        </g>
    </g>
</svg>
