<?xml version="1.0" encoding="UTF-8" standalone="no"?>
<!DOCTYPE svg PUBLIC "-//W3C//DTD SVG 1.1//EN" "http://www.w3.org/Graphics/SVG/1.1/DTD/svg11.dtd">
<svg width="100%" height="100%" viewBox="0 0 885 151" version="1.1" xmlns="http://www.w3.org/2000/svg" xmlns:xlink="http://www.w3.org/1999/xlink" xml:space="preserve" xmlns:serif="http://www.serif.com/" style="fill-rule:evenodd;clip-rule:evenodd;stroke-linecap:round;stroke-linejoin:round;stroke-miterlimit:1.5;">
    <g transform="matrix(1,0,0,1,-67.2144,-224.588)">
        <g transform="matrix(1,0,0,1,-3.74343,21.1316)">
            <g transform="matrix(0.842504,0,0,0.842504,-189.311,54.9843)">
                <g transform="matrix(1,0,0,1,385.484,-38.1686)">
                    <path d="M192.84,389.64C182.077,389.624 173.23,380.763 173.23,370L173.23,238.11L176.73,238.11L176.73,370C176.73,378.851 184.014,386.135 192.865,386.135C201.716,386.135 209,378.851 209,370L209,238.11L212.5,238.11L212.5,370C212.5,380.774 203.634,389.64 192.86,389.64L192.84,389.64Z" style="fill:rgb(94,194,238);fill-rule:nonzero;"/>
                </g>
                <g transform="matrix(1,0,0,1,385.484,-38.1686)">
                    <path d="M192.84,299.84C182.088,299.824 173.246,290.982 173.23,280.23L173.23,237.37C173.23,226.612 182.082,217.76 192.84,217.76C203.598,217.76 212.45,226.612 212.45,237.37L212.45,280.23C212.434,290.982 203.592,299.824 192.84,299.84ZM192.84,221.26C184.006,221.271 176.741,228.536 176.73,237.37L176.73,280.23C176.73,289.068 184.002,296.34 192.84,296.34C201.678,296.34 208.95,289.068 208.95,280.23L208.95,237.37C208.939,228.536 201.674,221.271 192.84,221.26Z" style="fill:rgb(255,76,171);fill-rule:nonzero;"/>
                </g>
                <g transform="matrix(1,0,0,1,431.295,30.5157)">
                    <path d="M238.48,255.7L147.2,255.7C136.442,255.7 127.59,246.848 127.59,236.09C127.59,225.332 136.442,216.48 147.2,216.48L238.48,216.48C249.238,216.48 258.09,225.332 258.09,236.09C258.09,246.848 249.238,255.7 238.48,255.7ZM147.2,220C138.362,220 131.09,227.272 131.09,236.11C131.09,244.948 138.362,252.22 147.2,252.22L238.48,252.22C247.318,252.22 254.59,244.948 254.59,236.11C254.59,227.272 247.318,220 238.48,220L147.2,220Z" style="fill:rgb(255,154,27);fill-rule:nonzero;"/>
                </g>
                <g transform="matrix(1,0,0,1,49.4512,-141.678)">
                    <path d="M529,493.56C518.12,493.555 509.166,484.61 509.15,473.73L509.15,451.83C509.15,440.946 518.106,431.99 528.99,431.99C539.874,431.99 548.83,440.946 548.83,451.83L548.83,473.73C548.819,484.604 539.874,493.549 529,493.56ZM529,435.5C520.04,435.505 512.666,442.87 512.65,451.83L512.65,473.73C512.65,482.694 520.026,490.07 528.99,490.07C537.954,490.07 545.33,482.694 545.33,473.73L545.33,451.83C545.319,442.876 537.954,435.511 529,435.5Z" style="fill:rgb(186,156,219);fill-rule:nonzero;"/>
                </g>
                <g transform="matrix(1,0,0,1,477.289,-38.1686)">
                    <path d="M192.84,389.64C182.077,389.624 173.23,380.763 173.23,370L173.23,238.11L176.73,238.11L176.73,370C176.73,378.851 184.014,386.135 192.865,386.135C201.716,386.135 209,378.851 209,370L209,238.11L212.5,238.11L212.5,370C212.5,380.774 203.634,389.64 192.86,389.64L192.84,389.64Z" style="fill:rgb(94,194,238);fill-rule:nonzero;"/>
                </g>
                <g transform="matrix(1,0,0,1,477.289,-38.1686)">
                    <path d="M192.84,299.84C182.088,299.824 173.246,290.982 173.23,280.23L173.23,237.37C173.23,226.612 182.082,217.76 192.84,217.76C203.598,217.76 212.45,226.612 212.45,237.37L212.45,280.23C212.434,290.982 203.592,299.824 192.84,299.84ZM192.84,221.26C184.006,221.271 176.741,228.536 176.73,237.37L176.73,280.23C176.73,289.068 184.002,296.34 192.84,296.34C201.678,296.34 208.95,289.068 208.95,280.23L208.95,237.37C208.939,228.536 201.674,221.271 192.84,221.26Z" style="fill:rgb(255,76,171);fill-rule:nonzero;"/>
                </g>
                <g transform="matrix(1,0,0,1,141.427,-141.877)">
                    <path d="M529,493.56C518.12,493.555 509.166,484.61 509.15,473.73L509.15,451.83C509.15,440.946 518.106,431.99 528.99,431.99C539.874,431.99 548.83,440.946 548.83,451.83L548.83,473.73C548.819,484.604 539.874,493.549 529,493.56ZM529,435.5C520.04,435.505 512.666,442.87 512.65,451.83L512.65,473.73C512.65,482.694 520.026,490.07 528.99,490.07C537.954,490.07 545.33,482.694 545.33,473.73L545.33,451.83C545.319,442.876 537.954,435.511 529,435.5Z" style="fill:rgb(186,156,219);fill-rule:nonzero;"/>
                </g>
            </g>
        </g>
        <g transform="matrix(1,0,0,1,-3.74343,21.1316)">
            <g transform="matrix(0.842504,0,0,0.842504,39.8558,35.9722)">
                <g transform="matrix(0.680835,0,0,0.940389,161.844,11.4819)">
                    <path d="M655.599,221.594C655.599,210.586 643.254,201.648 628.049,201.648C612.844,201.648 600.499,210.586 600.499,221.594L600.499,367.525C600.499,378.534 612.844,387.471 628.049,387.471C643.254,387.471 655.599,378.534 655.599,367.525L655.599,221.594Z" style="fill:none;stroke:rgb(94,194,238);stroke-width:4.34px;"/>
                </g>
                <g transform="matrix(-1.03395,0,0,1.03395,946.218,198.277)">
                    <path d="M308.5,173.64C275.715,173.602 248.748,146.635 248.71,113.85L248.71,60.29C248.748,27.505 275.715,0.538 308.5,0.5C319.258,0.5 328.11,9.352 328.11,20.11C328.11,30.868 319.258,39.72 308.5,39.72C297.224,39.736 287.951,49.014 287.94,60.29L287.94,113.85C287.951,125.126 297.224,134.404 308.5,134.42C319.258,134.42 328.11,143.272 328.11,154.03C328.11,164.788 319.258,173.64 308.5,173.64ZM308.5,4C277.635,4.038 252.248,29.425 252.21,60.29L252.21,113.85C252.248,144.715 277.635,170.102 308.5,170.14C317.338,170.14 324.61,162.868 324.61,154.03C324.61,145.192 317.338,137.92 308.5,137.92C295.304,137.904 284.451,127.046 284.44,113.85L284.44,60.29C284.451,47.094 295.304,36.236 308.5,36.22C317.338,36.22 324.61,28.948 324.61,20.11C324.61,11.272 317.338,4 308.5,4Z" style="fill:rgb(255,154,27);fill-rule:nonzero;"/>
                </g>
                <g transform="matrix(6.12323e-17,1,-1,6.12323e-17,869.079,26.316)">
                    <path d="M192.84,299.84C182.088,299.824 173.246,290.982 173.23,280.23L173.23,237.37C173.23,226.612 182.082,217.76 192.84,217.76C203.598,217.76 212.45,226.612 212.45,237.37L212.45,280.23C212.434,290.982 203.592,299.824 192.84,299.84ZM192.84,221.26C184.006,221.271 176.741,228.536 176.73,237.37L176.73,280.23C176.73,289.068 184.002,296.34 192.84,296.34C201.678,296.34 208.95,289.068 208.95,280.23L208.95,237.37C208.939,228.536 201.674,221.271 192.84,221.26Z" style="fill:rgb(255,76,171);fill-rule:nonzero;"/>
                </g>
                <g transform="matrix(6.12323e-17,1,-1,6.12323e-17,869.079,164.967)">
                    <path d="M192.84,299.84C182.088,299.824 173.246,290.982 173.23,280.23L173.23,237.37C173.23,226.612 182.082,217.76 192.84,217.76C203.598,217.76 212.45,226.612 212.45,237.37L212.45,280.23C212.434,290.982 203.592,299.824 192.84,299.84ZM192.84,221.26C184.006,221.271 176.741,228.536 176.73,237.37L176.73,280.23C176.73,289.068 184.002,296.34 192.84,296.34C201.678,296.34 208.95,289.068 208.95,280.23L208.95,237.37C208.939,228.536 201.674,221.271 192.84,221.26Z" style="fill:rgb(186,156,219);fill-rule:nonzero;"/>
                </g>
            </g>
        </g>
        <g transform="matrix(1,0,0,1,-3.74343,21.1316)">
            <g transform="matrix(0.842504,0,0,0.842504,-102.326,-118.488)">
                <g transform="matrix(1,0,0,1,-200.169,385.068)">
                    <path d="M545.76,78.8C535.236,78.789 526.498,70.318 526.16,59.8L526.16,59.24C526.519,26.686 553.354,0.08 585.91,0L586,0C599.645,0.019 612.88,4.711 623.49,13.29C628.019,17.015 630.65,22.579 630.653,28.443C630.653,39.201 621.801,48.053 611.043,48.053C606.599,48.053 602.284,46.543 598.81,43.77C595.155,40.828 590.602,39.223 585.91,39.222C574.634,39.222 565.352,48.494 565.34,59.77C565.018,70.292 556.287,78.778 545.76,78.8ZM529.65,59.41C529.71,68.206 536.964,75.41 545.76,75.41C554.598,75.41 561.87,68.138 561.87,59.3L561.87,59.19C562.199,46.225 572.953,35.74 585.922,35.74C591.405,35.74 596.727,37.614 601,41.05C603.778,43.116 607.15,44.232 610.612,44.232C619.45,44.232 626.722,36.959 626.722,28.122C626.722,23.506 624.738,19.106 621.28,16.05C611.3,7.963 598.845,3.532 586,3.5L585.88,3.5C555.184,3.581 529.906,28.715 529.65,59.41Z" style="fill:rgb(255,76,171);fill-rule:nonzero;"/>
                </g>
                <g transform="matrix(1,0,0,1,-200.169,385.068)">
                    <path d="M572.54,170.87C570.312,170.869 568.1,170.486 566,169.74C542.125,161.272 526.09,138.532 526.13,113.2L526.13,59.2C526.13,48.442 534.982,39.59 545.74,39.59C556.498,39.59 565.35,48.442 565.35,59.2L565.35,113.26C565.324,121.996 570.848,129.845 579.08,132.77C586.889,135.541 592.138,142.974 592.138,151.26C592.138,162.015 583.295,170.868 572.54,170.88L572.54,170.87ZM545.74,43.08C536.906,43.091 529.641,50.356 529.63,59.19L529.63,113.19C529.592,137.04 544.691,158.45 567.17,166.42C568.895,167.03 570.711,167.341 572.54,167.341C581.378,167.341 588.651,160.068 588.651,151.23C588.651,144.419 584.332,138.31 577.91,136.04C568.284,132.621 561.824,123.445 561.85,113.23L561.85,59.19C561.839,50.356 554.574,43.091 545.74,43.08Z" style="fill:rgb(94,194,238);fill-rule:nonzero;"/>
                </g>
                <g transform="matrix(1,0,0,1,-200.169,385.068)">
                    <path d="M586,173.14L585.78,173.14C579.045,173.141 572.358,171.991 566.01,169.74C558.186,166.978 552.921,159.538 552.921,151.24C552.921,140.478 561.778,131.621 572.54,131.621C574.764,131.621 576.973,132 579.07,132.74C587.186,135.583 596.266,133.066 601.76,126.45C605.485,121.916 611.052,119.283 616.92,119.279C627.678,119.279 636.531,128.132 636.531,138.89C636.531,143.426 634.957,147.824 632.08,151.33C620.78,165.14 603.844,173.156 586,173.14ZM572.53,135.14L572.518,135.14C563.68,135.14 556.408,142.412 556.408,151.25C556.427,158.067 560.754,164.173 567.18,166.45C573.153,168.565 579.443,169.647 585.78,169.65L586,169.65C602.792,169.671 618.732,162.133 629.37,149.14C631.849,146.227 633.211,142.525 633.211,138.7C633.211,129.862 625.938,122.59 617.101,122.59C612.182,122.593 607.525,124.845 604.47,128.7C599.919,134.239 593.109,137.447 585.94,137.43L585.78,137.43C583.095,137.425 580.431,136.965 577.9,136.07C576.176,135.454 574.36,135.136 572.53,135.13L572.53,135.14Z" style="fill:rgb(255,154,27);fill-rule:nonzero;"/>
                </g>
                <g transform="matrix(1.04909,0,0,1.04909,-231.322,383.5)">
                    <path d="M611.25,48.11C600.575,48.11 591.79,39.325 591.79,28.65C591.79,17.975 600.575,9.19 611.25,9.19C621.925,9.19 630.71,17.975 630.71,28.65C630.699,39.321 621.921,48.099 611.25,48.11ZM611.25,12.69C602.473,12.69 595.25,19.913 595.25,28.69C595.25,37.467 602.473,44.69 611.25,44.69C620.027,44.69 627.25,37.467 627.25,28.69C627.25,19.913 620.027,12.69 611.25,12.69Z" style="fill:rgb(186,156,219);fill-rule:nonzero;"/>
                </g>
            </g>
        </g>
        <g transform="matrix(1,0,0,1,-3.74343,21.1316)">
            <g transform="matrix(0.889425,0,0,0.839741,-207.698,49.1832)">
                <g transform="matrix(0.308084,-0.832724,-0.835291,-0.317663,916.975,625.069)">
                    <path d="M151.76,733.13C140.88,733.119 131.931,724.17 131.92,713.29C131.92,701.852 122.508,692.44 111.07,692.44C99.632,692.44 90.22,701.852 90.22,713.29C90.22,724.174 81.264,733.13 70.38,733.13C59.496,733.13 50.54,724.174 50.54,713.29C50.54,680.084 77.864,652.76 111.07,652.76C130.338,652.76 147.626,661.96 158.744,676.171C166.786,686.451 171.6,699.352 171.6,713.29C171.589,724.17 162.64,733.119 151.76,733.13ZM111.07,688.93C124.424,688.952 135.404,699.936 135.42,713.29C135.42,722.254 142.796,729.63 151.76,729.63C160.724,729.63 168.1,722.254 168.1,713.29C168.1,682.004 142.356,656.26 111.07,656.26C79.784,656.26 54.04,682.004 54.04,713.29C54.04,722.254 61.416,729.63 70.38,729.63C79.344,729.63 86.72,722.254 86.72,713.29C86.731,699.934 97.714,688.946 111.07,688.93Z" style="fill:rgb(255,76,171);fill-rule:nonzero;"/>
                </g>
                <g transform="matrix(-0.223465,0.833984,0.860398,0.230543,-173.74,-144.902)">
                    <path d="M304.475,732.94C293.595,732.929 284.646,723.98 284.635,713.1C284.635,701.662 275.223,692.25 263.785,692.25C252.347,692.25 242.935,701.662 242.935,713.1C242.935,723.984 233.979,732.94 223.095,732.94C212.211,732.94 203.255,723.984 203.255,713.1C203.255,679.894 230.579,652.57 263.785,652.57C296.991,652.57 324.315,679.894 324.315,713.1C324.304,723.98 315.355,732.929 304.475,732.94ZM263.785,688.74C277.139,688.762 288.119,699.746 288.135,713.1C288.135,722.064 295.511,729.44 304.475,729.44C313.439,729.44 320.815,722.064 320.815,713.1C320.815,681.814 295.071,656.07 263.785,656.07C232.499,656.07 206.755,681.814 206.755,713.1C206.755,722.064 214.131,729.44 223.095,729.44C232.059,729.44 239.435,722.064 239.435,713.1C239.446,699.744 250.429,688.756 263.785,688.74Z" style="fill:rgb(255,154,27);fill-rule:nonzero;"/>
                </g>
                <g transform="matrix(0.226195,-0.857926,0.741821,0.219411,-126.152,690.185)">
                    <path d="M529,493.56C518.12,493.555 509.166,484.61 509.15,473.73L509.15,451.83C509.15,440.946 518.106,431.99 528.99,431.99C539.874,431.99 548.83,440.946 548.83,451.83L548.83,473.73C548.819,484.604 539.874,493.549 529,493.56ZM529,435.5C520.04,435.505 512.666,442.87 512.65,451.83L512.65,473.73C512.65,482.694 520.026,490.07 528.99,490.07C537.954,490.07 545.33,482.694 545.33,473.73L545.33,451.83C545.319,442.876 537.954,435.511 529,435.5Z" style="fill:rgb(186,156,219);fill-rule:nonzero;"/>
                </g>
                <g transform="matrix(1.03917,0,0,1.10066,248.871,20.3546)">
                    <circle cx="137.048" cy="168.166" r="14.139" style="fill:none;stroke:rgb(94,194,238);stroke-width:3.25px;"/>
                </g>
            </g>
        </g>
        <g transform="matrix(1,0,0,1,-3.74343,21.1316)">
            <g transform="matrix(0.842504,0,0,0.842504,-4.81533,26.519)">
                <g transform="matrix(1,0,0,1,241.557,212.453)">
                    <path d="M342.1,39.72L309.1,39.72C298.342,39.72 289.49,30.868 289.49,20.11C289.49,9.352 298.342,0.5 309.1,0.5L342.1,0.5C352.858,0.5 361.71,9.352 361.71,20.11C361.71,30.868 352.858,39.72 342.1,39.72ZM309.1,4C300.262,4 292.99,11.272 292.99,20.11C292.99,28.948 300.262,36.22 309.1,36.22L342.1,36.22C350.938,36.22 358.21,28.948 358.21,20.11C358.21,11.272 350.938,4 342.1,4L309.1,4Z" style="fill:rgb(186,156,219);fill-rule:nonzero;"/>
                </g>
                <g transform="matrix(1,0,0,1,241.557,212.453)">
                    <path d="M342.1,173.64L309.1,173.64C298.342,173.64 289.49,164.788 289.49,154.03C289.49,143.272 298.342,134.42 309.1,134.42L342.1,134.42C352.858,134.42 361.71,143.272 361.71,154.03C361.71,164.788 352.858,173.64 342.1,173.64ZM309.1,137.92C300.262,137.92 292.99,145.192 292.99,154.03C292.99,162.868 300.262,170.14 309.1,170.14L342.1,170.14C350.938,170.14 358.21,162.868 358.21,154.03C358.21,145.192 350.938,137.92 342.1,137.92L309.1,137.92Z" style="fill:rgb(94,194,238);fill-rule:nonzero;"/>
                </g>
                <g transform="matrix(1,0,0,1,241.557,212.453)">
                    <path d="M308.5,173.64C275.715,173.602 248.748,146.635 248.71,113.85L248.71,60.29C248.748,27.505 275.715,0.538 308.5,0.5C319.258,0.5 328.11,9.352 328.11,20.11C328.11,30.868 319.258,39.72 308.5,39.72C297.224,39.736 287.951,49.014 287.94,60.29L287.94,113.85C287.951,125.126 297.224,134.404 308.5,134.42C319.258,134.42 328.11,143.272 328.11,154.03C328.11,164.788 319.258,173.64 308.5,173.64ZM308.5,4C277.635,4.038 252.248,29.425 252.21,60.29L252.21,113.85C252.248,144.715 277.635,170.102 308.5,170.14C317.338,170.14 324.61,162.868 324.61,154.03C324.61,145.192 317.338,137.92 308.5,137.92C295.304,137.904 284.451,127.046 284.44,113.85L284.44,60.29C284.451,47.094 295.304,36.236 308.5,36.22C317.338,36.22 324.61,28.948 324.61,20.11C324.61,11.272 317.338,4 308.5,4Z" style="fill:rgb(255,154,27);fill-rule:nonzero;"/>
                </g>
                <g transform="matrix(1,0,0,1,241.557,212.453)">
                    <path d="M325.12,102.2L287.43,102.2C279.124,102.2 272.29,95.366 272.29,87.06C272.29,78.754 279.124,71.92 287.43,71.92L325.12,71.92C333.426,71.92 340.26,78.754 340.26,87.06C340.26,95.366 333.426,102.2 325.12,102.2ZM287.43,75.42C281.044,75.42 275.79,80.674 275.79,87.06C275.79,93.446 281.044,98.7 287.43,98.7L325.12,98.7C331.506,98.7 336.76,93.446 336.76,87.06C336.76,80.674 331.506,75.42 325.12,75.42L287.43,75.42Z" style="fill:rgb(255,76,171);fill-rule:nonzero;"/>
                </g>
            </g>
        </g>
        <g transform="matrix(1,0,0,1,-3.74343,21.1316)">
            <g transform="matrix(0.842504,0,0,0.842504,446.755,26.519)">
                <g transform="matrix(1,0,0,1,241.557,212.453)">
                    <path d="M342.1,39.72L309.1,39.72C298.342,39.72 289.49,30.868 289.49,20.11C289.49,9.352 298.342,0.5 309.1,0.5L342.1,0.5C352.858,0.5 361.71,9.352 361.71,20.11C361.71,30.868 352.858,39.72 342.1,39.72ZM309.1,4C300.262,4 292.99,11.272 292.99,20.11C292.99,28.948 300.262,36.22 309.1,36.22L342.1,36.22C350.938,36.22 358.21,28.948 358.21,20.11C358.21,11.272 350.938,4 342.1,4L309.1,4Z" style="fill:rgb(186,156,219);fill-rule:nonzero;"/>
                </g>
                <g transform="matrix(1,0,0,1,241.557,212.453)">
                    <path d="M342.1,173.64L309.1,173.64C298.342,173.64 289.49,164.788 289.49,154.03C289.49,143.272 298.342,134.42 309.1,134.42L342.1,134.42C352.858,134.42 361.71,143.272 361.71,154.03C361.71,164.788 352.858,173.64 342.1,173.64ZM309.1,137.92C300.262,137.92 292.99,145.192 292.99,154.03C292.99,162.868 300.262,170.14 309.1,170.14L342.1,170.14C350.938,170.14 358.21,162.868 358.21,154.03C358.21,145.192 350.938,137.92 342.1,137.92L309.1,137.92Z" style="fill:rgb(94,194,238);fill-rule:nonzero;"/>
                </g>
                <g transform="matrix(1,0,0,1,241.557,212.453)">
                    <path d="M308.5,173.64C275.715,173.602 248.748,146.635 248.71,113.85L248.71,60.29C248.748,27.505 275.715,0.538 308.5,0.5C319.258,0.5 328.11,9.352 328.11,20.11C328.11,30.868 319.258,39.72 308.5,39.72C297.224,39.736 287.951,49.014 287.94,60.29L287.94,113.85C287.951,125.126 297.224,134.404 308.5,134.42C319.258,134.42 328.11,143.272 328.11,154.03C328.11,164.788 319.258,173.64 308.5,173.64ZM308.5,4C277.635,4.038 252.248,29.425 252.21,60.29L252.21,113.85C252.248,144.715 277.635,170.102 308.5,170.14C317.338,170.14 324.61,162.868 324.61,154.03C324.61,145.192 317.338,137.92 308.5,137.92C295.304,137.904 284.451,127.046 284.44,113.85L284.44,60.29C284.451,47.094 295.304,36.236 308.5,36.22C317.338,36.22 324.61,28.948 324.61,20.11C324.61,11.272 317.338,4 308.5,4Z" style="fill:rgb(255,154,27);fill-rule:nonzero;"/>
                </g>
                <g transform="matrix(1,0,0,1,241.557,212.453)">
                    <path d="M325.12,102.2L287.43,102.2C279.124,102.2 272.29,95.366 272.29,87.06C272.29,78.754 279.124,71.92 287.43,71.92L325.12,71.92C333.426,71.92 340.26,78.754 340.26,87.06C340.26,95.366 333.426,102.2 325.12,102.2ZM287.43,75.42C281.044,75.42 275.79,80.674 275.79,87.06C275.79,93.446 281.044,98.7 287.43,98.7L325.12,98.7C331.506,98.7 336.76,93.446 336.76,87.06C336.76,80.674 331.506,75.42 325.12,75.42L287.43,75.42Z" style="fill:rgb(255,76,171);fill-rule:nonzero;"/>
                </g>
            </g>
        </g>
        <g transform="matrix(1,0,0,1,-3.74343,21.1316)">
            <g transform="matrix(0.842504,0,0,0.842504,-3.72077,28.1967)">
                <g transform="matrix(1,0,0,1,8.34622,-222.213)">
                    <path d="M771.21,568.94L771.21,565.44L771.31,565.44C780.217,565.374 787.499,558.007 787.46,549.1L787.46,451.85C787.46,442.936 780.124,435.6 771.21,435.6C762.296,435.6 754.96,442.936 754.96,451.85L754.96,540.85L751.46,540.85L751.46,451.85C751.46,441.015 760.375,432.1 771.21,432.1C782.045,432.1 790.96,441.015 790.96,451.85L790.96,549.09C791.004,559.92 782.14,568.874 771.31,568.94L771.21,568.94Z" style="fill:rgb(255,154,27);fill-rule:nonzero;"/>
                </g>
                <g transform="matrix(1,0,0,1,8.34622,-222.213)">
                    <path d="M771.2,568.94C760.37,568.929 751.461,560.02 751.45,549.19L751.45,452L755,452L755,549.24C755.217,558.005 762.487,565.097 771.255,565.097C780.023,565.097 787.293,558.005 787.51,549.24L787.51,460.24L791,460.24L791,549.24C790.962,560.07 782.03,568.957 771.2,568.94Z" style="fill:rgb(255,154,27);fill-rule:nonzero;"/>
                </g>
                <g transform="matrix(1,0,0,1,8.34622,-222.213)">
                    <path d="M852.57,568.94C841.787,568.918 832.906,560.083 832.83,549.3L832.83,477.85L836.33,477.85L836.33,549.29C836.395,558.163 843.707,565.429 852.58,565.44L852.67,565.44C861.584,565.435 868.919,558.104 868.93,549.19L868.93,472L872.43,472L872.43,549.24C872.419,560.07 863.51,568.979 852.68,568.99L852.57,568.94Z" style="fill:rgb(94,194,238);fill-rule:nonzero;"/>
                </g>
                <g transform="matrix(1,0,0,1,8.34622,-222.213)">
                    <path d="M836.33,549.09L832.83,549.09L832.83,451.85C832.846,441.01 841.77,432.1 852.61,432.1L852.7,432.1C863.485,432.116 872.369,440.955 872.44,451.74L872.44,543.19L868.94,543.19L868.94,451.75C868.697,442.976 861.414,435.891 852.636,435.891C843.821,435.891 836.52,443.037 836.33,451.85L836.33,549.09Z" style="fill:rgb(94,194,238);fill-rule:nonzero;"/>
                </g>
                <g transform="matrix(1,0,0,1,8.34622,-222.213)">
                    <path d="M853,493.56C842.118,493.56 833.161,484.612 833.15,473.73L833.15,451.83C833.391,441.117 842.269,432.435 852.985,432.435C863.701,432.435 872.579,441.117 872.82,451.83L872.82,473.73C872.815,484.603 863.873,493.549 853,493.56ZM853,435.5C844.038,435.5 836.661,442.868 836.65,451.83L836.65,473.73C836.868,482.539 844.174,489.666 852.985,489.666C861.796,489.666 869.102,482.539 869.32,473.73L869.32,451.83C869.309,442.88 861.95,435.516 853,435.5Z" style="fill:rgb(186,156,219);fill-rule:nonzero;"/>
                </g>
                <g transform="matrix(1,0,0,1,8.34622,-222.213)">
                    <path d="M812,607.39C778.798,607.357 751.484,580.052 751.44,546.85C751.437,546.702 751.435,546.553 751.435,546.405C751.435,535.521 760.391,526.565 771.275,526.565C782.159,526.565 791.115,535.521 791.115,546.405C791.115,546.553 791.113,546.702 791.11,546.85C791.126,558.299 800.551,567.71 812,567.71C823.44,567.705 832.85,558.29 832.85,546.85L832.85,546.84C832.85,535.956 841.806,527 852.69,527C863.574,527 872.53,535.956 872.53,546.84L872.53,546.86C872.53,580.066 845.206,607.39 812,607.39ZM771.27,530.51C762.337,530.559 755.011,537.917 755,546.85C755,578.138 780.747,603.885 812.035,603.885C843.323,603.885 869.07,578.138 869.07,546.85C869.07,537.886 861.694,530.51 852.73,530.51C843.766,530.51 836.39,537.886 836.39,546.85C836.39,560.214 825.394,571.21 812.03,571.21C798.666,571.21 787.67,560.214 787.67,546.85C787.659,537.883 780.277,530.51 771.31,530.51L771.27,530.51Z" style="fill:rgb(255,76,171);fill-rule:nonzero;"/>
                </g>
            </g>
        </g>
        <g transform="matrix(1,0,0,1,-3.74343,21.1316)">
            <g transform="matrix(0.842504,0,0,0.842504,30.9707,37.6565)">
                <g transform="matrix(1,0,0,1,457.454,199.234)">
                    <path d="M421.14,173.64C410.377,173.624 401.53,164.763 401.53,154L401.53,20.11C401.53,9.352 410.382,0.5 421.14,0.5C431.898,0.5 440.75,9.352 440.75,20.11L440.75,154C440.75,164.763 431.903,173.624 421.14,173.64ZM421.14,4C412.295,3.995 405.011,11.265 405,20.11L405,154C405,162.838 412.272,170.11 421.11,170.11C429.948,170.11 437.22,162.838 437.22,154L437.22,20.11C437.209,11.288 429.962,4.027 421.14,4Z" style="fill:rgb(186,156,219);fill-rule:nonzero;"/>
                </g>
                <g transform="matrix(1,0,0,1,457.454,199.234)">
                    <path d="M487.72,173.64L421.14,173.64C410.382,173.64 401.53,164.788 401.53,154.03C401.53,143.272 410.382,134.42 421.14,134.42L487.72,134.42C498.478,134.42 507.33,143.272 507.33,154.03C507.33,164.788 498.478,173.64 487.72,173.64ZM421.14,137.92C412.302,137.92 405.03,145.192 405.03,154.03C405.03,162.868 412.302,170.14 421.14,170.14L487.72,170.14C496.558,170.14 503.83,162.868 503.83,154.03C503.83,145.192 496.558,137.92 487.72,137.92L421.14,137.92Z" style="fill:rgb(255,76,171);fill-rule:nonzero;"/>
                </g>
                <g transform="matrix(1,0,0,1,457.454,199.234)">
                    <path d="M421.14,56.8C410.388,56.784 401.546,47.942 401.53,37.19L401.53,20.11C401.53,9.352 410.382,0.5 421.14,0.5C431.898,0.5 440.75,9.352 440.75,20.11L440.75,37.19C440.734,47.942 431.892,56.784 421.14,56.8ZM421.14,4C412.295,3.995 405.011,11.265 405,20.11L405,37.19C405,46.028 412.272,53.3 421.11,53.3C429.948,53.3 437.22,46.028 437.22,37.19L437.22,20.11C437.209,11.288 429.962,4.027 421.14,4Z" style="fill:rgb(255,154,27);fill-rule:nonzero;"/>
                </g>
                <g transform="matrix(1,0,0,1,457.454,199.234)">
                    <path d="M421.14,173.38C410.388,173.364 401.546,164.522 401.53,153.77L401.53,128.77C401.53,118.012 410.382,109.16 421.14,109.16C431.898,109.16 440.75,118.012 440.75,128.77L440.75,153.77C440.734,164.522 431.892,173.364 421.14,173.38ZM421.14,112.66C412.295,112.655 405.011,119.925 405,128.77L405,153.77C405,162.608 412.272,169.88 421.11,169.88C429.948,169.88 437.22,162.608 437.22,153.77L437.22,128.77C437.209,119.948 429.962,112.687 421.14,112.66Z" style="fill:rgb(94,194,238);fill-rule:nonzero;"/>
                </g>
            </g>
        </g>
    </g>
</svg>
