<?xml version="1.0" encoding="UTF-8" standalone="no"?><!DOCTYPE svg PUBLIC "-//W3C//DTD SVG 1.1//EN" "http://www.w3.org/Graphics/SVG/1.1/DTD/svg11.dtd"><svg width="100%" height="100%" viewBox="0 0 1175 829" version="1.1" xmlns="http://www.w3.org/2000/svg" xmlns:xlink="http://www.w3.org/1999/xlink" xml:space="preserve" xmlns:serif="http://www.serif.com/" style="fill-rule:evenodd;clip-rule:evenodd;stroke-linejoin:round;stroke-miterlimit:2;"><path d="M421.14,173.64c-10.763,-0.016 -19.61,-8.877 -19.61,-19.64l0,-133.89c0,-10.758 8.852,-19.61 19.61,-19.61c10.758,0 19.61,8.852 19.61,19.61l0,133.89c0,10.763 -8.847,19.624 -19.61,19.64Zm0,-169.64c-8.845,-0.005 -16.129,7.265 -16.14,16.11l0,133.89c0,8.838 7.272,16.11 16.11,16.11c8.838,0 16.11,-7.272 16.11,-16.11l0,-133.89c-0.011,-8.822 -7.258,-16.083 -16.08,-16.11Zm-409.34,698.47c-6.471,-0.005 -11.795,-5.329 -11.8,-11.8l-0,-27.12c-0,-6.473 5.327,-11.8 11.8,-11.8c6.473,0 11.8,5.327 11.8,11.8l-0,27.12c-0.005,6.471 -5.329,11.795 -11.8,11.8Zm-0,-47.22c-4.551,0.005 -8.295,3.749 -8.3,8.3l-0,27.12c-0,4.553 3.747,8.3 8.3,8.3c4.553,0 8.3,-3.747 8.3,-8.3l-0,-27.12c-0.005,-4.551 -3.749,-8.295 -8.3,-8.3Z" style="fill:#ba9cdb;fill-rule:nonzero;"/><g><path d="M69.64,828.11c-10.88,-0.011 -19.829,-8.96 -19.84,-19.84c0,-17.07 15.3,-28.94 36.48,-45.38c16.81,-13 44.94,-34.89 44.94,-49.6c0,-10.884 8.956,-19.84 19.84,-19.84c10.884,0 19.84,8.956 19.84,19.84c0,31.32 -27.62,55.47 -55.9,77.53l-2.15,-2.76c27.6,-21.52 54.55,-45 54.55,-74.77c-0,-8.964 -7.376,-16.34 -16.34,-16.34c-8.964,0 -16.34,7.376 -16.34,16.34c-0,16.43 -27.86,38.05 -46.29,52.36c-20.43,15.83 -35.13,27.27 -35.13,42.62c0.011,8.96 7.38,16.329 16.34,16.34l0,3.5Z" style="fill:#ff9a1b;fill-rule:nonzero;"/><path d="M151.76,733.13c-10.88,-0.011 -19.829,-8.96 -19.84,-19.84c0,-11.438 -9.412,-20.85 -20.85,-20.85c-11.438,0 -20.85,9.412 -20.85,20.85c0,10.884 -8.956,19.84 -19.84,19.84c-10.884,0 -19.84,-8.956 -19.84,-19.84c0,-33.206 27.324,-60.53 60.53,-60.53c33.206,0 60.53,27.324 60.53,60.53c-0.011,10.88 -8.96,19.829 -19.84,19.84Zm-40.69,-44.2c13.354,0.022 24.334,11.006 24.35,24.36c0,8.964 7.376,16.34 16.34,16.34c8.964,0 16.34,-7.376 16.34,-16.34c0,-31.286 -25.744,-57.03 -57.03,-57.03c-31.286,0 -57.03,25.744 -57.03,57.03c0,8.964 7.376,16.34 16.34,16.34c8.964,0 16.34,-7.376 16.34,-16.34c0.011,-13.356 10.994,-24.344 24.35,-24.36Z" style="fill:#ff4cab;fill-rule:nonzero;"/><path d="M151.06,828.1l-81.42,0c-10.884,0 -19.84,-8.956 -19.84,-19.84c0,-10.884 8.956,-19.84 19.84,-19.84l81.42,0c10.884,0 19.84,8.956 19.84,19.84c0,10.884 -8.956,19.84 -19.84,19.84Zm-81.42,-36.18c-8.964,0 -16.34,7.376 -16.34,16.34c0,8.964 7.376,16.34 16.34,16.34l81.42,0c8.964,0 16.34,-7.376 16.34,-16.34c0,-8.964 -7.376,-16.34 -16.34,-16.34l-81.42,0Z" style="fill:#5ec2ee;fill-rule:nonzero;"/><path d="M84.86,827.92l-15.2,-0c-10.835,-0 -19.75,-8.915 -19.75,-19.75c0,-10.835 8.915,-19.75 19.75,-19.75l15.2,-0c10.835,-0 19.75,8.915 19.75,19.75c0,10.835 -8.915,19.75 -19.75,19.75Zm-15.22,-36c-8.914,-0 -16.25,7.336 -16.25,16.25c0,8.914 7.336,16.25 16.25,16.25l15.2,-0c8.914,-0 16.25,-7.336 16.25,-16.25c0,-8.914 -7.336,-16.25 -16.25,-16.25l-15.2,-0Z" style="fill:#ba9cdb;fill-rule:nonzero;"/></g><g><path d="M222.355,827.92c-10.88,-0.011 -19.829,-8.96 -19.84,-19.84c0,-17.07 15.3,-28.94 36.48,-45.38c16.81,-13 44.94,-34.89 44.94,-49.6c0,-10.884 8.956,-19.84 19.84,-19.84c10.884,-0 19.84,8.956 19.84,19.84c0,31.32 -27.62,55.47 -55.9,77.53l-2.15,-2.76c27.6,-21.52 54.55,-45 54.55,-74.77c0,-8.964 -7.376,-16.34 -16.34,-16.34c-8.964,-0 -16.34,7.376 -16.34,16.34c0,16.43 -27.86,38.05 -46.29,52.36c-20.43,15.83 -35.13,27.27 -35.13,42.62c0.011,8.96 7.38,16.329 16.34,16.34l0,3.5Z" style="fill:#ff4cab;fill-rule:nonzero;"/><path d="M304.475,732.94c-10.88,-0.011 -19.829,-8.96 -19.84,-19.84c0,-11.438 -9.412,-20.85 -20.85,-20.85c-11.438,-0 -20.85,9.412 -20.85,20.85c0,10.884 -8.956,19.84 -19.84,19.84c-10.884,-0 -19.84,-8.956 -19.84,-19.84c0,-33.206 27.324,-60.53 60.53,-60.53c33.206,-0 60.53,27.324 60.53,60.53c-0.011,10.88 -8.96,19.829 -19.84,19.84Zm-40.69,-44.2c13.354,0.022 24.334,11.006 24.35,24.36c-0,8.964 7.376,16.34 16.34,16.34c8.964,-0 16.34,-7.376 16.34,-16.34c0,-31.286 -25.744,-57.03 -57.03,-57.03c-31.286,-0 -57.03,25.744 -57.03,57.03c-0,8.964 7.376,16.34 16.34,16.34c8.964,-0 16.34,-7.376 16.34,-16.34c0.011,-13.356 10.994,-24.344 24.35,-24.36Z" style="fill:#ff9a1b;fill-rule:nonzero;"/><path d="M303.775,827.91l-81.42,0c-10.884,0 -19.84,-8.956 -19.84,-19.84c0,-10.884 8.956,-19.84 19.84,-19.84l81.42,0c10.884,0 19.84,8.956 19.84,19.84c0,10.884 -8.956,19.84 -19.84,19.84Zm-81.42,-36.18c-8.964,0 -16.34,7.376 -16.34,16.34c0,8.964 7.376,16.34 16.34,16.34l81.42,0c8.964,0 16.34,-7.376 16.34,-16.34c0,-8.964 -7.376,-16.34 -16.34,-16.34l-81.42,0Z" style="fill:#ba9cdb;fill-rule:nonzero;"/><path d="M237.575,827.73l-15.2,-0c-10.835,-0 -19.75,-8.915 -19.75,-19.75c0,-10.835 8.915,-19.75 19.75,-19.75l15.2,-0c10.835,-0 19.75,8.915 19.75,19.75c0,10.835 -8.915,19.75 -19.75,19.75Zm-15.22,-36c-8.914,-0 -16.25,7.336 -16.25,16.25c0,8.914 7.336,16.25 16.25,16.25l15.2,-0c8.914,-0 16.25,-7.336 16.25,-16.25c0,-8.914 -7.336,-16.25 -16.25,-16.25l-15.2,-0Z" style="fill:#5ec2ee;fill-rule:nonzero;"/></g><path d="M545.76,78.8c-10.524,-0.011 -19.262,-8.482 -19.6,-19l0,-0.56c0.359,-32.554 27.194,-59.16 59.75,-59.24l0.09,0c13.645,0.018 26.88,4.71 37.49,13.29c4.531,3.724 7.161,9.289 7.163,15.153c0,10.758 -8.852,19.61 -19.61,19.61c-4.444,0 -8.759,-1.51 -12.233,-4.283c-3.655,-2.942 -8.208,-4.547 -12.9,-4.548c-11.276,0 -20.558,9.272 -20.57,20.548c-0.322,10.522 -9.053,19.008 -19.58,19.03Zm-16.11,-19.39c0.06,8.796 7.314,16 16.11,16c8.838,0 16.11,-7.272 16.11,-16.11l0,-0.11c0.329,-12.965 11.083,-23.45 24.052,-23.45c5.483,0 10.805,1.874 15.078,5.31c2.778,2.066 6.15,3.182 9.612,3.182c8.838,0 16.11,-7.273 16.11,-16.11c0,-4.616 -1.984,-9.016 -5.442,-12.072c-9.979,-8.088 -22.435,-12.519 -35.28,-12.55l-0.12,0c-30.696,0.081 -55.974,25.215 -56.23,55.91Z" style="fill:#ff4cab;fill-rule:nonzero;"/><path d="M572.54,170.87c-2.228,-0.001 -4.44,-0.384 -6.54,-1.13c-23.875,-8.468 -39.91,-31.208 -39.87,-56.54l0,-54c0,-10.758 8.852,-19.61 19.61,-19.61c10.758,0 19.61,8.852 19.61,19.61l0,54.06c-0.026,8.736 5.498,16.585 13.73,19.51c7.809,2.771 13.058,10.204 13.058,18.49c0,10.755 -8.843,19.608 -19.598,19.62l0,-0.01Zm-26.8,-127.79c-8.834,0.011 -16.099,7.276 -16.11,16.11l-0,54c-0.038,23.85 15.061,45.26 37.54,53.23c1.725,0.61 3.541,0.921 5.37,0.921c8.838,-0 16.111,-7.273 16.111,-16.111c-0,-6.811 -4.319,-12.92 -10.741,-15.19c-9.626,-3.419 -16.086,-12.595 -16.06,-22.81l-0,-54.04c-0.011,-8.834 -7.276,-16.099 -16.11,-16.11Z" style="fill:#5ec2ee;fill-rule:nonzero;"/><path d="M70.78,174.64c-32.77,-0.066 -59.714,-27.01 -59.78,-59.78l0,-22.33l3.5,-0l0,22.33c0,30.88 25.41,56.29 56.29,56.29c30.88,0 56.29,-25.41 56.29,-56.29l0,-94.33c0,-8.838 -7.272,-16.11 -16.11,-16.11c-8.838,-0 -16.11,7.272 -16.11,16.11l0,94.32c0,13.204 -10.866,24.07 -24.07,24.07c-13.204,-0 -24.07,-10.866 -24.07,-24.07l0,-22.32l3.5,-0l0,22.32c0,11.284 9.286,20.57 20.57,20.57c11.284,-0 20.57,-9.286 20.57,-20.57l0,-94.32c0,-10.758 8.852,-19.61 19.61,-19.61c10.758,-0 19.61,8.852 19.61,19.61l0,94.32c-0.038,32.789 -27.011,59.757 -59.8,59.79Z" style="fill:#ff9a1b;fill-rule:nonzero;"/><path d="M191.32,130c-10.752,-0.016 -19.594,-8.858 -19.61,-19.61l0,-89.3c0,-10.758 8.852,-19.61 19.61,-19.61c10.758,0 19.61,8.852 19.61,19.61l0,89.28c-0.005,10.759 -8.851,19.614 -19.61,19.63Zm0,-125c-8.834,0.011 -16.099,7.276 -16.11,16.11l0,89.28c0,8.838 7.272,16.11 16.11,16.11c8.838,0 16.11,-7.272 16.11,-16.11l0,-89.3c-0.022,-8.826 -7.284,-16.079 -16.11,-16.09Z" style="fill:#ba9cdb;fill-rule:nonzero;"/><path d="M70.78,174.64c-32.77,-0.066 -59.714,-27.01 -59.78,-59.78l0,-67c0,-10.758 8.852,-19.61 19.61,-19.61c10.758,-0 19.61,8.852 19.61,19.61l0,67c0.027,11.278 9.302,20.548 20.58,20.57l0,3.5c-13.198,-0.022 -24.053,-10.872 -24.08,-24.07l0,-67c0,-8.838 -7.272,-16.11 -16.11,-16.11c-8.838,-0 -16.11,7.272 -16.11,16.11l0,67c0.055,30.854 25.426,56.225 56.28,56.28l0,3.5Z" style="fill:#ff9a1b;fill-rule:nonzero;"/><path d="M30.6,67.58c-10.736,-0.022 -19.567,-8.844 -19.6,-19.58l0,-26.91c0,-10.758 8.852,-19.61 19.61,-19.61c10.758,0 19.61,8.852 19.61,19.61l0,26.91c-0.033,10.744 -8.876,19.569 -19.62,19.58Zm0,-62.58c-8.826,0.011 -16.088,7.264 -16.11,16.09l0,26.91c0,8.838 7.272,16.11 16.11,16.11c8.838,0 16.11,-7.272 16.11,-16.11l0,-26.91c-0.022,-8.826 -7.284,-16.079 -16.11,-16.09Z" style="fill:#ff4cab;fill-rule:nonzero;"/><path d="M151.19,174.64c-32.79,-0.038 -59.769,-26.99 -59.84,-59.78l0,-47c0,-10.758 8.852,-19.61 19.61,-19.61c10.758,-0 19.61,8.852 19.61,19.61l0,47c0.034,11.288 9.332,20.557 20.62,20.557c2.319,-0 4.621,-0.391 6.81,-1.157c8.1,-2.88 13.72,-14.67 13.7,-23.46c-0.017,-10.754 8.806,-19.622 19.56,-19.66c10.733,0.016 19.566,8.827 19.61,19.56c0.07,26.42 -17,52.42 -39.79,60.52l-0.16,0.05l-0.57,0.18l-0.37,0.11l-0.22,0.06l-0.31,0.1c-5.898,1.917 -12.059,2.902 -18.26,2.92Zm-40.17,-122.86l-0.04,-0c-8.841,-0 -16.119,7.269 -16.13,16.11l-0,47.06c-0,30.842 25.379,56.22 56.22,56.22c5.909,-0 11.781,-0.931 17.4,-2.76l0.1,-0l0.18,-0.06l0.25,-0.07l0.45,-0.14l0.39,-0.12l0.13,-0c21.43,-7.62 37.53,-32.2 37.46,-57.21c-0.038,-8.816 -7.294,-16.054 -16.11,-16.07c-8.832,0.033 -16.076,7.318 -16.06,16.15c0,10.17 -6.41,23.35 -16,26.77c-2.567,0.901 -5.269,1.362 -7.99,1.362c-13.214,-0 -24.094,-10.858 -24.12,-24.072l0,-47.04c0,-8.849 -7.281,-16.13 -16.13,-16.13Z" style="fill:#5ec2ee;fill-rule:nonzero;"/><path d="M372.24,472.34l-33,-0c-10.758,-0 -19.61,-8.852 -19.61,-19.61c0,-10.758 8.852,-19.61 19.61,-19.61l33,-0c10.758,-0 19.61,8.852 19.61,19.61c0,10.758 -8.852,19.61 -19.61,19.61Zm-33,-35.72c-8.838,0 -16.11,7.272 -16.11,16.11c0,8.838 7.272,16.11 16.11,16.11l33,0c8.838,0 16.11,-7.272 16.11,-16.11c0,-8.838 -7.272,-16.11 -16.11,-16.11l-33,0Z" style="fill:#ba9cdb;fill-rule:nonzero;"/><path d="M372.24,606.26l-33,0c-10.758,0 -19.61,-8.852 -19.61,-19.61c0,-10.758 8.852,-19.61 19.61,-19.61l33,0c10.758,0 19.61,8.852 19.61,19.61c0,10.758 -8.852,19.61 -19.61,19.61Zm-33,-35.72c-8.838,0 -16.11,7.272 -16.11,16.11c0,8.838 7.272,16.11 16.11,16.11l33,0c8.838,0 16.11,-7.272 16.11,-16.11c0,-8.838 -7.272,-16.11 -16.11,-16.11l-33,0Z" style="fill:#5ec2ee;fill-rule:nonzero;"/><path d="M338.64,606.26c-32.785,-0.038 -59.752,-27.005 -59.79,-59.79l0,-53.56c0.038,-32.785 27.005,-59.752 59.79,-59.79c10.758,0 19.61,8.852 19.61,19.61c0,10.758 -8.852,19.61 -19.61,19.61c-11.278,0.016 -20.554,9.292 -20.57,20.57l0,53.56c0.038,11.263 9.307,20.514 20.57,20.53c10.758,0 19.61,8.852 19.61,19.61c0,10.758 -8.852,19.61 -19.61,19.61l0,0.04Zm0,-169.64c-30.867,0.033 -56.257,25.423 -56.29,56.29l0,53.56c0.033,30.867 25.423,56.257 56.29,56.29c8.838,0 16.11,-7.272 16.11,-16.11c0,-8.838 -7.272,-16.11 -16.11,-16.11c-13.198,-0.016 -24.054,-10.872 -24.07,-24.07l0,-53.56c0.016,-13.198 10.872,-24.054 24.07,-24.07c8.838,0 16.11,-7.272 16.11,-16.11c0,-8.838 -7.272,-16.11 -16.11,-16.11Z" style="fill:#ff9a1b;fill-rule:nonzero;"/><path d="M355.26,534.82l-37.7,0c-8.306,0 -15.14,-6.834 -15.14,-15.14c0,-8.306 6.834,-15.14 15.14,-15.14l37.7,0c8.306,0 15.14,6.834 15.14,15.14c0,8.306 -6.834,15.14 -15.14,15.14Zm-37.7,-26.82c-6.386,-0 -11.64,5.254 -11.64,11.64c0,6.386 5.254,11.64 11.64,11.64l37.7,-0c6.386,-0 11.64,-5.254 11.64,-11.64c0,-6.386 -5.254,-11.64 -11.64,-11.64l-37.7,-0Zm170.16,-334.36l-66.58,-0c-10.758,-0 -19.61,-8.852 -19.61,-19.61c0,-10.758 8.852,-19.61 19.61,-19.61l66.58,-0c10.758,-0 19.61,8.852 19.61,19.61c0,10.758 -8.852,19.61 -19.61,19.61Zm-66.58,-35.72c-8.838,-0 -16.11,7.272 -16.11,16.11c0,8.838 7.272,16.11 16.11,16.11l66.58,-0c8.838,-0 16.11,-7.272 16.11,-16.11c0,-8.838 -7.272,-16.11 -16.11,-16.11l-66.58,-0Z" style="fill:#ff4cab;fill-rule:nonzero;"/><path d="M421.14,56.8c-10.752,-0.016 -19.594,-8.858 -19.61,-19.61l0,-17.08c0,-10.758 8.852,-19.61 19.61,-19.61c10.758,-0 19.61,8.852 19.61,19.61l0,17.08c-0.016,10.752 -8.858,19.594 -19.61,19.61Zm0,-52.8c-8.845,-0.005 -16.129,7.265 -16.14,16.11l0,17.08c0,8.838 7.272,16.11 16.11,16.11c8.838,0 16.11,-7.272 16.11,-16.11l0,-17.08c-0.011,-8.822 -7.258,-16.083 -16.08,-16.11Z" style="fill:#ff9a1b;fill-rule:nonzero;"/><path d="M421.14,173.38c-10.752,-0.016 -19.594,-8.858 -19.61,-19.61l0,-25c0,-10.758 8.852,-19.61 19.61,-19.61c10.758,0 19.61,8.852 19.61,19.61l0,25c-0.016,10.752 -8.858,19.594 -19.61,19.61Zm0,-60.72c-8.845,-0.005 -16.129,7.265 -16.14,16.11l0,25c0,8.838 7.272,16.11 16.11,16.11c8.838,0 16.11,-7.272 16.11,-16.11l0,-25c-0.011,-8.822 -7.258,-16.083 -16.08,-16.11Zm293.38,58.21c-2.236,-0.004 -4.454,-0.389 -6.56,-1.14c-23.796,-8.475 -39.79,-31.13 -39.81,-56.39l0,-50.47c0,-10.758 8.852,-19.61 19.61,-19.61c10.758,0 19.61,8.852 19.61,19.61l0,50.48c0.012,8.698 5.518,16.497 13.71,19.42c7.794,2.78 13.03,10.205 13.03,18.48c0,10.752 -8.838,19.603 -19.59,19.62Zm-26.76,-124.11c-8.834,0.011 -16.099,7.276 -16.11,16.11l-0,50.47c0.021,23.781 15.078,45.11 37.48,53.09c1.67,0.567 3.421,0.857 5.184,0.857c8.838,0 16.11,-7.272 16.11,-16.11c-0.009,-6.721 -4.215,-12.764 -10.514,-15.107c-9.57,-3.431 -15.994,-12.554 -16,-22.72l-0,-50.48c-0.011,-8.841 -7.289,-16.11 -16.13,-16.11l-0.02,0Z" style="fill:#5ec2ee;fill-rule:nonzero;"/><path d="M727.92,173.14l-0.07,-0c-6.761,0.003 -13.473,-1.143 -19.85,-3.39c-7.724,-2.815 -12.895,-10.203 -12.895,-18.424c0,-10.758 8.853,-19.61 19.61,-19.61c2.138,0 4.261,0.349 6.285,1.034c2.221,0.761 4.552,1.156 6.9,1.17c11.274,-0.022 20.544,-9.296 20.56,-20.57l0,-18.35c0,-10.758 8.852,-19.61 19.61,-19.61c10.758,0 19.61,8.852 19.61,19.61l0,18.34c-0.033,32.778 -26.982,59.745 -59.76,59.8Zm-13.41,-38c-8.833,0.015 -16.092,7.287 -16.092,16.12c0,6.817 4.324,12.93 10.752,15.2c6.001,2.114 12.318,3.192 18.68,3.19l0.07,-0c30.867,-0.033 56.257,-25.423 56.29,-56.29l0,-18.36c0.003,-0.134 0.005,-0.268 0.005,-0.401c0,-8.838 -7.272,-16.11 -16.11,-16.11c-8.838,-0 -16.11,7.272 -16.11,16.11c0,0.133 0.002,0.267 0.005,0.401l0,18.34c-0.022,13.204 -10.886,24.059 -24.09,24.07c-2.723,-0.025 -5.424,-0.487 -8,-1.37c-1.736,-0.606 -3.562,-0.914 -5.4,-0.91l0,0.01Zm-128.51,38l-0.22,-0c-6.735,0.001 -13.422,-1.149 -19.77,-3.4c-7.824,-2.762 -13.089,-10.202 -13.089,-18.5c0,-10.762 8.857,-19.619 19.619,-19.619c2.224,-0 4.433,0.379 6.53,1.119c8.116,2.843 17.196,0.326 22.69,-6.29c3.724,-4.535 9.292,-7.169 15.16,-7.171c10.758,-0 19.611,8.853 19.611,19.611c0,4.536 -1.574,8.934 -4.451,12.44c-11.297,13.814 -28.235,21.831 -46.08,21.81Zm-13.47,-38l-0.012,0c-8.838,0 -16.11,7.272 -16.11,16.11c0.01,6.82 4.34,12.931 10.772,15.2c5.973,2.115 12.263,3.197 18.6,3.2l0.22,0c16.793,0.026 32.735,-7.514 43.37,-20.51c2.479,-2.913 3.841,-6.615 3.841,-10.44c0,-8.838 -7.273,-16.11 -16.11,-16.11c-4.919,0.001 -9.576,2.254 -12.631,6.11c-4.55,5.541 -11.361,8.749 -18.53,8.73l-0.16,0c-2.685,-0.005 -5.349,-0.465 -7.88,-1.36c-1.724,-0.616 -3.54,-0.934 -5.37,-0.94l0,0.01Z" style="fill:#ff9a1b;fill-rule:nonzero;"/><path d="M612.22,607.38c-10.88,-0.005 -19.834,-8.95 -19.85,-19.83l0,-135.7c0.005,-10.88 8.95,-19.834 19.83,-19.85c10.872,0.016 19.814,8.958 19.83,19.83l0,135.7c0,10.874 -8.936,19.828 -19.81,19.85Zm-0,-171.86c-8.954,0.011 -16.319,7.376 -16.33,16.33l-0,135.7c-0,8.964 7.376,16.34 16.34,16.34c8.964,0 16.34,-7.376 16.34,-16.34l-0,-135.7c-0.011,-8.954 -7.376,-16.319 -16.33,-16.33l-0.02,0Zm334.01,134.48l-3.5,0l-0,-120.15c-0,-6.76 -7,-14.33 -16.33,-14.33c-9.33,0 -16.35,7.57 -16.35,14.33l-0,119.41l-3.5,0l-0,-119.41c-0,-9.33 9.45,-17.83 19.83,-17.83c10.38,0 19.85,8.5 19.85,17.83l-0,120.15Z" style="fill:#5ec2ee;fill-rule:nonzero;"/><path d="M926.4,497.5c-10.88,-0.005 -19.834,-8.95 -19.85,-19.83l0,-25.82c0.005,-10.88 8.95,-19.834 19.83,-19.85c10.872,0.016 19.814,8.958 19.83,19.83l0,25.82c0,10.874 -8.936,19.828 -19.81,19.85Zm-0,-62c-8.954,0.011 -16.319,7.376 -16.33,16.33l-0,25.82c-0,8.964 7.376,16.34 16.34,16.34c8.964,0 16.34,-7.376 16.34,-16.34l-0,-25.8c-0.011,-8.954 -7.376,-16.319 -16.33,-16.33l-0.02,-0.02Z" style="fill:#ff4cab;fill-rule:nonzero;"/><path d="M1007.4,607.39c-5.278,0.015 -10.346,-2.09 -14.06,-5.84l-31.64,-31.76c-25.316,-25.393 -25.316,-67.097 0,-92.49l38,-38.1c3.744,-3.94 8.948,-6.174 14.383,-6.175c10.884,0 19.84,8.957 19.84,19.84c-0,5.411 -2.214,10.593 -6.123,14.335l-38,38.12c-9.986,9.991 -9.986,26.429 0,36.42l31.67,31.79c3.701,3.717 5.781,8.754 5.782,14c0,10.884 -8.956,19.84 -19.84,19.84l-0.002,0l-0.01,0.02Zm6.36,-170.51c-4.339,-0.007 -8.506,1.718 -11.57,4.79l-38,38.1c-23.965,24.037 -23.965,63.513 0,87.55l31.64,31.76c3.068,3.079 7.239,4.811 11.585,4.812c8.97,0 16.352,-7.382 16.352,-16.352c0,-4.324 -1.715,-8.476 -4.767,-11.54l-31.67,-31.78c-11.345,-11.353 -11.345,-30.027 0,-41.38l38,-38.11c3.056,-3.061 4.775,-7.214 4.776,-11.54c0,-8.958 -7.372,-16.33 -16.33,-16.33l-0.016,0l0,0.02Zm-358.64,108.71l-15.78,0c-10.884,0 -19.84,-8.956 -19.84,-19.84c0,-10.884 8.956,-19.84 19.84,-19.84l15.78,0c9.386,0 17.11,-7.724 17.11,-17.11c0,-9.386 -7.724,-17.11 -17.11,-17.11l-42.92,0c-10.884,0 -19.84,-8.956 -19.84,-19.84c0,-10.884 8.956,-19.84 19.84,-19.84l42.92,0c31.154,0 56.79,25.636 56.79,56.79c0,31.154 -25.636,56.79 -56.79,56.79Zm-15.78,-36.18c-8.964,0 -16.34,7.376 -16.34,16.34c0,8.964 7.376,16.34 16.34,16.34l15.78,0c29.234,0 53.29,-24.056 53.29,-53.29c0,-29.234 -24.056,-53.29 -53.29,-53.29l-42.92,0c-8.964,0 -16.34,7.376 -16.34,16.34c0,8.964 7.376,16.34 16.34,16.34l42.92,0c11.306,0 20.61,9.304 20.61,20.61c0,11.306 -9.304,20.61 -20.61,20.61l-15.78,0Z" style="fill:#ff9a1b;fill-rule:nonzero;"/><path d="M693.61,607.37c-5.709,-0.002 -11.149,-2.463 -14.92,-6.75l-54.26,-61.78c-3.177,-3.619 -4.93,-8.274 -4.931,-13.09c0,-10.884 8.957,-19.841 19.841,-19.841c5.707,0.001 11.144,2.463 14.91,6.751l54.26,61.78c3.177,3.619 4.93,8.274 4.931,13.09c0,10.881 -8.95,19.835 -19.831,19.84Zm-54.29,-98c-8.956,0.011 -16.32,7.384 -16.32,16.34c0,3.966 1.443,7.8 4.06,10.78l54.26,61.78c3.102,3.531 7.58,5.559 12.28,5.56c8.964,0 16.34,-7.376 16.34,-16.34c0,-3.966 -1.444,-7.799 -4.06,-10.78l-54.26,-61.71c-2.854,-3.262 -6.895,-5.254 -11.22,-5.53l-1.08,-0.1Z" style="fill:#ff4cab;fill-rule:nonzero;"/><path d="M612.22,607.36c-10.88,-0.005 -19.834,-8.95 -19.85,-19.83l0,-15.24c0.016,-10.872 8.958,-19.814 19.83,-19.83c10.872,0.016 19.814,8.958 19.83,19.83l0,15.24c-0.016,10.865 -8.945,19.803 -19.81,19.83Zm-0,-51.4c-8.954,0.011 -16.319,7.376 -16.33,16.33l-0,15.24c-0,8.964 7.376,16.34 16.34,16.34c8.964,0 16.34,-7.376 16.34,-16.34l-0,-15.24c-0.033,-8.947 -7.403,-16.29 -16.35,-16.29l-0,-0.04Zm314.18,51.66c-10.88,-0.005 -19.834,-8.95 -19.85,-19.83l0,-20.9c0,-10.884 8.956,-19.84 19.84,-19.84c10.884,-0 19.84,8.956 19.84,19.84l0,20.9c-0.016,10.872 -8.958,19.814 -19.83,19.83Zm0,-57.06c-8.96,0.005 -16.334,7.37 -16.35,16.33l0,20.9c0,8.964 7.376,16.34 16.34,16.34c8.964,-0 16.34,-7.376 16.34,-16.34l0,-20.9c-0.011,-8.954 -7.376,-16.319 -16.33,-16.33Z" style="fill:#ba9cdb;fill-rule:nonzero;"/><path d="M294.28,308.78c-10.752,-0.016 -19.594,-8.858 -19.61,-19.61l-0,-13.38c0.038,-32.785 27.005,-59.752 59.79,-59.79l0.1,-0c13.679,0.018 26.947,4.732 37.57,13.35c4.578,3.723 7.241,9.319 7.243,15.22c-0,10.759 -8.854,19.613 -19.613,19.613c-4.504,-0 -8.874,-1.552 -12.37,-4.393c-3.659,-2.958 -8.225,-4.572 -12.93,-4.572c-11.284,0 -20.57,9.286 -20.57,20.57l-0,13.382c-0.016,10.752 -8.858,19.594 -19.61,19.61Zm40.18,-89.28c-30.867,0.033 -56.257,25.423 -56.29,56.29l-0,13.38c-0,8.838 7.272,16.11 16.11,16.11c8.838,-0 16.11,-7.272 16.11,-16.11l-0,-13.38c0.007,-13.205 10.875,-24.067 24.08,-24.067c5.505,0.001 10.847,1.888 15.13,5.347c2.842,2.241 6.357,3.46 9.976,3.46c8.837,-0 16.11,-7.272 16.11,-16.11c-0.002,-4.764 -2.115,-9.29 -5.766,-12.35c-9.997,-8.115 -22.484,-12.554 -35.36,-12.57l-0.1,-0Z" style="fill:#ff4cab;fill-rule:nonzero;"/><path d="M321.08,386.87c-2.228,-0.001 -4.44,-0.384 -6.54,-1.13c-23.875,-8.468 -39.91,-31.208 -39.87,-56.54l0,-40c0,-10.758 8.852,-19.61 19.61,-19.61c10.758,0 19.61,8.852 19.61,19.61l0,40.08c-0.026,8.736 5.498,16.585 13.73,19.51c7.809,2.771 13.058,10.204 13.058,18.49c0,10.755 -8.843,19.608 -19.598,19.62l0,-0.03Zm-26.8,-113.81c-8.834,0.011 -16.099,7.276 -16.11,16.11l0,40c-0.038,23.85 15.061,45.26 37.54,53.23c1.725,0.61 3.541,0.921 5.37,0.921c8.838,0 16.111,-7.273 16.111,-16.111c0,-6.811 -4.319,-12.92 -10.741,-15.19c-9.626,-3.419 -16.086,-12.595 -16.06,-22.81l0,-40.04c-0.011,-8.834 -7.276,-16.099 -16.11,-16.11Z" style="fill:#5ec2ee;fill-rule:nonzero;"/><path d="M374.68,328.66c-10.752,-0.016 -19.594,-8.858 -19.61,-19.61l0,-33.22c0.024,-6.213 -2.787,-12.108 -7.63,-16c-4.607,-3.722 -7.29,-9.337 -7.292,-15.26c0,-10.759 8.853,-19.612 19.612,-19.612c4.482,0 8.832,1.536 12.32,4.352c14.081,11.326 22.262,28.47 22.21,46.54l0,33.2c-0.016,10.752 -8.858,19.594 -19.61,19.61Zm-14.9,-100.19l-0.014,-0c-8.838,-0 -16.11,7.272 -16.11,16.11c0.001,4.863 2.203,9.472 5.984,12.53c5.665,4.554 8.955,11.452 8.93,18.72l0,33.22c0,8.838 7.272,16.11 16.11,16.11c8.838,-0 16.11,-7.272 16.11,-16.11l0,-33.2c0.058,-17.024 -7.646,-33.179 -20.91,-43.85c-2.861,-2.3 -6.429,-3.547 -10.1,-3.53Z" style="fill:#ba9cdb;fill-rule:nonzero;"/><path d="M334.51,389.14l-0.1,0c-6.765,0.006 -13.482,-1.144 -19.86,-3.4c-7.824,-2.762 -13.089,-10.202 -13.089,-18.5c0,-10.762 8.857,-19.619 19.619,-19.619c2.224,0 4.433,0.379 6.53,1.119c2.17,0.786 4.462,1.179 6.77,1.16l0.07,0c11.27,0 20.545,-9.27 20.55,-20.54l0,-18.36c0,-10.758 8.852,-19.61 19.61,-19.61c10.758,0 19.61,8.852 19.61,19.61l0,18.34c0.005,32.783 -26.957,59.768 -59.74,59.79l0.03,0.01Zm-13.41,-38l-0.014,0c-8.838,0 -16.11,7.272 -16.11,16.11c0.01,6.809 4.327,12.913 10.744,15.19c6.003,2.12 12.324,3.203 18.69,3.2l0.1,0c30.865,-0.016 56.251,-25.425 56.24,-56.29l0,-18.35c0,-8.838 -7.272,-16.11 -16.11,-16.11c-8.838,0 -16.11,7.272 -16.11,16.11l0,18.36c0,13.193 -10.857,24.05 -24.05,24.05l-0.05,0c-2.727,0.04 -5.439,-0.421 -8,-1.36c-1.713,-0.602 -3.515,-0.91 -5.33,-0.91Z" style="fill:#ff9a1b;fill-rule:nonzero;"/><path d="M192.84,389.64c-10.763,-0.016 -19.61,-8.877 -19.61,-19.64l0,-131.89l3.5,0l0,131.89c0,8.851 7.284,16.135 16.135,16.135c8.851,0 16.135,-7.284 16.135,-16.135l0,-131.89l3.5,0l0,131.89c0,10.774 -8.866,19.64 -19.64,19.64l-0.02,0Z" style="fill:#5ec2ee;fill-rule:nonzero;"/><path d="M192.84,299.84c-10.752,-0.016 -19.594,-8.858 -19.61,-19.61l0,-42.86c0,-10.758 8.852,-19.61 19.61,-19.61c10.758,-0 19.61,8.852 19.61,19.61l0,42.86c-0.016,10.752 -8.858,19.594 -19.61,19.61Zm-0,-78.58c-8.834,0.011 -16.099,7.276 -16.11,16.11l0,42.86c0,8.838 7.272,16.11 16.11,16.11c8.838,-0 16.11,-7.272 16.11,-16.11l0,-42.86c-0.011,-8.834 -7.276,-16.099 -16.11,-16.11Z" style="fill:#ff4cab;fill-rule:nonzero;"/><path d="M238.48,255.7l-91.28,-0c-10.758,-0 -19.61,-8.852 -19.61,-19.61c-0,-10.758 8.852,-19.61 19.61,-19.61l91.28,-0c10.758,-0 19.61,8.852 19.61,19.61c-0,10.758 -8.852,19.61 -19.61,19.61Zm-91.28,-35.7c-8.838,-0 -16.11,7.272 -16.11,16.11c-0,8.838 7.272,16.11 16.11,16.11l91.28,-0c8.838,-0 16.11,-7.272 16.11,-16.11c-0,-8.838 -7.272,-16.11 -16.11,-16.11l-91.28,-0Z" style="fill:#ff9a1b;fill-rule:nonzero;"/><path d="M192.84,389.58c-10.74,-0.016 -19.577,-8.84 -19.61,-19.58l0,-21.47c0,-10.758 8.852,-19.61 19.61,-19.61c10.758,0 19.61,8.852 19.61,19.61l0,21.47c-0.033,10.74 -8.87,19.564 -19.61,19.58Zm-0,-57.16c-8.834,0.011 -16.099,7.276 -16.11,16.11l0,21.47c0,8.851 7.284,16.135 16.135,16.135c8.851,0 16.135,-7.284 16.135,-16.135l0,-21.47c-0.011,-8.841 -7.289,-16.11 -16.13,-16.11l-0.03,0Zm575.26,-219.78c-10.763,-0.016 -19.61,-8.877 -19.61,-19.64l0,-33.25c0.014,-6.21 -2.795,-12.102 -7.63,-16c-4.603,-3.721 -7.283,-9.331 -7.285,-15.25c0,-10.755 8.85,-19.605 19.605,-19.605c4.483,0.001 8.833,1.538 12.32,4.355c14.057,11.31 22.235,28.418 22.21,46.46l0,33.29c0,10.763 -8.847,19.624 -19.61,19.64Zm-14.9,-100.21l-0.03,0c-8.832,0 -16.1,7.268 -16.1,16.1c-0,4.864 2.204,9.476 5.99,12.53c5.649,4.555 8.939,11.434 8.94,18.69l-0,33.25c-0,8.838 7.272,16.11 16.11,16.11c8.838,0 16.11,-7.272 16.11,-16.11l-0,-33.26c0.022,-16.987 -7.682,-33.095 -20.92,-43.74c-2.856,-2.315 -6.424,-3.576 -10.1,-3.57Z" style="fill:#ba9cdb;fill-rule:nonzero;"/><path d="M771.21,568.94l0,-3.5l0.1,0c8.907,-0.066 16.189,-7.433 16.15,-16.34l0,-97.25c0,-8.914 -7.336,-16.25 -16.25,-16.25c-8.914,0 -16.25,7.336 -16.25,16.25l0,89l-3.5,0l0,-89c0,-10.835 8.915,-19.75 19.75,-19.75c10.835,0 19.75,8.915 19.75,19.75l0,97.24c0.044,10.83 -8.82,19.784 -19.65,19.85l-0.1,0Z" style="fill:#ff9a1b;fill-rule:nonzero;"/><path d="M771.2,568.94c-10.83,-0.011 -19.739,-8.92 -19.75,-19.75l0,-97.19l3.55,-0l0,97.24c0.217,8.765 7.487,15.857 16.255,15.857c8.768,0 16.038,-7.092 16.255,-15.857l0,-89l3.49,0l0,89c-0.038,10.83 -8.97,19.717 -19.8,19.7Z" style="fill:#ff9a1b;fill-rule:nonzero;"/><path d="M852.57,568.94c-10.783,-0.022 -19.664,-8.857 -19.74,-19.64l0,-71.45l3.5,0l0,71.44c0.065,8.873 7.377,16.139 16.25,16.15l0.09,0c8.914,-0.005 16.249,-7.336 16.26,-16.25l0,-77.19l3.5,-0l0,77.24c-0.011,10.83 -8.92,19.739 -19.75,19.75l-0.11,-0.05Z" style="fill:#5ec2ee;fill-rule:nonzero;"/><path d="M836.33,549.09l-3.5,0l0,-97.24c0.016,-10.84 8.94,-19.75 19.78,-19.75l0.09,0c10.785,0.016 19.669,8.855 19.74,19.64l0,91.45l-3.5,0l0,-91.44c-0.243,-8.774 -7.526,-15.859 -16.304,-15.859c-8.815,0 -16.116,7.146 -16.306,15.959l0,97.24Z" style="fill:#5ec2ee;fill-rule:nonzero;"/><path d="M853,493.56c-10.882,0 -19.839,-8.948 -19.85,-19.83l0,-21.9c0.241,-10.713 9.119,-19.395 19.835,-19.395c10.716,0 19.594,8.682 19.835,19.395l0,21.9c-0.005,10.873 -8.947,19.819 -19.82,19.83Zm0,-58.06c-8.962,0 -16.339,7.368 -16.35,16.33l0,21.9c0.218,8.809 7.524,15.936 16.335,15.936c8.811,0 16.117,-7.127 16.335,-15.936l0,-21.9c-0.011,-8.95 -7.37,-16.314 -16.32,-16.33Z" style="fill:#ba9cdb;fill-rule:nonzero;"/><path d="M927.86,177.72c-10.752,-0.016 -19.594,-8.858 -19.61,-19.61l0,-97.852c0,-11.268 -9.272,-20.54 -20.54,-20.54c-2.319,0 -4.622,0.393 -6.81,1.162l-0.26,0.08c-6.981,2.487 -12.076,8.595 -13.27,15.91l0,20.46c0,10.758 -8.852,19.61 -19.61,19.61c-10.758,0 -19.61,-8.852 -19.61,-19.61l0,-21.84c0.001,-0.789 0.048,-1.577 0.14,-2.36c2.66,-22.569 18.019,-41.726 39.47,-49.23c0.62,-0.22 1.26,-0.4 2,-0.57c5.819,-1.864 11.89,-2.819 18,-2.83l0.1,0c32.75,0.093 59.653,27.05 59.68,59.8l0,97.81c-0.016,10.763 -8.877,19.61 -19.64,19.61l-0.04,0Zm-40.17,-141.5c13.194,0.022 24.044,10.876 24.06,24.07l-0,97.82c-0,8.838 7.272,16.11 16.11,16.11c8.838,-0 16.11,-7.272 16.11,-16.11l-0,-97.81c-0.022,-30.832 -25.348,-56.212 -56.18,-56.3l-0.1,-0c-5.771,0.012 -11.505,0.916 -17,2.68l-0.12,-0c-0.6,0.15 -1.14,0.31 -1.66,0.49c-20.196,7.064 -34.657,25.101 -37.16,46.35c-0.08,0.644 -0.12,1.291 -0.12,1.94l-0,21.87c-0,8.838 7.272,16.11 16.11,16.11c8.838,-0 16.11,-7.272 16.11,-16.11l-0,-20.89c1.422,-8.602 7.389,-15.794 15.58,-18.78l0.25,-0.07c2.572,-0.911 5.281,-1.374 8.01,-1.37Z" style="fill:#5ec2ee;fill-rule:nonzero;"/><path d="M847.72,173.64c-10.763,-0.016 -19.61,-8.877 -19.61,-19.64l0,-89.25c0,-10.758 8.852,-19.61 19.61,-19.61c10.758,0 19.61,8.852 19.61,19.61l0,89.25c0,10.763 -8.847,19.624 -19.61,19.64Zm0,-125c-8.834,0.011 -16.099,7.276 -16.11,16.11l0,89.25c0,8.838 7.272,16.11 16.11,16.11c8.838,0 16.11,-7.272 16.11,-16.11l0,-89.25c-0.011,-8.834 -7.276,-16.099 -16.11,-16.11Z" style="fill:#ff9a1b;fill-rule:nonzero;"/><path d="M812,607.39c-33.202,-0.033 -60.516,-27.338 -60.56,-60.54c-0.003,-0.148 -0.005,-0.297 -0.005,-0.445c0,-10.884 8.956,-19.84 19.84,-19.84c10.884,0 19.84,8.956 19.84,19.84c0,0.148 -0.002,0.297 -0.005,0.445c0.016,11.449 9.441,20.86 20.89,20.86c11.44,-0.005 20.85,-9.42 20.85,-20.86l0,-0.01c0,-10.884 8.956,-19.84 19.84,-19.84c10.884,0 19.84,8.956 19.84,19.84l0,0.02c0,33.206 -27.324,60.53 -60.53,60.53Zm-40.73,-76.88c-8.933,0.049 -16.259,7.407 -16.27,16.34c-0,31.288 25.747,57.035 57.035,57.035c31.288,0 57.035,-25.747 57.035,-57.035c-0,-8.964 -7.376,-16.34 -16.34,-16.34c-8.964,0 -16.34,7.376 -16.34,16.34c-0,13.364 -10.996,24.36 -24.36,24.36c-13.364,0 -24.36,-10.996 -24.36,-24.36c-0.011,-8.967 -7.393,-16.34 -16.36,-16.34l-0.04,0Z" style="fill:#ff4cab;fill-rule:nonzero;"/><path d="M447.17,568.94l0,-3.5l0.1,0c8.907,-0.066 16.189,-7.433 16.15,-16.34l0,-97.25c0,-8.914 -7.336,-16.25 -16.25,-16.25c-8.914,0 -16.25,7.336 -16.25,16.25l0,89l-3.5,0l0,-89c0,-10.835 8.915,-19.75 19.75,-19.75c10.835,0 19.75,8.915 19.75,19.75l0,97.24c0.044,10.827 -8.813,19.779 -19.64,19.85l-0.11,0Z" style="fill:#ff9a1b;fill-rule:nonzero;"/><path d="M447.17,568.94c-10.83,-0.011 -19.739,-8.92 -19.75,-19.75l0,-97.19l3.5,-0l0,97.24c0,8.914 7.336,16.25 16.25,16.25c8.914,0 16.25,-7.336 16.25,-16.25l0,-89l3.5,0l0,89c-0.038,10.811 -8.938,19.689 -19.75,19.7Z" style="fill:#ff9a1b;fill-rule:nonzero;"/><path d="M528.54,568.94c-10.785,-0.016 -19.669,-8.855 -19.74,-19.64l0,-71.45l3.5,0l0,71.34c0.022,8.906 7.344,16.228 16.25,16.25l0.09,0c8.914,-0.005 16.249,-7.336 16.26,-16.25l0,-77.19l3.5,-0l0,77.24c-0.011,10.83 -8.92,19.739 -19.75,19.75l-0.11,-0.05Z" style="fill:#5ec2ee;fill-rule:nonzero;"/><path d="M512.3,549.09l-3.5,0l0,-97.24c0.011,-10.83 8.92,-19.739 19.75,-19.75l0.11,0c10.789,0.005 19.68,8.851 19.74,19.64l0,91.45l-3.5,0l0,-91.44c-0.055,-8.877 -7.373,-16.15 -16.25,-16.15l-0.09,0c-8.914,0.005 -16.249,7.336 -16.26,16.25l0,97.24Z" style="fill:#5ec2ee;fill-rule:nonzero;"/><path d="M529,493.56c-10.88,-0.005 -19.834,-8.95 -19.85,-19.83l0,-21.9c0,-10.884 8.956,-19.84 19.84,-19.84c10.884,0 19.84,8.956 19.84,19.84l0,21.9c-0.011,10.874 -8.956,19.819 -19.83,19.83Zm0,-58.06c-8.96,0.005 -16.334,7.37 -16.35,16.33l0,21.9c0,8.964 7.376,16.34 16.34,16.34c8.964,0 16.34,-7.376 16.34,-16.34l0,-21.9c-0.011,-8.954 -7.376,-16.319 -16.33,-16.33Z" style="fill:#ba9cdb;fill-rule:nonzero;"/><path d="M488,607.39c-33.206,-0.027 -60.526,-27.334 -60.57,-60.54c0,-10.884 8.956,-19.84 19.84,-19.84c10.884,0 19.84,8.956 19.84,19.84c0,11.443 9.417,20.86 20.86,20.86c11.443,0 20.86,-9.417 20.86,-20.86c0,-10.884 8.956,-19.84 19.84,-19.84c10.884,0 19.84,8.956 19.84,19.84c0.005,33.202 -27.308,60.529 -60.51,60.54Zm-40.73,-76.88c-8.96,0.011 -16.329,7.38 -16.34,16.34c0,31.291 25.749,57.04 57.04,57.04c31.291,0 57.04,-25.749 57.04,-57.04c0,-8.964 -7.376,-16.34 -16.34,-16.34c-8.964,0 -16.34,7.376 -16.34,16.34c0,13.364 -10.996,24.36 -24.36,24.36c-13.364,0 -24.36,-10.996 -24.36,-24.36c-0.011,-8.967 -7.393,-16.34 -16.36,-16.34l0.02,0Z" style="fill:#ff4cab;fill-rule:nonzero;"/><path d="M1099.76,603.67c-2.228,-0.001 -4.44,-0.384 -6.54,-1.13c-23.82,-8.455 -39.841,-31.114 -39.87,-56.39l0,-40.15c0,-10.758 8.852,-19.61 19.61,-19.61c10.758,0 19.61,8.852 19.61,19.61l0,40.18c0.01,8.702 5.528,16.502 13.73,19.41c7.809,2.771 13.058,10.204 13.058,18.49c0,10.755 -8.843,19.608 -19.598,19.62l0,-0.03Zm-26.76,-113.81l-0.02,0c-8.849,0 -16.13,7.281 -16.13,16.13l0,40.19c0.027,23.798 15.112,45.132 37.54,53.09c1.725,0.61 3.541,0.921 5.37,0.921c8.838,0 16.111,-7.273 16.111,-16.111c0,-6.811 -4.319,-12.92 -10.741,-15.19c-9.594,-3.405 -16.047,-12.53 -16.06,-22.71l0,-40.18c0.006,-8.83 -7.24,-16.107 -16.07,-16.14Z" style="fill:#5ec2ee;fill-rule:nonzero;"/><path d="M1113.13,605.94l-0.1,0c-6.765,0.006 -13.482,-1.144 -19.86,-3.4c-10.148,-3.566 -15.565,-14.851 -12,-25c3.58,-10.137 14.852,-15.547 25,-12c2.2,0.777 4.517,1.174 6.85,1.174c11.284,0 20.57,-9.286 20.57,-20.57l0,-18.334c0,-10.758 8.852,-19.61 19.61,-19.61c10.758,-0 19.61,8.852 19.61,19.61l0,18.34c0.005,32.783 -26.957,59.768 -59.74,59.79l0.06,-0Zm-13.41,-38l-0.014,0c-8.838,0 -16.11,7.272 -16.11,16.11c0.01,6.809 4.327,12.913 10.744,15.19c6.003,2.12 12.324,3.203 18.69,3.2l0.1,0c30.865,-0.016 56.251,-25.425 56.24,-56.29l0,-18.34c0,-8.838 -7.272,-16.11 -16.11,-16.11c-8.838,0 -16.11,7.272 -16.11,16.11l0,18.35c-0.028,13.207 -10.903,24.059 -24.11,24.059c-2.718,0 -5.416,-0.46 -7.98,-1.359c-1.715,-0.606 -3.521,-0.917 -5.34,-0.92Z" style="fill:#ff9a1b;fill-rule:nonzero;"/><path d="M1153.26,545.44c-10.752,-0.016 -19.594,-8.858 -19.61,-19.61l0,-33.24c0.01,-6.212 -2.803,-12.103 -7.64,-16c-4.601,-3.722 -7.279,-9.332 -7.281,-15.25c0,-10.758 8.853,-19.611 19.611,-19.611c4.487,0 8.841,1.54 12.33,4.361c14.067,11.327 22.243,28.46 22.2,46.52l0,33.23c-0.022,10.748 -8.862,19.584 -19.61,19.6Zm-14.89,-100.22c-0.578,0 -1.155,0.03 -1.73,0.09c-8.154,0.863 -14.414,7.821 -14.414,16.02c0.001,4.863 2.203,9.472 5.984,12.53c5.669,4.556 8.963,11.457 8.94,18.73l-0,33.24c-0,8.838 7.272,16.11 16.11,16.11c8.838,-0 16.11,-7.272 16.11,-16.11l-0,-33.23c0.045,-17.005 -7.653,-33.138 -20.9,-43.8c-2.855,-2.318 -6.423,-3.583 -10.1,-3.58Z" style="fill:#ba9cdb;fill-rule:nonzero;"/><path d="M1072.9,525.58c-10.74,-0.016 -19.577,-8.84 -19.61,-19.58l0,-13.41c0.038,-32.785 27.005,-59.752 59.79,-59.79l0.11,0c13.645,0.018 26.88,4.71 37.49,13.29c4.658,3.72 7.375,9.366 7.377,15.327c0,10.757 -8.852,19.61 -19.61,19.61c-4.539,0 -8.94,-1.576 -12.447,-4.457c-3.657,-2.946 -8.214,-4.553 -12.91,-4.553c-11.28,0 -20.565,9.273 -20.58,20.553l0,13.43c-0.033,10.74 -8.87,19.564 -19.61,19.58Zm40.18,-89.28c-30.867,0.033 -56.257,25.423 -56.29,56.29l-0,13.41c-0,8.838 7.272,16.11 16.11,16.11c8.838,-0 16.11,-7.272 16.11,-16.11l-0,-13.41c0.005,-13.206 10.874,-24.071 24.08,-24.071c5.496,-0 10.83,1.882 15.11,5.331c2.944,2.601 6.74,4.037 10.668,4.038c8.838,-0 16.11,-7.272 16.11,-16.11c-0,-5.09 -2.413,-9.891 -6.498,-12.928c-9.987,-8.076 -22.446,-12.493 -35.29,-12.51l-0.11,-0.04Zm-425.32,-351.5c-10.752,-0.016 -19.594,-8.858 -19.61,-19.61l0,-5.44c0.055,-32.765 27.005,-59.706 59.77,-59.75l0.08,-0c13.641,0.021 26.873,4.713 37.48,13.29c4.531,3.724 7.161,9.289 7.163,15.153c0,10.758 -8.852,19.61 -19.61,19.61c-4.444,-0 -8.759,-1.51 -12.233,-4.283c-3.6,-2.97 -8.133,-4.581 -12.8,-4.55c-11.282,-0.006 -20.577,9.258 -20.61,20.54l0,5.43c-0.016,10.759 -8.871,19.605 -19.63,19.61Zm40.16,-81.3c-30.845,0.044 -56.215,25.405 -56.27,56.25l-0,5.44c-0,8.838 7.272,16.11 16.11,16.11c8.838,-0 16.11,-7.272 16.11,-16.11l-0,-5.43c0.055,-13.179 10.911,-23.995 24.09,-24c5.476,-0.045 10.798,1.827 15.04,5.29c2.778,2.066 6.15,3.182 9.612,3.182c8.838,-0 16.11,-7.273 16.11,-16.11c-0,-4.616 -1.984,-9.016 -5.442,-12.072c-9.979,-8.089 -22.434,-12.52 -35.28,-12.55l-0.08,-0Zm280.3,171.86c-10.752,-0.016 -19.594,-8.858 -19.61,-19.61l0,-95.46c0,-0.68 0,-1.38 -0.1,-2.08l0,-0.19c0,-0.1 0,-0.21 -0.05,-0.31c-0.06,-0.52 -0.13,-1 -0.23,-1.55c-0.005,-0.047 -0.005,-0.093 0,-0.14c-1.684,-7.924 -7.898,-14.146 -15.82,-15.84l-0.18,-0c-0.52,-0.1 -1.09,-0.18 -1.62,-0.24l-0.39,-0c-0.55,-0.06 -1.16,-0.09 -1.86,-0.1c-0.077,-0.005 -0.153,-0.005 -0.23,-0c-11.286,0.005 -20.574,9.284 -20.59,20.57l0,10.2c0,10.758 -8.852,19.61 -19.61,19.61c-10.758,-0 -19.61,-8.852 -19.61,-19.61l0,-10.32c0,-32.8 26.99,-59.79 59.79,-59.79c32.8,-0 59.79,26.99 59.79,59.79l0,95.51c-0.044,10.759 -8.921,19.582 -19.68,19.56Zm-40.22,-139.14l0.31,-0c0.83,-0 1.54,0.05 2.19,0.11l0.45,-0c0.59,0.07 1.27,0.16 1.95,0.3l0.19,-0c9.303,2.002 16.578,9.348 18.49,18.67c0.008,0.05 0.008,0.1 0,0.15c0.13,0.61 0.2,1.18 0.28,1.82l0,0.18c0,0.14 0.05,0.27 0.06,0.41c0.08,0.82 0.12,1.64 0.12,2.43l0,95.46c0,8.838 7.272,16.11 16.11,16.11c8.838,0 16.11,-7.272 16.11,-16.11l0,-95.45c0,-30.88 -25.41,-56.29 -56.29,-56.29c-30.88,0 -56.29,25.41 -56.29,56.29l0,10.31c0,8.838 7.272,16.11 16.11,16.11c8.838,0 16.11,-7.272 16.11,-16.11l0,-10.32c0.016,-13.21 10.89,-24.07 24.1,-24.07Z" style="fill:#ff4cab;fill-rule:nonzero;"/><path d="M342.1,39.72l-33,0c-10.758,0 -19.61,-8.852 -19.61,-19.61c0,-10.758 8.852,-19.61 19.61,-19.61l33,0c10.758,0 19.61,8.852 19.61,19.61c0,10.758 -8.852,19.61 -19.61,19.61Zm-33,-35.72c-8.838,0 -16.11,7.272 -16.11,16.11c0,8.838 7.272,16.11 16.11,16.11l33,0c8.838,0 16.11,-7.272 16.11,-16.11c0,-8.838 -7.272,-16.11 -16.11,-16.11l-33,0Z" style="fill:#ba9cdb;fill-rule:nonzero;"/><path d="M342.1,173.64l-33,-0c-10.758,-0 -19.61,-8.852 -19.61,-19.61c0,-10.758 8.852,-19.61 19.61,-19.61l33,-0c10.758,-0 19.61,8.852 19.61,19.61c0,10.758 -8.852,19.61 -19.61,19.61Zm-33,-35.72c-8.838,-0 -16.11,7.272 -16.11,16.11c0,8.838 7.272,16.11 16.11,16.11l33,-0c8.838,-0 16.11,-7.272 16.11,-16.11c0,-8.838 -7.272,-16.11 -16.11,-16.11l-33,-0Z" style="fill:#5ec2ee;fill-rule:nonzero;"/><path d="M308.5,173.64c-32.785,-0.038 -59.752,-27.005 -59.79,-59.79l0,-53.56c0.038,-32.785 27.005,-59.752 59.79,-59.79c10.758,-0 19.61,8.852 19.61,19.61c0,10.758 -8.852,19.61 -19.61,19.61c-11.276,0.016 -20.549,9.294 -20.56,20.57l0,53.56c0.011,11.276 9.284,20.554 20.56,20.57c10.758,-0 19.61,8.852 19.61,19.61c0,10.758 -8.852,19.61 -19.61,19.61Zm0,-169.64c-30.865,0.038 -56.252,25.425 -56.29,56.29l0,53.56c0.038,30.865 25.425,56.252 56.29,56.29c8.838,-0 16.11,-7.272 16.11,-16.11c0,-8.838 -7.272,-16.11 -16.11,-16.11c-13.196,-0.016 -24.049,-10.874 -24.06,-24.07l0,-53.56c0.011,-13.196 10.864,-24.054 24.06,-24.07c8.838,-0 16.11,-7.272 16.11,-16.11c0,-8.838 -7.272,-16.11 -16.11,-16.11Z" style="fill:#ff9a1b;fill-rule:nonzero;"/><path d="M325.12,102.2l-37.69,0c-8.306,0 -15.14,-6.834 -15.14,-15.14c0,-8.306 6.834,-15.14 15.14,-15.14l37.69,0c8.306,0 15.14,6.834 15.14,15.14c0,8.306 -6.834,15.14 -15.14,15.14Zm-37.69,-26.78c-6.386,0 -11.64,5.254 -11.64,11.64c0,6.386 5.254,11.64 11.64,11.64l37.69,0c6.386,0 11.64,-5.254 11.64,-11.64c0,-6.386 -5.254,-11.64 -11.64,-11.64l-37.69,0Z" style="fill:#ff4cab;fill-rule:nonzero;"/><path d="M1155.37,39.72l-33,0c-10.758,0 -19.61,-8.852 -19.61,-19.61c-0,-10.758 8.852,-19.61 19.61,-19.61l33,0c10.758,0 19.61,8.852 19.61,19.61c-0,10.758 -8.852,19.61 -19.61,19.61Zm-33,-35.72c-8.838,0 -16.11,7.272 -16.11,16.11c-0,8.838 7.272,16.11 16.11,16.11l33,0c8.838,0 16.11,-7.272 16.11,-16.11c-0,-8.838 -7.272,-16.11 -16.11,-16.11l-33,0Z" style="fill:#ba9cdb;fill-rule:nonzero;"/><path d="M1155.37,173.64l-33,-0c-10.758,-0 -19.61,-8.852 -19.61,-19.61c-0,-10.758 8.852,-19.61 19.61,-19.61l33,-0c10.758,-0 19.61,8.852 19.61,19.61c-0,10.758 -8.852,19.61 -19.61,19.61Zm-33,-35.72c-8.838,-0 -16.11,7.272 -16.11,16.11c-0,8.838 7.272,16.11 16.11,16.11l33,-0c8.838,-0 16.11,-7.272 16.11,-16.11c-0,-8.838 -7.272,-16.11 -16.11,-16.11l-33,-0Z" style="fill:#5ec2ee;fill-rule:nonzero;"/><path d="M1121.77,173.64c-32.778,-0.049 -59.732,-27.012 -59.77,-59.79l0,-53.56c0.038,-32.778 26.992,-59.741 59.77,-59.79c10.758,-0 19.61,8.852 19.61,19.61c0,10.758 -8.852,19.61 -19.61,19.61c-11.278,0.016 -20.554,9.292 -20.57,20.57l0,53.56c0.016,11.278 9.292,20.554 20.57,20.57c10.758,-0 19.61,8.852 19.61,19.61c0,10.758 -8.852,19.61 -19.61,19.61Zm0,-169.64c-30.867,0.033 -56.257,25.423 -56.29,56.29l0,53.56c0.033,30.867 25.423,56.257 56.29,56.29c8.838,-0 16.11,-7.272 16.11,-16.11c0,-8.838 -7.272,-16.11 -16.11,-16.11c-13.198,-0.016 -24.054,-10.872 -24.07,-24.07l0,-53.56c0.016,-13.198 10.872,-24.054 24.07,-24.07c8.838,-0 16.11,-7.272 16.11,-16.11c0,-8.838 -7.272,-16.11 -16.11,-16.11Z" style="fill:#ff9a1b;fill-rule:nonzero;"/><path d="M1138.39,102.2l-37.7,0c-8.306,0 -15.14,-6.834 -15.14,-15.14c0,-8.306 6.834,-15.14 15.14,-15.14l37.7,0c8.306,0 15.14,6.834 15.14,15.14c0,8.306 -6.834,15.14 -15.14,15.14Zm-37.7,-26.78c-6.386,0 -11.64,5.254 -11.64,11.64c0,6.386 5.254,11.64 11.64,11.64l37.7,0c6.386,0 11.64,-5.254 11.64,-11.64c0,-6.386 -5.254,-11.64 -11.64,-11.64l-37.7,0Z" style="fill:#ff4cab;fill-rule:nonzero;"/><path d="M611.25,48.11c-10.675,0 -19.46,-8.785 -19.46,-19.46c0,-10.675 8.785,-19.46 19.46,-19.46c10.675,0 19.46,8.785 19.46,19.46c-0.011,10.671 -8.789,19.449 -19.46,19.46Zm0,-35.42c-8.777,0 -16,7.223 -16,16c0,8.777 7.223,16 16,16c8.777,0 16,-7.223 16,-16c0,-8.777 -7.223,-16 -16,-16Zm396.97,162.67c-10.752,-0.016 -19.594,-8.858 -19.61,-19.61l0,-24.5c0,-10.758 8.852,-19.61 19.61,-19.61c10.758,0 19.61,8.852 19.61,19.61l0,24.5c-0.016,10.752 -8.858,19.594 -19.61,19.61Zm0,-60.22c-8.834,0.011 -16.099,7.276 -16.11,16.11l0,24.5c0,8.838 7.272,16.11 16.11,16.11c8.838,0 16.11,-7.272 16.11,-16.11l0,-24.5c-0.011,-8.834 -7.276,-16.099 -16.11,-16.11Z" style="fill:#ba9cdb;fill-rule:nonzero;"/></svg>