<svg clip-rule="evenodd" fill-rule="evenodd" stroke-linejoin="round" stroke-miterlimit="2" viewBox="0 0 256 256" xmlns="http://www.w3.org/2000/svg"><path d="m26.871 14.744v29.267h-1.504c-13.987 0-25.367 11.378-25.367 25.365v1.341l.2 1.326 8.823 58.399v92.966c0 13.987 11.379 25.365 25.367 25.365h187.22c13.987 0 25.367-11.379 25.367-25.365v-92.966l8.823-58.399.2-1.326v-1.341c0-13.987-11.38-25.365-25.367-25.365h-1.504v-29.267c0-4.15-3.366-7.517-7.519-7.517h-187.22c-4.151 0-7.519 3.367-7.519 7.517zm17.848 10.332h166.56v18.935h-166.56zm185.914 36.784c4.153 0 7.519 3.366 7.519 7.516l-9.024 59.725v94.307c0 4.15-3.367 7.516-7.519 7.516h-187.219c-4.153 0-7.519-3.366-7.519-7.516v-94.307l-9.023-59.725c0-4.15 3.368-7.516 7.519-7.516zm-164.486 106.763.009-.352.782-2.345h16.11v2.38c0 3.869 1.356 7.035 4.147 9.682 2.826 2.677 6.419 3.98 10.985 3.98 4.461 0 7.84-1.308 10.333-3.998 2.54-2.744 3.775-6.28 3.775-10.814 0-5.185-1.149-9.048-3.418-11.478-2.225-2.38-5.931-3.589-11.01-3.589h-12.733v-14.538h12.733c4.857 0 8.251-1.12 10.09-3.329 1.945-2.339 2.932-5.773 2.932-10.205 0-4.124-1.05-7.32-3.209-9.771-2.081-2.36-5.187-3.507-9.494-3.507-4.266 0-7.672 1.261-10.411 3.854-2.704 2.557-4.018 5.68-4.018 9.551v2.38h-15.865l-1.084-2.167-.015-.522c-.236-7.687 2.696-14.326 8.712-19.738 5.922-5.325 13.553-8.023 22.682-8.023 9.209 0 16.581 2.406 21.907 7.153 5.405 4.82 8.146 11.9 8.146 21.047 0 4.784-1.276 9.213-3.793 13.165-1.721 2.702-3.927 5.014-6.588 6.905 3.2 1.924 5.791 4.412 7.733 7.434 2.689 4.187 4.053 9.275 4.053 15.123 0 9.188-2.987 16.524-8.875 21.806-5.815 5.218-13.414 7.863-22.584 7.863-8.43 0-15.962-2.523-22.387-7.497-6.635-5.134-9.881-12.013-9.645-20.45zm98.74-54.795-20.259.191v-14.258l37.673-3.95v99.417h-17.414z" fill="#fff" fill-rule="nonzero"/></svg>