<svg clip-rule="evenodd" fill-rule="evenodd" stroke-linejoin="round" stroke-miterlimit="2" viewBox="0 0 192 192" xmlns="http://www.w3.org/2000/svg"><path d="m188.16 25.56c-1.8-4.74-6.12-11.4-12.24-16.14-3.6-2.7-7.68-5.34-13.44-7.02-6.24-1.8-13.92-2.4-23.28-2.4h-86.4c-9.42 0-17.04.6-23.22 2.46-5.76 1.74-10.02 4.32-13.5 7.02-6.12 4.68-10.44 11.4-12.3 16.14-3.72 9.54-3.78 20.34-3.78 27.18v86.4c0 6.84.06 17.64 3.78 27.24 1.86 4.74 6.18 11.4 12.3 16.14 3.54 2.7 7.74 5.34 13.5 7.02 6.18 1.8 13.8 2.4 23.22 2.4h86.4c9.42 0 17.04-.6 23.22-2.46 5.76-1.74 10.02-4.32 13.5-7.02 6.12-4.68 10.44-11.4 12.3-16.14 3.78-9.54 3.78-20.4 3.78-27.24v-86.4c0-6.84-.06-17.64-3.78-27.24l-.06.06zm-150.12 106.44h-7.14v-42.66h7.14zm-3.54-49.86c-2.4 0-4.44-1.98-4.44-4.44s1.98-4.44 4.44-4.44 4.5 1.98 4.5 4.44c-.06 2.46-2.04 4.44-4.5 4.44zm42.9 50.94c-18.84 0-30.72-13.44-30.72-34.86s11.88-34.92 30.72-34.92 30.72 13.5 30.72 34.92-11.88 34.86-30.72 34.86zm62.16 0c-14.16 0-24.12-7.8-24.78-19.44h6.42c.72 8.1 8.34 13.62 18.96 13.62 10.14 0 17.4-5.52 17.4-13.14 0-6.3-4.38-10.08-14.4-12.6l-8.4-2.16c-12.54-3.18-18.12-8.46-18.12-17.4 0-10.92 9.84-18.72 23.16-18.72 13.2 0 22.8 7.8 23.22 18.54h-6.42c-.6-7.62-7.38-12.72-16.98-12.72-9.36 0-16.32 5.22-16.32 12.66 0 5.82 4.2 9.24 14.16 11.76l7.32 1.86c13.62 3.42 19.32 8.64 19.32 18.06 0 11.88-9.54 19.68-24.54 19.68zm-37.98-34.86c0 17.7-9.36 28.92-24.18 28.92s-24.12-11.22-24.12-28.92c0-17.76 9.3-28.98 24.12-28.98s24.18 11.22 24.18 28.98z" fill="#fff" fill-rule="nonzero"/></svg>