<svg clip-rule="evenodd" fill-rule="evenodd" stroke-linejoin="round" stroke-miterlimit="2" viewBox="0 0 192 192" xmlns="http://www.w3.org/2000/svg"><path d="m105.674 63.698v-1.583l-4.918.338c-1.393.088-2.438.384-3.141.884-.704.504-1.055 1.203-1.055 2.096 0 .869.347 1.563 1.045 2.077.694.518 1.629.773 2.795.773.745 0 1.443-.116 2.086-.343.643-.226 1.208-.546 1.68-.953.472-.402.842-.883 1.106-1.443.268-.56.402-1.175.402-1.846zm-9.674-63.698c-53.57 0-96 42.43-96 96 0 53.575 42.43 96 96 96s96-42.425 96-96c0-53.57-42.425-96-96-96zm18.636 56.901c.453-1.272 1.091-2.364 1.92-3.271.828-.906 1.822-1.605 2.988-2.095 1.166-.491 2.466-.736 3.896-.736 1.291 0 2.456.194 3.493.578 1.041.384 1.929.903 2.674 1.555s1.337 1.411 1.772 2.281.694 1.79.782 2.757h-3.854c-.097-.532-.273-1.032-.523-1.49s-.578-.856-.985-1.193c-.412-.338-.893-.602-1.444-.791-.555-.195-1.175-.287-1.874-.287-.818 0-1.563.166-2.225.495-.666.328-1.235.796-1.707 1.397s-.837 1.337-1.097 2.198c-.263.865-.393 1.822-.393 2.877 0 1.092.13 2.073.393 2.933.26.866.63 1.592 1.111 2.189.476.597 1.055 1.055 1.725 1.369.671.315 1.412.477 2.217.477 1.318 0 2.391-.31 3.224-.93s1.37-1.527 1.62-2.721h3.858c-.111 1.055-.402 2.018-.874 2.887-.472.87-1.083 1.61-1.832 2.226-.755.615-1.638 1.092-2.656 1.425s-2.138.504-3.354.504c-1.444 0-2.744-.241-3.914-.717-1.166-.477-2.17-1.166-3.003-2.059s-1.476-1.98-1.929-3.262c-.454-1.281-.68-2.72-.68-4.325-.01-1.569.217-2.994.671-4.271zm-54.838-5.838h3.858v3.428h.074c.236-.569.546-1.083.925-1.527.38-.449.815-.828 1.314-1.147.495-.319 1.046-.56 1.638-.726.597-.167 1.226-.25 1.883-.25 1.416 0 2.614.337 3.586 1.013.976.675 1.67 1.647 2.077 2.915h.097c.259-.611.602-1.157 1.023-1.638s.906-.898 1.452-1.24 1.148-.602 1.8-.782 1.337-.268 2.059-.268c.995 0 1.897.157 2.711.476s1.508.764 2.086 1.342c.579.578 1.023 1.281 1.333 2.105.31.823.467 1.74.467 2.748v13.792h-4.025v-12.825c0-1.328-.342-2.359-1.027-3.086-.68-.726-1.656-1.092-2.924-1.092-.62 0-1.189.111-1.707.329-.514.217-.962.523-1.333.916-.374.388-.666.86-.874 1.406-.213.546-.319 1.143-.319 1.791v12.561h-3.97v-13.158c0-.583-.092-1.11-.273-1.582-.18-.472-.435-.875-.772-1.212-.333-.338-.745-.593-1.222-.773-.481-.181-1.018-.273-1.614-.273-.62 0-1.194.116-1.726.347-.527.231-.981.55-1.36.958-.38.411-.676.893-.884 1.452-.203.556-.537 1.166-.537 1.823v12.413h-3.816v-20.236zm8.758 96.874c-17.697 0-28.796-12.297-28.796-31.923 0-19.625 11.099-31.964 28.796-31.964 17.696 0 28.753 12.339 28.753 31.964 0 19.621-11.057 31.923-28.753 31.923zm32.764-76.684c-.652.166-1.318.25-2.003.25-1.008 0-1.929-.144-2.766-.431-.842-.286-1.56-.689-2.161-1.212s-1.073-1.152-1.406-1.892c-.338-.74-.505-1.564-.505-2.471 0-1.776.662-3.164 1.985-4.163 1.323-1 3.239-1.583 5.751-1.745l5.459-.314v-1.564c0-1.166-.37-2.059-1.11-2.665-.741-.606-1.786-.911-3.142-.911-.546 0-1.059.069-1.531.203-.472.139-.888.333-1.249.588-.361.254-.662.56-.893.916-.236.352-.398.749-.486 1.184h-3.784c.023-.893.245-1.721.661-2.479.417-.759.981-1.416 1.698-1.976s1.555-.995 2.526-1.305c.972-.31 2.027-.467 3.169-.467 1.231 0 2.346.153 3.345.467 1 .315 1.855.754 2.563 1.333.708.578 1.254 1.272 1.638 2.086.384.815.578 1.726.578 2.73v13.884h-3.853v-3.373h-.098c-.286.546-.647 1.041-1.087 1.481-.444.439-.939.819-1.49 1.129-.555.31-1.156.55-1.809.717zm25.46 76.684c-13.495 0-22.67-7.069-23.308-18.168h8.786c.684 6.343 6.814 10.544 15.211 10.544 8.055 0 13.843-4.201 13.843-9.943 0-4.969-3.516-7.971-11.654-10.025l-7.93-1.971c-11.4-2.827-16.581-8.013-16.581-16.54 0-10.498 9.169-17.784 22.239-17.784 12.769 0 21.68 7.328 22.022 17.867h-8.697c-.602-6.343-5.784-10.243-13.501-10.243-7.67 0-12.982 3.942-12.982 9.642 0 4.497 3.341 7.157 11.483 9.211l6.686 1.67c12.727 3.086 17.955 8.101 17.955 17.1-.004 11.483-9.086 18.64-23.572 18.64zm-58.224-56.008c-12.127 0-19.709 9.299-19.709 24.081 0 14.74 7.582 24.039 19.709 24.039 12.084 0 19.708-9.299 19.708-24.039.005-14.782-7.624-24.081-19.708-24.081z" fill="#fff" fill-rule="nonzero"/></svg>