<svg clip-rule="evenodd" fill-rule="evenodd" stroke-linejoin="round" stroke-miterlimit="2" viewBox="0 0 256 256" xmlns="http://www.w3.org/2000/svg"><path d="m149.179 256c-49.771-10.417-99.347-20.794-149.111-31.21v-3.274c0-63.128.019-126.256-.068-189.384-.004-2.615.698-3.523 3.259-4.012 39.788-7.601 79.556-15.311 119.328-22.993 8.771-1.694 17.542-3.382 26.592-5.127zm106.631-170.772c.079.957.178 1.695.178 2.435.009 29.554.023 59.109-.001 88.664-.009 9.824-4.971 14.769-14.743 14.774-25.701.012-51.401.005-77.102.005-.926-.001-1.851-.001-2.923-.001v-67.93c4.832 3.314 9.343 6.407 13.853 9.499 4.049 2.776 4.73 2.762 8.909-.016 23.12-15.367 46.245-30.728 69.37-46.088.7-.466 1.424-.897 2.443-1.536zm-146.301 42.528c-.1-10.403-1.523-20.008-6.664-28.713-4.15-7.026-9.756-12.36-17.819-14.656-15.689-4.468-30.71 2.88-38.103 18.759-4.737 10.174-5.748 20.968-4.834 32.019.792 9.576 3.565 18.422 9.739 25.99 12.274 15.043 34.609 15.143 47.047.194 8.234-9.897 10.471-21.677 10.634-33.593zm-51.279.228c-.021-7.414.977-14.59 5.175-20.949 3.873-5.868 9.754-8.265 16.234-6.645 5.037 1.26 8.079 4.817 10.107 9.306 3.462 7.664 4.062 15.818 3.014 23.984-.581 4.528-1.862 9.116-3.702 13.294-2.377 5.399-6.946 8.488-13.049 8.623-6.143.136-10.414-3.05-13.408-8.146-3.532-6.013-4.388-12.646-4.371-19.467zm103.174-73.772h2.622c27.14 0 54.28-.002 81.42.002 4.852.001 8.607 2.968 10.132 7.632.67 2.05-.012 3.052-1.667 4.161-21.024 14.076-42.003 28.219-62.995 42.345-2.998 2.018-6.037 3.98-8.982 6.073-1.612 1.144-3.039 1.207-4.711.13-4.797-3.089-9.685-6.04-14.447-9.18-.794-.524-1.621-1.719-1.626-2.609-.084-15.876-.044-31.753-.023-47.629.001-.178.103-.356.277-.925z" fill="#fff"/></svg>