<?xml version="1.0" encoding="UTF-8" standalone="no"?><!DOCTYPE svg PUBLIC "-//W3C//DTD SVG 1.1//EN" "http://www.w3.org/Graphics/SVG/1.1/DTD/svg11.dtd"><svg width="100%" height="100%" viewBox="0 0 1280 1920" version="1.1" xmlns="http://www.w3.org/2000/svg" xmlns:xlink="http://www.w3.org/1999/xlink" xml:space="preserve" xmlns:serif="http://www.serif.com/" style="fill-rule:evenodd;clip-rule:evenodd;stroke-linejoin:round;stroke-miterlimit:2;"><g id="Brand"><rect x="0" y="0" width="1280" height="1920" style="fill:#1ab394;"/><g id="Brand-Assets"><g id="avatar"><g id="brand-logo-sessionize-avatar-invert" serif:id="brand/logo/sessionize-avatar-invert"><path id="inner-background" d="M303.251,555.901l336.749,0c223.18,0 404.099,180.919 404.099,404.099l-0,336.749c-0,36.947 -30.403,67.35 -67.35,67.35l-673.498,-0c-36.947,-0 -67.35,-30.403 -67.35,-67.35l0,-673.498c0,-36.947 30.403,-67.35 67.35,-67.35Z" style="fill:#1ab394;"/><path id="symbol" d="M640,555.901c223.18,0 404.099,180.919 404.099,404.099l-0,336.749c-0,36.947 -30.403,67.35 -67.35,67.35l-252.562,-0l-0.05,-5.691c-1.633,-97.472 -45.36,-165.075 -124.884,-200.703l444.846,-197.705l-10.759,-3.671c-96.26,-33.641 -176.861,-82.924 -241.803,-147.866c-64.942,-64.942 -114.225,-145.543 -147.866,-241.803l-3.671,-10.759l-269.399,606.148c-0,22.445 5.607,39.282 16.837,50.513c11.231,11.23 28.068,16.837 50.513,16.837l6.297,0.034c126.971,1.347 178.915,43.609 178.915,134.666l-319.912,-0c-36.947,-0 -67.35,-30.403 -67.35,-67.35l0,-673.498c0,-36.947 30.403,-67.35 67.35,-67.35l336.749,0Zm242.695,161.404c-26.3,-26.3 -58.274,-36.958 -71.424,-23.808c-13.15,13.133 -2.492,45.124 23.808,71.424c26.3,26.3 58.274,36.958 71.424,23.808c13.15,-13.133 2.492,-45.124 -23.808,-71.424Z" style="fill:#fff;"/></g></g></g></g></svg>