<svg clip-rule="evenodd" fill-rule="evenodd" stroke-linejoin="round" stroke-miterlimit="2" viewBox="0 0 1280 1920" xmlns="http://www.w3.org/2000/svg">
<!--
  Microphone icon by Andi Wiyanto (Creative Commons courtesy of the Noun Project)
  https://thenounproject.com/icon/microphone-5054021/
-->
<path d="m0 0h1280v1920h-1280z" fill="#000024"/><path d="m639.991 1101.67c38.806-.042 76.003-15.479 103.437-42.913 27.44-27.44 42.872-64.638 42.919-103.444v-264.8c0-52.291-27.892-100.604-73.176-126.751-45.283-26.142-101.079-26.142-146.362 0-45.283 26.147-73.176 74.46-73.176 126.751v264.8c.048 38.806 15.479 76.004 42.919 103.444 27.434 27.434 64.632 42.872 103.437 42.913zm-94.376-411.161c.666-33.263 18.795-63.716 47.718-80.16 28.917-16.437 64.359-16.437 93.281 0 28.923 16.444 47.051 46.897 47.718 80.16v264.8c-.666 33.262-18.795 63.716-47.718 80.159-28.923 16.438-64.364 16.438-93.281 0-28.923-16.443-47.051-46.897-47.718-80.159zm120.37 522.787v110.558h74.044c9.169.173 17.563 5.168 22.1 13.134 4.531 7.972 4.531 17.742 0 25.707-4.536 7.972-12.931 12.961-22.1 13.14h-200.101c-9.162-.179-17.562-5.168-22.093-13.14-4.537-7.966-4.537-17.736 0-25.707 4.53-7.966 12.931-12.961 22.093-13.134h74.045l.006-110.558c-66.168-6.65-127.52-37.591-172.195-86.844-44.681-49.247-69.52-113.321-69.71-179.815-.137-6.984 2.542-13.723 7.43-18.701 4.888-4.983 11.58-7.794 18.558-7.794 6.977 0 13.669 2.811 18.557 7.794 4.888 4.977 7.567 11.716 7.43 18.701 0 77.146 41.164 148.435 107.975 187.009 66.817 38.574 149.132 38.574 215.952 0 66.811-38.579 107.975-109.868 107.975-187.009-.137-6.984 2.542-13.723 7.43-18.701 4.888-4.983 11.58-7.794 18.557-7.794 6.978 0 13.67 2.811 18.558 7.794 4.888 4.977 7.567 11.716 7.43 18.701-.19 66.501-25.029 130.568-69.716 179.815s-106.045 80.194-172.21 86.84z" fill="#2d2d45" fill-rule="nonzero"/>
</svg>
