<svg width="1561" height="283" fill="none" xmlns="http://www.w3.org/2000/svg"><g clip-path="url(#a)"><path d="M371.713 117.296a50.952 50.952 0 0 0-14.146-40.724 69.77 69.77 0 0 0-46.587-12.193 124.41 124.41 0 0 0-60.488 15.119v9.51a59.234 59.234 0 0 0 5.366 27.313h29.512a50.467 50.467 0 0 0 3.659-19.509 55.372 55.372 0 0 1 15.61-1.95c16.585 0 24.39 7.803 24.39 24.385v14.632h-32.927a59.273 59.273 0 0 0-40 11.705 39.504 39.504 0 0 0-13.659 31.946 39.255 39.255 0 0 0 14.39 31.945 52.693 52.693 0 0 0 35.854 11.218 53.669 53.669 0 0 0 47.318-19.021 89.23 89.23 0 0 0 5.122 19.021 106.116 106.116 0 0 0 44.147-7.316V187.04a70.762 70.762 0 0 0-16.585-5.121l-.976-64.623Zm-42.44 63.404a33.43 33.43 0 0 1-24.39 9.023 17.811 17.811 0 0 1-13.659-4.878 16.824 16.824 0 0 1-4.878-12.437c0-10.973 7.317-16.582 21.951-16.582h21.22l-.244 24.874ZM494.398 64.379a73.18 73.18 0 0 0-43.171 14.143V63.647h-22.196a154.91 154.91 0 0 0-30 3.414l-3.171 24.386a38.54 38.54 0 0 0 16.83 10.242v146.316a36.836 36.836 0 0 0-16.83 10.242l3.171 24.386h76.099l2.927-24.386a43.914 43.914 0 0 0-22.928-11.218v-27.556a105.142 105.142 0 0 0 24.391 2.439 73.175 73.175 0 0 0 48.781-18.29 59.5 59.5 0 0 0 17.318-24.386 101.656 101.656 0 0 0 6.341-37.798 93.625 93.625 0 0 0-13.659-57.794 52.441 52.441 0 0 0-43.903-19.265Zm5.122 111.931a26.828 26.828 0 0 1-24.39 13.412 77.338 77.338 0 0 1-20.488-2.438V106.81a48.787 48.787 0 0 1 31.22-9.267 18.783 18.783 0 0 1 17.805 8.779A77.044 77.044 0 0 1 508.301 139a68.02 68.02 0 0 1-8.781 37.31ZM662.938 64.379a73.183 73.183 0 0 0-43.172 14.143V63.647h-22.195a154.911 154.911 0 0 0-30.001 3.414l-3.171 24.386a38.54 38.54 0 0 0 16.83 10.242v146.316a36.836 36.836 0 0 0-16.83 10.242l3.171 24.386h76.099l2.927-24.386a43.911 43.911 0 0 0-22.927-11.218v-27.556a105.133 105.133 0 0 0 24.39 2.439 73.18 73.18 0 0 0 48.782-18.29 61.204 61.204 0 0 0 17.073-24.386 101.411 101.411 0 0 0 6.585-37.798 95.337 95.337 0 0 0-13.17-59.99 53.42 53.42 0 0 0-44.391-17.07Zm5.122 111.931a26.831 26.831 0 0 1-24.391 13.412 77.342 77.342 0 0 1-20.488-2.438V106.81a48.79 48.79 0 0 1 31.464-9.267 18.537 18.537 0 0 1 17.561 8.779A76.308 76.308 0 0 1 677.084 139a66.078 66.078 0 0 1-9.024 37.31ZM807.33 187.284c-6.83 0-11.22-1.463-12.927-4.39a26.08 26.08 0 0 1-2.927-14.144V92.179h43.415V67.793h-43.415V28.53h-21.952a44.862 44.862 0 0 0-17.317 33.653 48.782 48.782 0 0 0-20.488 10.974l3.171 18.533h13.658v85.595a46.329 46.329 0 0 0 8.781 30.482 40.979 40.979 0 0 0 33.415 11.705c16.998.106 33.757-4 48.781-11.949l-10.244-24.63a65.152 65.152 0 0 1-21.951 4.39ZM1018.31 66.573l-2.93 24.387a36.846 36.846 0 0 0 18.05 10.973l-1.71 8.535c-2.68 11.706-7.8 34.628-15.12 68.769h-4.39l-7.56-33.653-20.244-77.303h-33.172l-21.463 78.035c-2.927 11.461-5.61 22.435-7.805 33.165h-4.391l-17.561-78.523a40.008 40.008 0 0 0 18.537-10.974l-2.927-24.386h-70.977l-3.17 24.386a36.83 36.83 0 0 0 18.049 10.974l38.049 118.516h43.171l14.147-48.772a266.299 266.299 0 0 0 9.268-43.407h4.147v7.315a188.209 188.209 0 0 0 7.561 36.335l15.366 48.772h40.485l37.81-118.515a36.819 36.819 0 0 0 19.02-11.462l-2.92-24.386-67.32 1.22ZM1226.85 130.221a70.252 70.252 0 0 0-14.88-51.454 59.273 59.273 0 0 0-43.17-14.388 77.552 77.552 0 0 0-48.78 16.826 59.008 59.008 0 0 0-17.32 24.386 106.93 106.93 0 0 0-6.34 38.53 79.002 79.002 0 0 0 18.29 56.332 73.253 73.253 0 0 0 25.42 15.449 73.164 73.164 0 0 0 29.46 4.06 88.8 88.8 0 0 0 31.95-5.365 63.148 63.148 0 0 0 18.05-7.804l5.37-5.121-9.27-24.386-4.15 2.439a59.349 59.349 0 0 1-13.66 4.877 75.604 75.604 0 0 1-19.75 2.439 40.258 40.258 0 0 1-27.32-7.804 39.71 39.71 0 0 1-10-27.068h65.85c2.86.173 5.71-.291 8.37-1.358a19.237 19.237 0 0 0 11.2-12.147c.85-2.729 1.08-5.613.68-8.443Zm-39.03-5.121-48.78 1.951a46.06 46.06 0 0 1 8.3-24.386 24.405 24.405 0 0 1 8.48-5.637c3.2-1.26 6.62-1.833 10.05-1.679 3.15-.25 6.3.236 9.23 1.421a20.244 20.244 0 0 1 7.6 5.407 24.445 24.445 0 0 1 4.64 12.925c.43 3.314.59 6.658.48 9.998ZM1370.02 117.296a51.042 51.042 0 0 0-2.55-21.931 50.945 50.945 0 0 0-11.6-18.793 69.744 69.744 0 0 0-46.58-12.193 124.41 124.41 0 0 0-60.49 15.119v9.51a62.306 62.306 0 0 0 5.37 27.313h29.51a50.523 50.523 0 0 0 3.66-19.509 55.353 55.353 0 0 1 15.61-1.95c16.83 0 24.39 7.803 24.39 24.385v14.632h-32.93a59.28 59.28 0 0 0-40 11.705 39.547 39.547 0 0 0-10.53 14.391 39.448 39.448 0 0 0-3.13 17.555 39.334 39.334 0 0 0 3.43 17.666 39.284 39.284 0 0 0 10.96 14.279 52.693 52.693 0 0 0 34.88 11.949c8.85 1.003 17.8-.21 26.06-3.531a53.67 53.67 0 0 0 21.26-15.49 106.084 106.084 0 0 0 5.12 19.021c15.07.75 30.12-1.745 44.15-7.316V187.04a70.815 70.815 0 0 0-16.59-5.121v-64.623Zm-42.44 63.404a33.359 33.359 0 0 1-11.28 6.981 33.435 33.435 0 0 1-13.11 2.042c-2.49.16-4.98-.189-7.33-1.028a18.364 18.364 0 0 1-6.33-3.85 16.661 16.661 0 0 1-3.72-5.713 16.8 16.8 0 0 1-1.16-6.724c0-10.973 7.32-16.582 21.96-16.582h21.22l-.25 24.874ZM1534.66 181.919l-34.39-45.114 29.27-33.408a46.642 46.642 0 0 0 24.39-13.413l-3.17-24.386h-65.86l-2.93 24.386c1.76 2.7 4.2 4.887 7.08 6.34l-33.17 43.408 53.66 79.742h48.78l2.68-24.386a48.765 48.765 0 0 0-26.34-13.169Z" fill="#C82C46"/><path d="M1452.95 184.602V0h-24.39c-10.6.184-21.14 1.492-31.47 3.902l-3.17 24.386c4.6 4.729 10.3 8.247 16.59 10.242v146.072a36.611 36.611 0 0 0-16.59 10.242l3.17 24.386h69.52l3.17-24.386a40.765 40.765 0 0 0-16.83-10.242Z" fill="#C82C46"/><path d="M68.05 115.101a3.906 3.906 0 0 0-3.17-1.463 3.418 3.418 0 0 0-2.928 1.463L0 188.503v22.679l64.88-73.158 45.366 52.186a5.118 5.118 0 0 0 3.658 1.707 5.61 5.61 0 0 0 3.415-1.951l69.025-92.423V69.5l-73.172 97.544-45.122-51.942Z" fill="#fff"/><path d="M117.319 189.967a5.61 5.61 0 0 1-3.415 1.951 5.133 5.133 0 0 1-3.658-1.708l-45.367-52.917L0 211.182v1.464a19.502 19.502 0 0 0 5.715 13.794 19.5 19.5 0 0 0 13.797 5.714h146.344a19.5 19.5 0 0 0 7.467-1.485 19.497 19.497 0 0 0 10.56-10.558 19.495 19.495 0 0 0 1.486-7.465V97.544l-68.05 92.423Z" fill="#C82C46"/><path d="M186.1 64.38a19.27 19.27 0 0 0-19.268-18.29H19.512A19.514 19.514 0 0 0 0 65.599v121.929l61.952-73.157a3.419 3.419 0 0 1 2.927-1.464 3.905 3.905 0 0 1 3.17 1.464l45.367 53.649 73.172-97.544v-4.877s-.488-.732-.488-1.22Z" fill="#C82C46"/></g><defs><clipPath id="a"><path fill="#fff" d="M0 0h1561v283H0z"/></clipPath></defs></svg>
