<svg viewBox="0 0 900 150" xmlns="http://www.w3.org/2000/svg"><path d="m281.6 112.4h49.7c24.6 0 36.8-10.1 36.8-30.4 0-10.8-5.4-19.3-14.4-23.1v-.3c6.7-3.6 10.7-10.7 10.7-19.2 0-15.5-12.4-26.4-29.4-26.4h-53.4zm18.4-58.8v-24.5h31.7c9.2 0 14.4 4.3 14.4 12.1 0 8.2-4.8 12.4-14.4 12.4zm0 42.4v-27.8h32.7c11.5 0 17.1 4.5 17.1 13.8s-5.3 14-17.3 14zm79.5-15.2c0 21 12.8 33.7 33.7 33.7 11.2 0 20.2-3.6 26.5-9.9h.3v7.8h17v-75.3h-17.6v40.9c0 12.1-9 20.6-21.6 20.6-12.7 0-20.6-7.5-20.6-20.6v-40.9h-17.6v43.7zm93.1 31.6h17.6v-75.3h-17.6zm-.7-88.1h18.8v-18h-18.8zm34.2 88.1h17.6v-103.7h-17.6zm30.8-37.7c0 23.3 16.9 39.8 40.7 39.8 11.2 0 20.5-3.7 26.3-10.1h.3v8h16.6v-103.7h-17.6v35.5h-.3c-6.1-5.8-15.4-9.2-26-9.2-23 0-40 17.2-40 39.7zm66.3 4.9c0 10.7-10.7 19.5-23.9 19.5-14.9 0-24.8-9.5-24.8-24.3s9.8-24.3 24.6-24.3c13.1 0 24 8.5 24 19.2v9.9zm33.2 32.8h17.6v-21.6l14.4-12.2h.3l27.5 33.8h21.9l-37.3-44.7 35.7-30.5h-25.2l-37 32.2h-.3v-60.7h-17.6zm91.4 0h17.6v-75.3h-17.6zm-.7-88.1h18.8v-18h-18.8zm87.1 27.9v-15.1h-24.3v-18.2h-17.6v18.2h-17.4v15.1h17.4v38.5c0 15.2 7 21.7 24.2 21.7h14.5v-16.2h-13.1c-6.3 0-8-1.4-8-6.4v-37.6zm5 22.8c0 23.9 16.1 39.5 41.5 39.5 15.5 0 27.6-5.7 36.3-16.9l-11.8-10.5c-7 8.7-14.5 12.8-24.6 12.8-13.8 0-23.3-7.7-23.9-19.5h63.3v-5.3c0-22.9-16.1-40.2-40.3-40.2-24.2.1-40.5 16.7-40.5 40.1zm17.8-7.4c1.1-10.7 10.4-18 23.1-18s21.6 7.4 22.6 18z" fill="#1a002e"/><path d="m0 0v74.8l74.7 37.4v-74.8zm149.5 0v74.8l74.7-37.4z" fill="#30f2a2"/><path d="m149.5 74.7v74.8l74.7-37.4v-74.7zm-74.8-37.3v74.8l74.7-37.4v-74.8z" fill="#14cc80"/></svg>