<?xml version="1.0" encoding="UTF-8"?><svg id="Layer_1" xmlns="http://www.w3.org/2000/svg" xmlns:xlink="http://www.w3.org/1999/xlink" viewBox="0 0 791.27 179.33"><defs><style>.cls-1{fill:none;}.cls-2{clip-path:url(#clippath);}.cls-3{fill:#0439d7;}.cls-4{clip-path:url(#clippath-1);}</style><clipPath id="clippath"><rect class="cls-1" x="7.73" y="6.2" width="776.14" height="166.51"/></clipPath><clipPath id="clippath-1"><rect class="cls-1" x="7.73" y="6.2" width="776.14" height="166.51"/></clipPath></defs><g id="logo_RGB"><g class="cls-2"><g class="cls-4"><path class="cls-3" d="M7.73,89.45C7.73,42.82,44.35,6.2,91.47,6.2c24.9,0,48.1,10.74,62.75,28.81,2.69,3.42,3.66,5.61,3.66,8.06,0,4.64-4.15,8.54-9.03,8.54-3.17,0-5.86-1.22-8.06-3.91-12.69-15.87-29.3-23.93-49.07-23.93-36.62,0-64.21,28.32-64.21,65.68s27.59,65.68,64.21,65.68c19.78,0,36.38-8.3,49.07-23.93,2.2-2.69,4.88-3.91,8.06-3.91,4.88,0,9.03,3.91,9.03,8.54,0,2.44-.98,4.64-3.66,8.06-14.16,18.07-37.6,28.81-62.75,28.81-47.12,0-83.74-36.62-83.74-83.25"/><path class="cls-3" d="M192.79,162.45V18.65c0-5.61,3.91-10.01,9.52-10.01s9.52,4.39,9.52,10.01V155.37h68.6c5.13,0,8.79,3.66,8.79,8.54s-3.66,8.54-8.79,8.54h-77.64c-5.86,0-10.01-4.39-10.01-10.01"/><path class="cls-3" d="M626.89,164.16c0,4.64-3.91,8.54-9.03,8.54-2.93,0-5.62-1.71-8.3-5.13l-48.59-65.19h-36.62v60.55c0,5.37-4.15,9.77-9.52,9.77s-9.52-4.39-9.52-9.77V18.65c0-5.37,4.15-9.77,9.76-9.77h46.88c30.76,0,51.52,18.8,51.52,46.63,0,21.48-12.21,37.6-31.98,43.95l42.24,57.37c1.95,2.44,3.17,4.88,3.17,7.32m-102.54-78.86h36.87c20.26,0,32.47-11.23,32.47-29.54s-12.45-29.79-32.47-29.79h-36.87v59.33Z"/><path class="cls-3" d="M682.31,16.21V162.7c0,5.61-4.15,10.01-9.52,10.01s-9.52-4.39-9.52-10.01V16.21c0-5.62,3.9-10.01,9.52-10.01s9.52,4.39,9.52,10.01m101.56,147.95c0,4.64-3.91,8.54-8.79,8.54-2.44,0-4.88-1.22-7.57-3.91l-76.91-78.61c-1.71-1.95-2.93-4.15-2.93-6.59s1.22-4.64,3.18-6.84L760.68,10.1c2.93-2.69,4.88-3.91,7.32-3.91,4.88,0,8.79,3.91,8.79,8.54,0,2.69-1.22,4.88-4.15,7.57l-63.97,61.28,71.53,73.49c2.69,2.2,3.66,4.15,3.66,7.08"/><path class="cls-3" d="M467.95,157.32L406.18,12.79c-1.95-4.39-4.88-6.59-9.03-6.59s-7.08,2.2-9.03,6.59l-61.77,144.53c-.98,2.44-1.47,4.39-1.47,6.1,0,4.88,4.15,9.28,9.28,9.28,4.15,0,7.33-2.44,9.03-6.35l11.77-28.02,.44-1.04,7.08-17.09,34.67-85.45,33.69,85.45,7.32,17.09,12.94,29.05c1.95,3.91,4.88,6.35,9.28,6.35,4.88,0,9.28-4.39,9.28-9.28,0-1.71-.49-3.66-1.71-6.1"/></g></g></g></svg>