<?xml version="1.0" encoding="utf-8"?>
<!-- Generator: Adobe Illustrator 24.1.2, SVG Export Plug-In . SVG Version: 6.00 Build 0)  -->
<svg version="1.1" id="Layer_1" xmlns="http://www.w3.org/2000/svg" xmlns:xlink="http://www.w3.org/1999/xlink" x="0px" y="0px"
	 viewBox="0 0 1000 208" style="enable-background:new 0 0 1000 208;" xml:space="preserve">
<style type="text/css">
	.st0{fill-rule:evenodd;clip-rule:evenodd;fill:#2D2D2D;}
	.st1{display:none;}
	.st2{display:inline;fill:#2D2D2D;}
</style>
<g>
	<path class="st0" d="M1000.2,65.2v15.4h-8.4v81.9h-20.2l-39.2-61.8h-0.4v46.5h8.7v15.3h-34.9v-15.3h8.2V80.7h-8.2V65.2h27.2
		l40.3,64.5h0.4v-49h-8.7V65.2L1000.2,65.2L1000.2,65.2z"/>
	<path class="st0" d="M385.9,147.3V80.7h-8.2V65.2h36.3v15.4h-8.2v66.7h8.2v15.3h-36.3v-15.3H385.9L385.9,147.3z"/>
	<path class="st0" d="M816.4,81.8l-11.1,38h21.6L816.4,81.8L816.4,81.8L816.4,81.8z M829.8,65.2l25.6,82.1h7.8v15.3h-37.6v-15.3h8.9
		l-4-14.2h-29.1l-4.7,14.2h9.1v15.3h-36.5v-15.3h8.7l21.6-66.7h-9.4V65.2H829.8L829.8,65.2z"/>
	<path class="st0" d="M709.6,111.4h18.9c8,0,14.2-4.5,14.2-14.9c0-9.8-5.8-14.7-13.8-14.7h-19.3L709.6,111.4L709.6,111.4z
		 M730.5,65.2c20.2,0,31.8,11.3,31.8,30.1c0,13.3-6.7,23.8-18.2,27.1l18.5,24.7h6.4v15.3h-37.1v-15.3h6l-15.3-21.4h-13.8v21.4h8
		v15.3h-35.2v-15.3h8V80.7h-8V65.2H730.5L730.5,65.2z"/>
	<path class="st0" d="M625.3,119.7v28.2h20c8,0,12.9-4.5,12.9-14c0-9.1-5.1-14-13.6-14h-19.3V119.7z M644.4,81.8h-19.1v26.3h19.1
		c8,0,12.4-5.1,12.4-13.3C656.8,87.2,652.6,81.8,644.4,81.8L644.4,81.8L644.4,81.8z M662.4,112.3c10.5,3.1,17.4,11.1,17.4,23.6
		c0,16.7-10.7,26.7-30.9,26.7h-51.8v-15.3h8.2V80.7h-8.2V65.2H646c20.2,0,30.9,9.1,30.9,24.9c0,10.5-5.6,18.7-14.5,22V112.3
		L662.4,112.3z"/>
	<path class="st0" d="M566.3,147.3v-27.2h-37.1v27.2h8.2v15.3h-35.8v-15.3h8.2V80.7h-8.2V65.2h35.8v15.4h-8.2v24h37.1v-24h-8.2V65.2
		h36v15.4h-8.2v66.7h8.2v15.3h-36v-15.3H566.3L566.3,147.3z"/>
	<path class="st0" d="M436.6,134.8V145c9.4,2,16.3,2.7,22.2,2.7c11.4,0,16.5-5.1,16.5-11.4c0-9.3-11.4-11.4-23.2-14.7
		c-17.4-4.7-31.1-14.2-31.1-30.7c0-19.8,16.5-27.4,36.5-27.4c11.4,0,21.8,1.5,35.4,5.4V93h-15.8V82.3c-8.7-1.8-14-2.2-19.6-2.2
		c-10.4,0-15.1,4.4-15.1,10.2c0,8.2,10.5,11.8,22.9,14.7c17.4,3.8,31.2,12,31.2,29.1c0,20.9-16.5,30.1-38,30.1
		c-11.4,0-24.3-1.5-38.1-5.3v-24.2H436.6L436.6,134.8z"/>
	<path class="st0" d="M874.7,147.3V80.7h-8.2V65.2h36.3v15.4h-8.2v66.7h8.2v15.3h-36.3v-15.3H874.7L874.7,147.3z"/>
	<path class="st0" d="M298.4,65.2v15.4h8v66.7h-8v15.3h34.9v-15.3h-8V123h37.1v-15.4h-37.1V80.7h29.1v8.5h14.9v-24H298.4L298.4,65.2
		z"/>
	<path class="st0" d="M181.8,51.1c6.9,0.4,16.5,1.8,26.7,5.8c14.3,5.6,25.2,14.7,28.3,25.4c3.1,10.9,3.1,33.2-53,59.2
		c5.1,4.2,16.3,14.3,8.7,25.8c-1.5,2-3.1,2.5-4.2,2.5c-4.9,0-9.3-8-14.2-17.6c-0.5-1.1-1.1-2.2-1.6-3.1c-0.4,0.2-0.7,0.5-0.9,0.7
		c-16.7,12.7-34.7,21.3-53.9,25.4c0,0.2-0.2,0.5-0.2,0.7c-0.7,2.4-5.8,13.6-8.7,13.6s-4.2-4.2-4.9-8c-0.4-1.3-0.7-3.3-1.1-4.2
		c-4,0.4-8.2,0.5-12.4,0.5c-14.3,0-24.9-2.4-29.2-3.6c-2.2,7.3-25.2,40.1-32,31.6c-4-5.1,0.9-24,1.6-28.5
		c-4.5-1.8-31.4-17.3-30.1-25.4c1.3-8,49.8,2.7,53.8,4.5c29.4-12.9,48.1-47.2,54.3-59.9L181.8,51.1L181.8,51.1z M177.8,44.2
		l-9.4-43.8l-23.2,32.7l-30.5-9.6l-2.4,30.3l-40.5,7.4L105.5,89L177.8,44.2L177.8,44.2z M192.7,93c6.2,0,11.1-4.9,11.1-11.1
		c0-6.2-4.9-11.1-11.1-11.1c-6.2,0-11.1,4.9-11.1,11.1C181.6,87.9,186.5,93,192.7,93L192.7,93z"/>
	<g class="st1">
		<path class="st2" d="M333.3,208.2h-24.7V222h22v4.2h-22v14.2h24.9v4.2H304v-40.3h29.2V208.2z"/>
		<path class="st2" d="M364.9,214.7h4.7l-12.9,30h-3.8l-12.9-30h4.9l10,24.7L364.9,214.7z"/>
		<path class="st2" d="M389.6,241.2c4.2,0,6.9-1.6,9.4-4.2l2.7,2.5c-3.1,3.3-6.5,5.6-12.4,5.6c-8.2,0-14.9-6.4-14.9-15.6
			c0-8.7,6-15.6,14.3-15.6c8.9,0,14,7.1,14,15.8c0,0.4,0,0.9,0,1.5h-23.6C379.8,237.6,384.3,241.2,389.6,241.2z M398.3,228
			c-0.5-5.4-3.6-10.2-9.4-10.2c-5.3,0-9.1,4.4-9.6,10.2H398.3z"/>
		<path class="st2" d="M416.5,244.5h-4.4v-29.8h4.4v7.8c2.2-4.9,6.5-8.5,12.2-8.4v4.7h-0.4c-6.5,0-11.8,4.7-11.8,13.6V244.5z"/>
		<path class="st2" d="M451.3,245.4c-2.5,6.2-5.4,8.4-10,8.4c-2.5,0-4.4-0.5-6.4-1.5l1.5-3.5c1.5,0.7,2.7,1.1,4.7,1.1
			c2.7,0,4.4-1.5,6.2-5.6l-13.6-29.6h4.9l10.9,24.9l9.6-24.9h4.7L451.3,245.4z"/>
		<path class="st2" d="M510.2,245.2c-11.6,0-20.2-9.1-20.2-20.9c0-11.4,8.5-20.9,20.3-20.9c7.3,0,11.6,2.5,15.8,6.4l-3.1,3.3
			c-3.5-3.3-7.3-5.4-12.7-5.4c-8.9,0-15.6,7.3-15.6,16.5c0,9.4,6.7,16.7,15.6,16.7c5.4,0,9.1-2.2,13.1-5.8l3.1,2.9
			C522.2,242.3,517.4,245.2,510.2,245.2z"/>
		<path class="st2" d="M536.7,220.3l-1.3-3.6c3.3-1.5,6.5-2.5,10.9-2.5c8.2,0,12.7,4.2,12.7,12v18.2h-4.4v-4.5
			c-2,2.7-5.4,5.1-10.7,5.1c-5.4,0-11.1-3.1-11.1-9.3c0-6.4,5.3-9.6,12.7-9.6c3.8,0,6.5,0.5,9.1,1.3v-1.1c0-5.4-3.3-8.2-8.9-8.2
			C542.3,218.2,539.4,219.1,536.7,220.3z M537.2,235.6c0,3.8,3.5,6,7.4,6c5.4,0,10-3.3,10-8v-2.9c-2.2-0.5-5.1-1.3-8.7-1.3
			C540.3,229.4,537.2,231.8,537.2,235.6z"/>
		<path class="st2" d="M575.6,236c0,3.6,2,4.9,5.1,4.9c1.5,0,2.7-0.4,4.4-1.1v3.8c-1.6,0.7-3.3,1.3-5.4,1.3c-4.7,0-8.4-2.4-8.4-8.4
			v-18H567v-3.8h4.2v-9.1h4.4v9.1h9.4v4h-9.4L575.6,236L575.6,236z"/>
		<path class="st2" d="M606.8,245.2c-8.7,0-15.3-7.1-15.3-15.4c0-8.5,6.5-15.6,15.3-15.6c5.6,0,9.1,2.4,12,5.3l-2.9,3.1
			c-2.4-2.5-5.1-4.5-9.1-4.5c-6,0-10.7,5.1-10.7,11.6s4.7,11.6,10.9,11.6c3.8,0,6.7-1.8,9.1-4.4l2.9,2.7
			C616.1,242.7,612.4,245.2,606.8,245.2z"/>
		<path class="st2" d="M632.2,244.5h-4.4v-42.1h4.4v17.4c2-3.3,5.1-5.8,10.2-5.8c7.3,0,11.4,4.9,11.4,12v18.5h-4.4v-17.4
			c0-5.4-3.1-9.1-8.2-9.1c-5.1,0-8.9,3.8-8.9,9.3v17.3H632.2z"/>
		<path class="st2" d="M703.6,233.4h-0.2l-14.7-21.6v32.7h-4.4v-40.3h4.5l14.7,22l14.7-22h4.5v40.3h-4.5v-32.7L703.6,233.4z"/>
		<path class="st2" d="M736.7,220.3l-1.3-3.6c3.3-1.5,6.5-2.5,10.9-2.5c8.2,0,12.7,4.2,12.7,12v18.2h-4.4v-4.5
			c-2,2.7-5.4,5.1-10.7,5.1c-5.4,0-11.1-3.1-11.1-9.3c0-6.4,5.3-9.6,12.7-9.6c3.8,0,6.5,0.5,9.1,1.3v-1.1c0-5.4-3.3-8.2-8.9-8.2
			C742.1,218.2,739.4,219.1,736.7,220.3z M737.2,235.6c0,3.8,3.5,6,7.4,6c5.4,0,10-3.3,10-8v-2.9c-2.2-0.5-5.1-1.3-8.7-1.3
			C740.3,229.4,737.2,231.8,737.2,235.6z"/>
		<path class="st2" d="M775.5,236c0,3.6,2,4.9,5.1,4.9c1.5,0,2.7-0.4,4.4-1.1v3.8c-1.6,0.7-3.3,1.3-5.4,1.3c-4.7,0-8.4-2.4-8.4-8.4
			v-18H767v-3.8h4.2v-9.1h4.4v9.1h9.4v4h-9.4L775.5,236L775.5,236z"/>
		<path class="st2" d="M800.2,236c0,3.6,2,4.9,5.1,4.9c1.5,0,2.7-0.4,4.4-1.1v3.8c-1.6,0.7-3.3,1.3-5.4,1.3c-4.7,0-8.4-2.4-8.4-8.4
			v-18h-4.2v-3.8h4.2v-9.1h4.4v9.1h9.4v4h-9.4L800.2,236L800.2,236z"/>
		<path class="st2" d="M831.1,241.2c4.2,0,6.9-1.6,9.4-4.2l2.7,2.5c-3.1,3.3-6.7,5.6-12.4,5.6c-8.2,0-14.9-6.4-14.9-15.6
			c0-8.7,6-15.6,14.3-15.6c8.9,0,14,7.1,14,15.8c0,0.4,0,0.9,0,1.5h-23.6C821.3,237.6,826,241.2,831.1,241.2z M839.8,228
			c-0.5-5.4-3.6-10.2-9.4-10.2c-5.3,0-9.1,4.4-9.6,10.2H839.8z"/>
		<path class="st2" d="M858,244.5h-4.4v-29.8h4.4v7.8c2.2-4.9,6.5-8.5,12.2-8.4v4.7h-0.4c-6.5,0-11.8,4.7-11.8,13.6V244.5z"/>
		<path class="st2" d="M888.3,245c-4.4,0-9.1-1.6-12.4-4.4l2.2-3.1c3.3,2.4,6.7,3.8,10.4,3.8c3.6,0,6.2-1.8,6.2-4.7v-0.2
			c0-3.1-3.5-4.2-7.4-5.3c-4.7-1.3-9.8-2.9-9.8-8.4v-0.2c0-5.1,4.2-8.5,10.2-8.5c3.6,0,7.6,1.3,10.7,3.3l-2,3.3
			c-2.7-1.8-6-2.9-8.9-2.9c-3.5,0-5.8,1.8-5.8,4.4v0.2c0,2.9,3.6,4,7.6,5.1c4.5,1.5,9.6,3.1,9.6,8.5v0.2
			C898.9,241.8,894.1,245,888.3,245z"/>
	</g>
</g>
</svg>
