<svg width="130" height="42" xmlns="http://www.w3.org/2000/svg"><defs><linearGradient x1="21.264%" y1="50%" x2="76.954%" y2="50%" id="a"><stop stop-color="#00ABE9" offset=".066%"/><stop stop-color="#09B54E" offset="100%"/></linearGradient></defs><path d="M113.206 30.382c1.76-1.83 4.212-2.882 7.129-2.882 5.415 0 9.026 3.797 9.026 9.562V51.06h-7.36V38.617c0-2.699-1.62-4.529-3.98-4.529-2.917 0-4.815 1.967-4.815 6.405V51.06H105.8V28.186h7.406v2.196Zm-37.913-2.138h7.936l5.38 12.874-3.841 8.638-9.475-21.512Zm20.946-.004h7.773L90.32 59.996H82.5L96.24 28.24Zm-31.936-.04v3.434c1.643-2.693 4.367-3.434 9.087-3.434v6.57c-5.147 0-9.087 1.118-9.087 8.248V51H57V28.2h7.303ZM30 39.508c0-7.037 5.602-11.758 12.36-11.758 6.624 0 12.225 4.721 12.225 11.758 0 7.082-5.601 11.803-12.226 11.803C35.602 51.311 30 46.59 30 39.508Zm6.847 0c0 3.608 2.622 5.79 5.512 5.79 2.757 0 5.38-2.182 5.38-5.79 0-3.563-2.623-5.79-5.38-5.79-2.89 0-5.512 2.227-5.512 5.79ZM20.5 50.98V18.2h7.17v32.78H20.5ZM12.63 18.2h5.809v6.237h-4.794c-1.752 0-2.996.865-2.996 2.687v1.001h5.485v6.01H10.65V50.98h-7.33V34.135H0v-6.01h3.32v-.865c0-5.157 3.882-9.06 9.31-9.06Z" transform="translate(0 -18)" fill="url(#a)" fill-rule="evenodd"/></svg>