<?xml version="1.0" encoding="UTF-8" standalone="no"?>
<!DOCTYPE svg PUBLIC "-//W3C//DTD SVG 1.1//EN" "http://www.w3.org/Graphics/SVG/1.1/DTD/svg11.dtd">
<svg width="100%" height="100%" viewBox="0 0 418 147" version="1.1" xmlns="http://www.w3.org/2000/svg" xmlns:xlink="http://www.w3.org/1999/xlink" xml:space="preserve" xmlns:serif="http://www.serif.com/" style="fill-rule:evenodd;clip-rule:evenodd;stroke-linejoin:round;stroke-miterlimit:2;">
    <g transform="matrix(1,0,0,1,-72.34,-38.185)">
        <g id="b">
            <g>
                <g>
                    <path d="M247.15,156.71L247.15,64.81L261.02,64.81L261.02,104.75L306.84,104.75L306.84,64.81L320.75,64.81L320.75,156.71L306.84,156.71L306.84,116.64L261.02,116.64L261.02,156.71L247.15,156.71Z" style="fill:rgb(50,50,50);fill-rule:nonzero;"/>
                    <path d="M343.09,80.83C340.76,80.83 338.76,80.04 337.1,78.47C335.44,76.9 334.61,75.02 334.61,72.84C334.61,70.66 335.44,68.73 337.1,67.16C338.76,65.59 340.76,64.8 343.09,64.8C345.42,64.8 347.42,65.59 349.08,67.16C350.74,68.73 351.57,70.62 351.57,72.84C351.57,75.06 350.74,76.9 349.08,78.47C347.42,80.04 345.42,80.83 343.09,80.83ZM336.31,156.71L336.31,87.78L349.73,87.78L349.73,156.7L336.31,156.7L336.31,156.71Z" style="fill:rgb(50,50,50);fill-rule:nonzero;"/>
                    <path d="M425.2,87.78L400.21,156.7L385.85,156.7L360.81,87.78L375.21,87.78L392.67,140.82L393.39,140.82L410.8,87.78L425.2,87.78Z" style="fill:rgb(50,50,50);fill-rule:nonzero;"/>
                    <path d="M459.96,158.1C453.17,158.1 447.33,156.64 442.44,153.72C437.55,150.8 433.78,146.69 431.13,141.38C428.48,136.07 427.16,129.84 427.16,122.69C427.16,115.54 428.48,109.41 431.13,104.02C433.78,98.64 437.49,94.43 442.26,91.41C447.03,88.39 452.62,86.88 459.02,86.88C462.91,86.88 466.68,87.52 470.33,88.81C473.98,90.1 477.25,92.12 480.16,94.87C483.06,97.62 485.35,101.19 487.03,105.57C488.7,109.95 489.54,115.27 489.54,121.52L489.54,126.28L434.75,126.28L434.75,116.23L476.39,116.23C476.39,112.7 475.67,109.57 474.24,106.83C472.81,104.09 470.79,101.93 468.2,100.35C465.61,98.77 462.58,97.97 459.11,97.97C455.34,97.97 452.06,98.89 449.26,100.73C446.46,102.57 444.31,104.96 442.8,107.91C441.29,110.86 440.53,114.05 440.53,117.49L440.53,125.34C440.53,129.95 441.34,133.87 442.98,137.1C444.61,140.33 446.89,142.79 449.82,144.48C452.75,146.17 456.18,147.02 460.1,147.02C462.64,147.02 464.96,146.65 467.06,145.92C469.15,145.19 470.96,144.09 472.49,142.62C474.02,141.15 475.18,139.34 475.99,137.19L488.69,139.48C487.67,143.22 485.86,146.49 483.24,149.29C480.62,152.09 477.35,154.26 473.41,155.8C469.48,157.34 465,158.11 459.97,158.11L459.96,158.1Z" style="fill:rgb(50,50,50);fill-rule:nonzero;"/>
                </g>
                <g>
                    <path d="M209.05,106.92C208.83,106.92 208.63,106.92 208.3,107.09L142.47,145.21C142.04,145.5 141.46,145.5 140.99,145.19L74.6,108.1C73.88,107.67 72.97,107.92 72.51,108.67L72.42,108.82C72.38,108.94 72.34,109.24 72.34,109.43L72.34,118.53C72.34,119.43 72.85,120.3 73.6,120.67L140.47,158.15C140.86,158.41 141.31,158.53 141.76,158.53C142.21,158.53 142.64,158.41 143,158.16L209.33,119.74C210.11,119.22 210.55,118.45 210.55,117.62L210.55,108.42C210.55,107.59 209.88,106.92 209.05,106.92Z" style="fill:rgb(250,207,74);fill-rule:nonzero;"/>
                    <path d="M210.46,134.52C210.46,133.69 209.79,133.02 208.96,133.02C208.74,133.02 208.54,133.02 208.21,133.19L142.38,171.31C141.95,171.6 141.36,171.6 140.9,171.29L74.61,134.1C74.25,133.88 73.83,133.83 73.44,133.95C73.06,134.06 72.74,134.32 72.53,134.67L72.47,134.8C72.35,135.26 72.35,135.42 72.35,135.62L72.35,144.72C72.35,145.62 72.86,146.48 73.61,146.86L140.48,184.34C140.86,184.6 141.32,184.72 141.77,184.72C142.22,184.72 142.65,184.6 143.01,184.35L209.34,145.93C210.13,145.4 210.56,144.62 210.56,143.71L210.46,134.52Z" style="fill:rgb(250,207,74);fill-rule:nonzero;"/>
                    <path d="M210.46,78.34C210.46,77.31 210.25,76.59 209.31,76.05L142.44,38.57C141.67,38.06 140.65,38.06 139.91,38.55L73.58,76.97C72.79,77.5 72.36,78.28 72.36,79.19L72.46,91.39C72.46,92.66 73.13,93.83 74.22,94.43L140.02,131.33C140.55,131.62 141.15,131.77 141.76,131.77C142.37,131.77 142.98,131.62 143.51,131.32L208.8,93.52C209.88,92.92 210.56,91.75 210.56,90.48L210.46,78.34ZM201.21,85.06C201.16,85.16 201.14,85.19 201.01,85.25L143.02,118.55C142.27,118.97 141.26,118.97 140.51,118.55L82.12,85.96C82,85.89 81.93,85.79 81.9,85.67C81.88,85.55 81.9,85.42 81.96,85.3L82.16,85.1L140.1,51.84C140.85,51.42 141.86,51.42 142.61,51.84L201,84.33C201.28,84.5 201.3,84.85 201.21,85.08L201.21,85.06Z" style="fill:rgb(250,207,74);fill-rule:nonzero;"/>
                    <path d="M170.09,84.56C169.94,83.89 169.52,83.32 168.89,82.95L142.88,67.74C141.82,67.15 140.45,67.15 139.38,67.74L113.96,82.95C113.61,83.19 113.36,83.44 113.12,83.79C112.75,84.34 112.66,85 112.84,85.67C113.01,86.28 113.42,86.83 113.98,87.2L139.67,102.39C140.2,102.74 140.82,102.92 141.44,102.92C142.06,102.92 142.67,102.75 143.19,102.4L168.91,87.19C169.27,86.95 169.51,86.71 169.75,86.35C170.11,85.82 170.23,85.18 170.08,84.56L170.09,84.56Z" style="fill:rgb(250,207,74);fill-rule:nonzero;"/>
                </g>
            </g>
        </g>
    </g>
</svg>
