<?xml version="1.0" encoding="UTF-8"?><svg xmlns="http://www.w3.org/2000/svg" viewBox="0 0 561.88 222.91"><defs><style>.c{fill:#facf4a;}.d{fill:#323232;}</style></defs><g id="a"/><g id="b"><g><g><path class="d" d="M247.15,156.7V64.81h13.87v39.94h45.82v-39.94h13.91v91.9h-13.91v-40.07h-45.82v40.07h-13.87Z"/><path class="d" d="M343.09,80.83c-2.33,0-4.33-.79-5.99-2.36-1.66-1.57-2.49-3.45-2.49-5.63s.83-4.11,2.49-5.68c1.66-1.57,3.66-2.36,5.99-2.36s4.33,.79,5.99,2.36c1.66,1.57,2.49,3.46,2.49,5.68s-.83,4.06-2.49,5.63c-1.66,1.57-3.66,2.36-5.99,2.36Zm-6.78,75.88V87.78h13.42v68.92h-13.42Z"/><path class="d" d="M425.2,87.78l-24.99,68.92h-14.36l-25.04-68.92h14.4l17.46,53.04h.72l17.41-53.04h14.4Z"/><path class="d" d="M459.96,158.1c-6.79,0-12.63-1.46-17.52-4.38-4.89-2.92-8.66-7.03-11.31-12.34-2.65-5.31-3.97-11.54-3.97-18.69s1.32-13.28,3.97-18.67c2.65-5.38,6.36-9.59,11.13-12.61,4.77-3.02,10.36-4.53,16.76-4.53,3.89,0,7.66,.64,11.31,1.93,3.65,1.29,6.92,3.31,9.83,6.06,2.9,2.75,5.19,6.32,6.87,10.7,1.67,4.38,2.51,9.7,2.51,15.95v4.76h-54.79v-10.05h41.64c0-3.53-.72-6.66-2.15-9.4s-3.45-4.9-6.04-6.48-5.62-2.38-9.09-2.38c-3.77,0-7.05,.92-9.85,2.76-2.8,1.84-4.95,4.23-6.46,7.18-1.51,2.95-2.27,6.14-2.27,9.58v7.85c0,4.61,.81,8.53,2.45,11.76,1.63,3.23,3.91,5.69,6.84,7.38,2.93,1.69,6.36,2.54,10.28,2.54,2.54,0,4.86-.37,6.96-1.1,2.09-.73,3.9-1.83,5.43-3.3,1.53-1.47,2.69-3.28,3.5-5.43l12.7,2.29c-1.02,3.74-2.83,7.01-5.45,9.81-2.62,2.8-5.89,4.97-9.83,6.51-3.93,1.54-8.41,2.31-13.44,2.31Z"/></g><g><path class="c" d="M209.05,106.92c-.22,0-.42,0-.75,.17l-65.83,38.12c-.43,.29-1.01,.29-1.48-.02l-66.39-37.09c-.72-.43-1.63-.18-2.09,.57l-.09,.15h0c-.04,.12-.08,.42-.08,.61v9.1c0,.9,.51,1.77,1.26,2.14l66.87,37.48c.39,.26,.84,.38,1.29,.38s.88-.12,1.24-.37l66.33-38.42c.78-.52,1.22-1.29,1.22-2.12v-9.2c0-.83-.67-1.5-1.5-1.5Z"/><path class="c" d="M210.46,134.52c0-.83-.67-1.5-1.5-1.5-.22,0-.42,0-.75,.17l-65.83,38.12c-.43,.29-1.02,.29-1.48-.02l-66.29-37.19c-.36-.22-.78-.27-1.17-.15-.38,.11-.7,.37-.91,.72l-.06,.13c-.12,.46-.12,.62-.12,.82v9.1c0,.9,.51,1.76,1.26,2.14l66.87,37.48c.38,.26,.84,.38,1.29,.38s.88-.12,1.24-.37l66.33-38.42c.79-.53,1.22-1.31,1.22-2.22l-.1-9.19Z"/><path class="c" d="M210.46,78.34c0-1.03-.21-1.75-1.15-2.29l-66.87-37.48c-.77-.51-1.79-.51-2.53-.02l-66.33,38.42c-.79,.53-1.22,1.31-1.22,2.22l.1,12.2c0,1.27,.67,2.44,1.76,3.04l65.8,36.9c.53,.29,1.13,.44,1.74,.44s1.22-.15,1.75-.45l65.29-37.8c1.08-.6,1.76-1.77,1.76-3.04l-.1-12.14Zm-9.25,6.72c-.05,.1-.07,.13-.2,.19l-57.99,33.3c-.75,.42-1.76,.42-2.51,0l-58.39-32.59c-.12-.07-.19-.17-.22-.29-.02-.12,0-.25,.06-.37l.2-.2,57.94-33.26c.75-.42,1.76-.42,2.51,0l58.39,32.49c.28,.17,.3,.52,.21,.75Z"/><path class="c" d="M170.09,84.56c-.15-.67-.57-1.24-1.2-1.61l-26.01-15.21c-1.06-.59-2.43-.59-3.5,0l-25.42,15.21c-.35,.24-.6,.49-.84,.84-.37,.55-.46,1.21-.28,1.88,.17,.61,.58,1.16,1.14,1.53l25.69,15.19c.53,.35,1.15,.53,1.77,.53s1.23-.17,1.75-.52l25.72-15.21c.36-.24,.6-.48,.84-.84,.36-.53,.48-1.17,.33-1.79Z"/></g></g></g></svg>