<svg xmlns="http://www.w3.org/2000/svg" viewBox="0 0 138 32"><g fill="none" fill-rule="evenodd"><g fill-rule="nonzero"><path fill="#FFF" d="m10.171 8.716 3.331-6.655c.999-1.995 3.845-1.995 4.844 0l3.33 6.655L29.06 9.83c2.206.333 3.085 3.04 1.497 4.606l-5.311 5.235 1.218 7.35c.365 2.2-1.938 3.873-3.918 2.847l-6.635-3.441-6.634 3.44c-1.98 1.027-4.283-.646-3.919-2.846L6.58 19.65l-5.288-5.213c-1.589-1.566-.71-4.273 1.496-4.606l7.383-1.115Zm1.935 5.185-3.159.477 2.457 2.423c.747.735.976 1.798.685 2.734l-.503 3.035 3.063-1.589c.404-.21.837-.307 1.262-.304.426-.003.858.095 1.262.304l3.063 1.589-.564-3.404a2.706 2.706 0 0 1 .903-2.495l2.327-2.293-3.16-.477a2.707 2.707 0 0 1-2.274-1.492l-1.544-3.086-1.544 3.086c-.451.9-1.336 1.44-2.274 1.492Z"/><path fill="#2BD9D9" d="M15.924 9.323 14.38 12.41a2.708 2.708 0 0 1-4.844-2.424l3.966-7.924c.999-1.995 3.845-1.995 4.844 0l3.966 7.924a2.708 2.708 0 0 1-4.844 2.424l-1.544-3.086Z" style="mix-blend-mode:multiply"/><path fill="#3DCC3D" d="M23.343 18.907a2.708 2.708 0 0 1-4.843-2.424l3.966-7.924c.998-1.995 3.845-1.995 4.843 0l3.966 7.924a2.708 2.708 0 0 1-4.843 2.424l-1.545-3.086-1.544 3.086Z" transform="rotate(72 24.887 13.733)" style="mix-blend-mode:multiply"/><path fill="#FFD426" d="M19.92 29.433a2.708 2.708 0 0 1-4.844-2.424l3.966-7.924c.998-1.995 3.845-1.995 4.843 0l3.966 7.924a2.708 2.708 0 0 1-4.843 2.424l-1.544-3.086-1.545 3.086Z" transform="rotate(144 21.464 24.259)" style="mix-blend-mode:multiply"/><path fill="#F7578C" d="m10.359 26.347-1.544 3.086a2.708 2.708 0 0 1-4.844-2.424l3.966-7.924c.999-1.995 3.845-1.995 4.844 0l3.966 7.924a2.708 2.708 0 0 1-4.844 2.424l-1.544-3.086Z" transform="rotate(-144 10.359 24.259)" style="mix-blend-mode:multiply"/><path fill="#0AF" d="m6.961 15.821-1.544 3.086a2.708 2.708 0 0 1-4.844-2.424L4.54 8.559c.999-1.995 3.845-1.995 4.844 0l3.966 7.924a2.708 2.708 0 0 1-4.844 2.424L6.961 15.82Z" transform="rotate(-72 6.961 13.733)" style="mix-blend-mode:multiply"/></g><path fill="#3D474D" d="M38.369 11.874h3.52c.203 0 .368.165.368.369v1.601c.197-.278.394-.557.65-.836.257-.278.562-.527.917-.746a5.215 5.215 0 0 1 1.212-.537c.453-.14.946-.209 1.478-.209 1.005 0 1.897.209 2.675.627.779.418 1.365 1.074 1.76 1.97.512-.935 1.133-1.602 1.862-2 .73-.398 1.626-.597 2.69-.597.966 0 1.779.164 2.44.493a4 4 0 0 1 1.566 1.343c.384.567.66 1.233.828 2 .167.765.25 1.586.25 2.462v8.197a.369.369 0 0 1-.368.368H56.52a.369.369 0 0 1-.368-.368v-8.078c0-.677-.143-1.259-.43-1.746-.285-.487-.792-.731-1.522-.731-.512 0-.94.084-1.286.253-.345.17-.62.403-.827.702a2.931 2.931 0 0 0-.444 1.044 5.748 5.748 0 0 0-.133 1.254v7.302a.369.369 0 0 1-.369.368h-3.697a.369.369 0 0 1-.368-.368v-7.302c0-.259-.01-.577-.03-.955a3.845 3.845 0 0 0-.207-1.075 2.057 2.057 0 0 0-.576-.865c-.266-.239-.656-.358-1.168-.358-.571 0-1.035.104-1.39.313a2.127 2.127 0 0 0-.812.836 3.44 3.44 0 0 0-.37 1.179c-.059.437-.089.895-.089 1.373v6.854a.369.369 0 0 1-.368.368h-3.697a.369.369 0 0 1-.369-.368V12.243c0-.204.165-.369.369-.369ZM76.19 24.176c-.18.208-.33.368-.447.48a7.19 7.19 0 0 1-1.984 1.335 7.994 7.994 0 0 1-3.37.746 8.978 8.978 0 0 1-3.12-.537 7.493 7.493 0 0 1-2.542-1.537 7.213 7.213 0 0 1-1.7-2.402c-.413-.936-.62-1.98-.62-3.134s.207-2.199.62-3.134a7.213 7.213 0 0 1 1.7-2.403 7.493 7.493 0 0 1 2.543-1.537 8.978 8.978 0 0 1 3.119-.537c1.024 0 1.956.18 2.793.537.838.359 1.547.87 2.129 1.537.581.667 1.03 1.468 1.345 2.403.315.935.473 1.98.473 3.134v.91c0 .272-.22.493-.492.493h-9.796c.177.855.562 1.537 1.153 2.044.591.507 1.32.761 2.188.761.729 0 1.345-.164 1.847-.492a4.82 4.82 0 0 0 .858-.716 5.02 5.02 0 0 0 .24-.277.369.369 0 0 1 .505-.064l2.5 1.851a.369.369 0 0 1 .058.539Zm46.95 0c-.18.208-.33.368-.447.48a7.19 7.19 0 0 1-1.984 1.335 7.994 7.994 0 0 1-3.37.746 8.978 8.978 0 0 1-3.119-.537 7.493 7.493 0 0 1-2.542-1.537 7.213 7.213 0 0 1-1.7-2.402c-.414-.936-.62-1.98-.62-3.134s.206-2.199.62-3.134a7.213 7.213 0 0 1 1.7-2.403 7.493 7.493 0 0 1 2.542-1.537 8.978 8.978 0 0 1 3.12-.537c1.024 0 1.955.18 2.793.537.837.359 1.547.87 2.128 1.537.582.667 1.03 1.468 1.345 2.403.316.935.473 1.98.473 3.134v.91c0 .272-.22.493-.491.493h-9.796c.177.855.561 1.537 1.152 2.044.592.507 1.321.761 2.188.761.73 0 1.345-.164 1.848-.492a4.82 4.82 0 0 0 .857-.716 5.02 5.02 0 0 0 .24-.277.369.369 0 0 1 .505-.064l2.5 1.851a.369.369 0 0 1 .059.539Zm-50.446-6.69c.02-.757-.226-1.403-.739-1.94-.512-.538-1.172-.807-1.98-.807-.493 0-.927.08-1.301.24-.375.158-.695.362-.96.611a2.681 2.681 0 0 0-.622.866 2.872 2.872 0 0 0-.251 1.03h5.853Zm6.684-5.612h3.697c.203 0 .368.165.368.369v13.768a.369.369 0 0 1-.368.368h-3.697a.369.369 0 0 1-.37-.368V12.243c0-.204.166-.369.37-.369Zm1.857-1.337c-1.428 0-2.586-1.17-2.586-2.614s1.158-2.614 2.586-2.614c1.43 0 2.587 1.17 2.587 2.614s-1.158 2.614-2.587 2.614Zm12.661 5.605c-.65-.816-1.508-1.223-2.572-1.223a2.4 2.4 0 0 0-1.094.268c-.354.18-.532.488-.532.925 0 .359.183.622.547.791.365.17.828.319 1.39.448l1.803.418c.64.149 1.242.383 1.803.701a4.051 4.051 0 0 1 1.39 1.298c.364.548.547 1.279.547 2.194 0 .935-.202 1.706-.606 2.313a4.666 4.666 0 0 1-1.552 1.463c-.631.368-1.34.626-2.129.776-.788.149-1.567.223-2.335.223-1.006 0-2.02-.144-3.045-.432a5.677 5.677 0 0 1-2.602-1.537l2.69-3.015c.414.518.872.91 1.375 1.18.503.268 1.089.402 1.759.402.512 0 .976-.075 1.39-.224.413-.149.62-.423.62-.82 0-.379-.182-.662-.547-.851-.364-.19-.827-.348-1.39-.478-.56-.129-1.162-.268-1.802-.418a7.406 7.406 0 0 1-1.804-.671 3.786 3.786 0 0 1-1.39-1.269c-.364-.547-.546-1.278-.546-2.193 0-.856.172-1.592.517-2.209a4.574 4.574 0 0 1 1.36-1.522 5.857 5.857 0 0 1 1.936-.88 8.801 8.801 0 0 1 2.218-.284c.946 0 1.901.14 2.867.418a5.31 5.31 0 0 1 2.454 1.492l-2.72 2.716Zm14.105-.686h-3.534v4.835c0 .398.02.76.06 1.09.039.327.128.611.266.85s.35.423.635.552c.286.13.665.194 1.138.194.237 0 .547-.025.932-.075.117-.015.242-.047.374-.097a.369.369 0 0 1 .498.346v2.862c0 .165-.11.31-.269.355-.54.152-.963.246-1.269.28-.532.06-1.054.09-1.566.09-.75 0-1.44-.08-2.07-.24a4.699 4.699 0 0 1-1.655-.76 3.557 3.557 0 0 1-1.109-1.358c-.266-.557-.399-1.234-.399-2.03v-6.894h-2.47a.369.369 0 0 1-.368-.369v-2.844c0-.204.165-.369.369-.369h2.469V7.945c0-.203.165-.369.369-.369h3.697c.203 0 .368.166.368.37v3.928h3.534c.204 0 .369.165.369.369v2.844a.369.369 0 0 1-.369.369Zm11.59 2.03c.02-.757-.226-1.403-.739-1.94-.512-.538-1.172-.807-1.98-.807-.493 0-.927.08-1.301.24-.375.158-.695.362-.96.611a2.681 2.681 0 0 0-.622.866 2.872 2.872 0 0 0-.251 1.03h5.853Zm6.624-5.612h3.697c.204 0 .369.165.369.369v1.96h.059c.473-.896 1.035-1.568 1.685-2.015.65-.448 1.468-.672 2.454-.672.256 0 .512.01.768.03.11.008.246.028.408.058a.369.369 0 0 1 .302.362v3.309a.369.369 0 0 1-.458.358 6.132 6.132 0 0 0-.473-.103 5.974 5.974 0 0 0-.961-.074c-.848 0-1.518.12-2.01.358a2.677 2.677 0 0 0-1.138 1c-.267.428-.439.94-.518 1.537a15.108 15.108 0 0 0-.118 1.97v5.69a.369.369 0 0 1-.369.368h-3.697a.369.369 0 0 1-.369-.368V12.243c0-.204.166-.369.37-.369Z"/></g></svg>