<svg width="846" height="296" viewBox="0 0 846 296" fill="none" xmlns="http://www.w3.org/2000/svg">
<path d="M164.957 195.966C164.957 224.078 144.462 241 107.572 241C71.5007 241 51.0059 227.08 48 198.968L81.8847 191.326C83.7976 206.064 92.2687 214.525 107.025 214.525C118.775 214.525 125.334 208.794 125.334 200.06C125.334 192.417 121.235 187.777 113.31 185.594L91.4489 179.589C66.0354 172.766 52.9187 159.392 52.9187 137.557C52.9187 111.082 74.2333 94.7063 109.758 94.7063C142.549 94.7063 161.951 108.899 165.23 134.009L132.985 141.105C130.526 126.913 120.961 121.181 109.211 121.181C98.2805 121.181 91.4489 126.367 91.4489 134.555C91.4489 144.381 98.5538 147.383 107.025 149.839L129.159 155.844C152.66 161.849 164.957 174.131 164.957 195.966Z" fill="#2F2C83"/>
<path fill-rule="evenodd" clip-rule="evenodd" d="M291.478 148.748V194.601C291.478 213.16 292.571 228.172 296.397 237.179H256.5C255.134 231.447 254.314 227.626 254.314 222.44C254.314 216.982 255.134 210.977 256.774 203.335H254.587C249.669 226.534 238.465 241 213.051 241C188.458 241 172.882 225.716 172.882 201.97C172.882 176.314 189.824 162.394 219.336 158.3L251.855 154.206V144.926C251.855 129.915 246.936 121.727 233.273 121.727C220.703 121.727 213.871 130.734 212.778 145.199L175.068 140.014C178.074 110.537 198.568 94.7063 234.093 94.7063C277.268 94.7063 291.478 116.814 291.478 148.748ZM213.598 198.968C213.598 208.521 219.883 213.979 229.447 213.979C241.744 213.979 251.855 204.972 251.855 183.683V177.679L231.906 181.5C220.429 183.683 213.598 188.869 213.598 198.968Z" fill="#2F2C83"/>
<path fill-rule="evenodd" clip-rule="evenodd" d="M547.483 156.936C547.483 117.633 526.168 94.7065 489.551 94.7065C450.201 94.7065 427.247 121.727 427.247 168.126C427.247 215.344 449.654 241 490.371 241C521.249 241 540.105 227.08 545.843 200.06L509.499 192.69C507.04 206.883 501.301 212.888 489.824 212.888C475.341 212.888 468.51 201.424 467.963 175.768H546.39C547.21 168.945 547.483 163.213 547.483 156.936ZM467.963 154.479C468.51 130.188 475.888 119.544 489.824 119.544C502.941 119.544 508.679 129.369 508.679 154.479H467.963Z" fill="#2F2C83"/>
<path d="M674.333 98.5276H634.71V173.858C634.71 199.241 627.878 210.431 613.395 210.431C600.825 210.431 595.633 201.697 595.633 184.775V98.5276H556.01V193.236C556.01 226.535 571.586 241 595.086 241C621.32 241 632.25 227.353 639.082 195.966H641.541C637.442 211.796 635.803 222.168 635.803 233.904V237.179H674.333V98.5276Z" fill="#2F2C83"/>
<path d="M797.538 195.966C797.538 224.078 777.044 241 740.153 241C704.082 241 683.587 227.08 680.581 198.968L714.466 191.326C716.379 206.064 724.85 214.525 739.607 214.525C751.357 214.525 757.915 208.794 757.915 200.06C757.915 192.418 753.816 187.778 745.892 185.594L724.03 179.59C698.617 172.766 685.5 159.392 685.5 137.557C685.5 111.083 706.815 94.7065 742.339 94.7065C775.131 94.7065 794.533 108.899 797.812 134.009L765.567 141.106C763.107 126.913 753.543 121.181 741.793 121.181C730.862 121.181 724.03 126.367 724.03 134.555C724.03 144.381 731.135 147.383 739.607 149.84L761.741 155.844C785.242 161.849 797.538 174.131 797.538 195.966Z" fill="#2F2C83"/>
<path d="M307.489 41H312.963V237.035H307.489V41Z" fill="url(#paint0_linear_132_1237)"/>
<path d="M318.438 41H323.912V237.035H318.438V41Z" fill="url(#paint1_linear_132_1237)"/>
<path d="M329.386 41H334.861V237.035H329.386V41Z" fill="url(#paint2_linear_132_1237)"/>
<path d="M340.335 41H345.81V237.035H340.335V41Z" fill="url(#paint3_linear_132_1237)"/>
<path d="M345.815 158.54L386.808 96.8534H393.491L352.498 158.54H352.49L399.008 237.035H392.324L345.81 158.545L345.815 158.54Z" fill="url(#paint4_linear_132_1237)"/>
<path d="M359.181 158.54L400.174 96.8534H406.857L365.864 158.54H365.856L412.374 237.035H405.69L359.173 158.54H359.181Z" fill="url(#paint5_linear_132_1237)"/>
<path d="M372.548 158.54L413.541 96.8534H420.224L379.231 158.54H379.222L425.74 237.035H419.057L372.539 158.54H372.548Z" fill="url(#paint6_linear_132_1237)"/>
<path d="M385.914 158.54L426.907 96.8534H433.59L392.597 158.54H392.588L439.106 237.035H432.423L385.905 158.54H385.914Z" fill="url(#paint7_linear_132_1237)"/>
<defs>
<linearGradient id="paint0_linear_132_1237" x1="312.424" y1="41" x2="444.89" y2="189.228" gradientUnits="userSpaceOnUse">
<stop stop-color="#FF00D5"/>
<stop offset="1" stop-color="#3400FF"/>
</linearGradient>
<linearGradient id="paint1_linear_132_1237" x1="312.424" y1="41" x2="444.89" y2="189.228" gradientUnits="userSpaceOnUse">
<stop stop-color="#FF00D5"/>
<stop offset="1" stop-color="#3400FF"/>
</linearGradient>
<linearGradient id="paint2_linear_132_1237" x1="312.424" y1="41" x2="444.89" y2="189.228" gradientUnits="userSpaceOnUse">
<stop stop-color="#FF00D5"/>
<stop offset="1" stop-color="#3400FF"/>
</linearGradient>
<linearGradient id="paint3_linear_132_1237" x1="312.424" y1="41" x2="444.89" y2="189.228" gradientUnits="userSpaceOnUse">
<stop stop-color="#FF00D5"/>
<stop offset="1" stop-color="#3400FF"/>
</linearGradient>
<linearGradient id="paint4_linear_132_1237" x1="312.424" y1="41" x2="444.89" y2="189.228" gradientUnits="userSpaceOnUse">
<stop stop-color="#FF00D5"/>
<stop offset="1" stop-color="#3400FF"/>
</linearGradient>
<linearGradient id="paint5_linear_132_1237" x1="312.424" y1="41" x2="444.89" y2="189.228" gradientUnits="userSpaceOnUse">
<stop stop-color="#FF00D5"/>
<stop offset="1" stop-color="#3400FF"/>
</linearGradient>
<linearGradient id="paint6_linear_132_1237" x1="312.424" y1="41" x2="444.89" y2="189.228" gradientUnits="userSpaceOnUse">
<stop stop-color="#FF00D5"/>
<stop offset="1" stop-color="#3400FF"/>
</linearGradient>
<linearGradient id="paint7_linear_132_1237" x1="312.424" y1="41" x2="444.89" y2="189.228" gradientUnits="userSpaceOnUse">
<stop stop-color="#FF00D5"/>
<stop offset="1" stop-color="#3400FF"/>
</linearGradient>
</defs>
</svg>
