<svg id="Layer_1" data-name="Layer 1" xmlns="http://www.w3.org/2000/svg" viewBox="0 0 2474 900"><defs><style>.cls-1{fill:#a4e0de;}.cls-2{fill:#012e44;}.cls-3{fill:#13c5e2;}</style></defs><title>Color Logo Horizontal</title><path class="cls-1" d="M371.68,411.33h0a39.1,39.1,0,0,1-31.44-18.19l.08,0a38.65,38.65,0,1,1,71.09-15.57,152.77,152.77,0,0,1,66.35,36.78,112.66,112.66,0,0,0,8-41.72h.1a112.86,112.86,0,1,0-196.4,75.72A112.75,112.75,0,0,1,371.68,411.33Z"/><path class="cls-2" d="M485.83,521.4a112.52,112.52,0,0,0-10.23-44.23c-1.56-3.4-3.3-6.73-5.19-10a114.35,114.35,0,0,0-13.77-18.75,112.85,112.85,0,0,1-79,36.89l-.57,0-2.2.05h-.67a39,39,0,0,1,31.7,18.24l-.05,0a38.65,38.65,0,1,1-71.27,16.76,152.73,152.73,0,0,1-66.58-37,112.17,112.17,0,0,0-7.69,40.71h0a112.81,112.81,0,1,0,225.58-2.74Z"/><path class="cls-3" d="M456.54,448.35h0c-21.29-23.52-51.17-37.26-82.94-37h0l-1.91,0a112.75,112.75,0,0,0-82.22,37h0l.1.1a113.69,113.69,0,0,0,83.39,37H373l1.83,0,2.2-.05.57,0a112.85,112.85,0,0,0,79-36.89Z"/><rect class="cls-2" x="918.6" y="363.79" width="53.72" height="210.42"/><rect class="cls-2" x="1024.82" y="259.29" width="53.72" height="314.92"/><polygon class="cls-2" points="1219.71 508.52 1173.15 363.38 1116.74 363.82 1192.28 573.82 1245.11 573.82 1319.92 363.4 1265.26 363.4 1219.71 508.52"/><path class="cls-2" d="M1510.13,391.34c-15.89-19.29-39.78-29.07-71-29.07-19.22,0-36.65,4.58-51.79,13.62a93.8,93.8,0,0,0-35.54,38.1c-8.38,16.15-12.63,34.84-12.63,55.58s4.19,39.36,12.44,55.37a91.29,91.29,0,0,0,35.58,37.75c15.25,8.9,33.08,13.41,53,13.41,17,0,32.63-3.17,46.62-9.43a100.18,100.18,0,0,0,35.81-26.79l2.2-2.59-29.89-33.43L1492,507.1a64.23,64.23,0,0,1-48,21.42c-13,0-23.7-3.71-32.58-11.36-7.78-6.68-13.3-15.76-16.47-27h138.15l.26-3.63c.24-3.41.36-8.47.36-15,0-34.1-8-61-23.67-80.12Zm-26.41,58h-90.11c2.4-12.12,7.39-21.88,14.86-29.07,8.39-8.06,18.54-12,31-12,13.39,0,23.81,4,31.83,12.09C1478.48,427.7,1482.65,437.42,1483.72,449.38Z"/><path class="cls-2" d="M1653.34,373.29a71.72,71.72,0,0,0-20,19.11V363.79h-53.72V574.21h53.72V476.33c0-17.73,2.15-33.25,16.25-47.31,13.07-13,25.76-16.46,43.86-16.33l4.16,0V363.54l-4-.05C1678.42,363.75,1664.85,366,1653.34,373.29Z"/><path class="cls-2" d="M1759.17,338.67v24.82h-28.42v48.93h28.42V575.28h58.13V412.42h48.15V363.49H1817.3V345.15c0-23.86,16.92-32.13,29.93-32.13l18.22-.37V259.29h-28.63C1789.54,259.29,1759.17,290.52,1759.17,338.67Z"/><path class="cls-2" d="M2195.16,384.22h0c-13.19-14.81-31.4-22.33-54.18-22.33-28.23.45-49.64,10.44-63.83,29.73V363.79h-53.72V574.21h53.72V470.7c0-15.91,4.16-29.1,12.37-39.19s19-15,33.16-15.22c11.91,0,21,3.61,27.85,11s10.27,17.81,10.27,30.88v116h54.07V443.81C2214.87,419,2208.24,398.91,2195.16,384.22Z"/><path class="cls-2" d="M812.92,448.28l-28.4-6.08c-10.95-2-18.26-8.12-18.26-17.85,0-11.36,11.36-19.89,25.56-19.89,22.72,0,31.24,15,32.87,26.78l45-10.14c-2.43-21.5-21.5-57.61-78.3-57.61-43,0-74.66,29.61-74.66,65.32,0,28,17.45,51.12,56,59.64l26.37,6.09c15.42,3.24,21.51,10.54,21.51,19.47,0,10.55-8.52,19.88-26.37,19.88-23.54,0-35.3-14.6-36.52-30.43l-46.25,10.15c2.43,22.72,23.13,61.67,83.17,61.67,52.34,0,77.49-33.27,77.49-65.73C872.15,480.34,852.28,456.4,812.92,448.28Z"/><path class="cls-2" d="M945,259.29a32.26,32.26,0,1,0,32.25,32.25A32.25,32.25,0,0,0,945,259.29Z"/><rect class="cls-2" x="1916.93" y="363.79" width="53.72" height="210.42"/><circle class="cls-2" cx="1943.79" cy="291.54" r="32.25"/></svg>