<svg clip-rule="evenodd" fill-rule="evenodd" stroke-linejoin="round" stroke-miterlimit="2" viewBox="0 0 4171 518" xmlns="http://www.w3.org/2000/svg"><g fill="#080605" fill-rule="nonzero"><path d="m109.25 517.792c-21.083 0-38.667-3.292-52.75-9.917s-25.208-16.292-33.333-29.042c-8.167-12.75-13.959-28.291-17.375-46.583-3.459-18.292-5.167-39.167-5.167-62.542v-45.125h73.042v50.875c0 27.209 2.291 46.75 6.916 58.667 4.584 11.875 13.709 17.833 27.334 17.833 9.208 0 16.166-2.166 20.833-6.458 4.708-4.333 7.875-11.208 9.5-20.708s2.458-21.875 2.458-37.25c0-18.959-4-36.334-11.916-52.042-7.959-15.708-20-32-36.084-48.875l-37.375-38.542c-10.333-10.75-19.708-22.125-28.041-34.208-8.334-12.083-14.959-25.542-19.834-40.375-5-14.833-7.458-31.458-7.458-49.875 0-26.625 3.25-49.167 9.792-67.583 6.5-18.417 17.541-32.334 33.083-41.834 15.5-9.458 36.75-14.208 63.792-14.208 20.333 0 37.041 3.125 50.166 9.333 13.125 6.25 23.375 15.334 30.75 27.334s12.584 26.541 15.667 43.708 4.583 36.75 4.583 58.792v31.333h-70.958v-36.208c0-15.334-.833-28.084-2.458-38.25-1.625-10.167-4.667-17.792-9.042-22.875-4.417-5.084-10.833-7.625-19.25-7.625-8.042 0-14.583 1.791-19.542 5.333-5 3.542-8.583 9-10.791 16.375-2.209 7.375-3.292 16.917-3.292 28.625 0 10.542 1.333 19.667 4.042 27.333 2.666 7.667 6.791 15.042 12.375 22.125 5.541 7.084 12.458 15.042 20.708 23.875l41.625 45.125c19.917 21.459 35.458 43.792 46.583 67 11.125 23.209 16.667 49.084 16.667 77.625 0 30.292-3.25 55.75-9.792 76.334-6.5 20.625-17.458 36.166-32.791 46.708-15.334 10.542-36.209 15.792-62.667 15.792z"/><path d="m376.625 517.792c-26.25 0-47.625-4.917-64.125-14.792s-28.542-24.833-36.208-44.833c-7.667-20.042-11.5-45.375-11.5-76.042v-376.083h77.041v374.625c0 14.166.625 26.625 1.875 37.375s4.25 19.083 9.042 25c4.792 5.958 12.667 8.916 23.583 8.916 10.917 0 18.834-2.916 23.709-8.75 4.875-5.833 7.916-14.125 9.041-24.875 1.167-10.75 1.709-23.291 1.709-37.666v-374.625h77.041v376.083c0 30.667-3.791 56-11.375 76.042-7.583 20.041-19.541 35-35.958 44.833s-37.583 14.792-63.875 14.792z"/><path d="m559.792 512.083v-506.041h95.75l71.875 369.75 67.583-369.75h96.333v506.041h-68.708v-188.625l2.875-173.083-68.125 359.375h-61.25l-71-359.375 2.875 173.083v188.625z"/><path d="m972.375 441.375h64.708v70.708h-64.708z"/><path d="m1224.25 517.792c-24.542 0-44.958-5.667-61.25-16.959-16.292-11.291-28.5-27.833-36.667-49.583-8.166-21.75-12.208-48.042-12.208-78.917v-220.541c0-23.209 1.917-44.084 5.75-62.667s10.083-34.5 18.708-47.708c8.625-13.209 20.125-23.375 34.5-30.459 14.375-7.083 32.084-10.625 53.209-10.625 19.166 0 35.5 3.125 49.041 9.334 13.5 6.25 24.542 15.208 33.084 26.875 8.541 11.708 14.75 25.833 18.666 42.416 3.917 16.584 5.875 35.209 5.875 55.917v69.583h-74.458v-64.708c0-24.917-2.125-43.292-6.333-55.042-4.209-11.791-12.667-17.666-25.292-17.666-14 0-23.333 6.375-28.042 19.125-4.708 12.75-7.041 30.541-7.041 53.333v236.333c0 17.625 1 32.042 3 43.292 2 11.208 5.416 19.458 10.208 24.708 4.792 5.292 11.5 7.917 20.125 7.917 13.042 0 21.833-6.125 26.458-18.417 4.584-12.25 6.917-31.708 6.917-58.375v-72.5h75.625v71.584c0 32-3.75 58.708-11.208 80.083-7.459 21.375-19.292 37.333-35.5 47.875-16.292 10.542-37.292 15.792-63.167 15.792z"/><path d="m1507.12 517.792c-26.25 0-47.625-4.917-64.125-14.792s-28.542-24.833-36.208-44.833c-7.667-20.042-11.5-45.375-11.5-76.042v-376.083h77.041v374.625c0 14.166.625 26.625 1.875 37.375s4.25 19.083 9.042 25c4.792 5.958 12.667 8.916 23.583 8.916 10.917 0 18.834-2.916 23.709-8.75 4.875-5.833 7.916-14.125 9.041-24.875 1.167-10.75 1.709-23.291 1.709-37.666v-374.625h77.041v376.083c0 30.667-3.791 56-11.375 76.042-7.583 20.041-19.541 35-35.958 44.833s-37.583 14.792-63.875 14.792z"/><path d="m1690.29 512.083v-506.041h95.75l71.875 369.75 67.583-369.75h96.333v506.041h-68.708v-188.625l2.875-173.083-68.125 359.375h-61.25l-71-359.375 2.875 173.083v188.625z"/><path d="m2204.38 517.792c-26.25 0-47.667-5.542-64.25-16.667s-28.792-27.583-36.667-49.458c-7.875-21.834-11.791-48.875-11.791-81.084v-231.416c0-29.125 3.833-54.042 11.5-74.75 7.666-20.709 19.833-36.625 36.5-47.709 16.666-11.125 38.541-16.666 65.541-16.666 20.334 0 37.459 3.166 51.459 9.5 14 6.333 25.291 15.5 33.916 27.458 8.625 12 14.917 26.542 18.834 43.708 3.916 17.167 5.875 36.667 5.875 58.5v231.459c0 32.208-3.792 59.208-11.375 81.083-7.584 21.833-19.5 38.333-35.792 49.458-16.208 11.042-37.5 16.584-63.75 16.584zm0-66.667c9.583 0 16.75-2.875 21.583-8.625 4.792-5.75 8-14.5 9.625-26.292 1.625-11.791 2.459-26.708 2.459-44.708v-235.792c0-22.041-2.042-39.041-6.167-51.041-4.125-11.959-13-17.959-26.583-17.959-14 0-23.5 5.792-28.459 17.375-5 11.584-7.458 28.709-7.458 51.334v236.041c0 18.417.833 33.5 2.458 45.292s5 20.458 10.084 26.042c4.958 5.541 12.458 8.333 22.458 8.333z"/><path d="m2583 517.792c-21.083 0-38.667-3.292-52.75-9.917s-25.208-16.292-33.333-29.042c-8.167-12.75-13.959-28.291-17.375-46.583-3.459-18.292-5.167-39.167-5.167-62.542v-45.125h73.042v50.875c0 27.209 2.291 46.75 6.916 58.667 4.584 11.875 13.709 17.833 27.292 17.833 9.208 0 16.167-2.166 20.833-6.458 4.709-4.333 7.875-11.208 9.5-20.708s2.459-21.875 2.459-37.25c0-18.959-4-36.334-11.917-52.042-7.958-15.708-20-32-36.083-48.875l-37.375-38.542c-10.334-10.75-19.709-22.125-28.042-34.208s-14.958-25.542-19.833-40.375-7.334-31.5-7.334-49.875c0-26.625 3.25-49.167 9.792-67.583 6.5-18.417 17.542-32.334 33.083-41.834 15.417-9.458 36.709-14.208 63.709-14.208 20.333 0 37.041 3.125 50.166 9.333 13.125 6.25 23.375 15.334 30.75 27.334s12.584 26.541 15.667 43.708 4.583 36.75 4.583 58.792v31.333h-71v-36.208c0-15.334-.833-28.084-2.458-38.25-1.625-10.167-4.667-17.792-9.042-22.875-4.416-5.084-10.833-7.625-19.25-7.625-8.041 0-14.583 1.791-19.541 5.333-5 3.542-8.584 9-10.792 16.375s-3.292 16.917-3.292 28.625c0 10.542 1.334 19.667 4.042 27.333 2.667 7.667 6.792 15.042 12.375 22.125 5.542 7.084 12.458 15.042 20.708 23.875l41.667 45.125c19.917 21.459 35.458 43.792 46.583 67 11.125 23.209 16.667 49.084 16.667 77.625 0 30.292-3.25 55.75-9.792 76.334-6.541 20.583-17.458 36.166-32.791 46.708-15.292 10.542-36.209 15.792-62.667 15.792z"/><path d="m2712.42 512.083 72.166-506.041h101.792l76.75 506.041h-71.875l-12.083-90.291h-81.667l-10.917 90.291zm92.541-152.125h66.125l-33.916-254.166h-1.167z"/><path d="m3008.83 512.083v-506.041h116.167c20.125 0 36.833 3.083 50.167 9.208 13.333 6.125 23.833 15.25 31.5 27.333 7.666 12.084 13.125 27 16.375 44.709 3.25 17.75 4.875 38.208 4.875 61.375v10.625c0 32.583-2.834 60.333-8.5 83.25-5.667 22.916-15.792 40.291-30.334 52.166-14.583 11.875-35.083 17.834-61.541 17.834h-41.709v199.541zm77.042-263.083h26.458c11.292 0 19.75-2.875 25.292-8.625s9.25-15.292 11.083-28.625c1.834-13.333 2.75-31.083 2.75-53.333v-9.792c-.208-27.417-2.583-48.167-7.208-62.25-4.583-14.083-15.042-21.125-31.333-21.125h-27.042z"/><path d="m3281.67 6.042h77.042v506.042h-77.042z"/><path d="m3436.08 512.083v-506.041h169.625v66.416h-92.583v147.209h88v64.958h-88v161h96.042v66.417h-173.084z"/><path d="m3666.08 512.083v-506.041h60.375l107.25 303.625-5.458-138v-165.625h69.292v506.041h-54.625l-110.125-314.25 4.333 132.834v181.416z"/><path d="m4065.71 517.792c-21.083 0-38.666-3.292-52.75-9.917-14.083-6.625-25.208-16.292-33.333-29.042s-13.958-28.291-17.375-46.583c-3.458-18.292-5.167-39.167-5.167-62.542v-45.125h73.042v50.875c0 27.209 2.292 46.75 6.917 58.667 4.583 11.875 13.708 17.833 27.333 17.833 9.208 0 16.167-2.166 20.833-6.458 4.667-4.292 7.875-11.208 9.5-20.708s2.459-21.875 2.459-37.25c0-18.959-4-36.334-11.917-52.042-7.958-15.708-19.958-32-36.083-48.875l-37.375-38.542c-10.334-10.75-19.709-22.125-28.042-34.208s-14.958-25.542-19.833-40.375-7.334-31.5-7.334-49.875c0-26.625 3.25-49.167 9.792-67.583 6.5-18.417 17.542-32.334 33.083-41.834 15.375-9.458 36.667-14.208 63.667-14.208 20.333 0 37.042 3.125 50.167 9.333 13.125 6.25 23.375 15.334 30.75 27.334s12.583 26.541 15.666 43.708c3.084 17.167 4.584 36.75 4.584 58.792v31.333h-70.959v-36.208c0-15.334-.833-28.084-2.458-38.25-1.625-10.167-4.667-17.792-9.042-22.875-4.416-5.084-10.833-7.625-19.25-7.625-8.041 0-14.583 1.791-19.541 5.333-5 3.542-8.584 9-10.792 16.375s-3.292 16.917-3.292 28.625c0 10.542 1.334 19.667 4.042 27.333 2.667 7.667 6.792 15.042 12.375 22.125 5.542 7.084 12.458 15.042 20.708 23.875l41.709 45.125c19.916 21.459 35.458 43.792 46.583 67 11.125 23.209 16.667 49.084 16.667 77.625 0 30.292-3.25 55.75-9.792 76.334-6.5 20.625-17.458 36.166-32.792 46.708-15.375 10.542-36.291 15.792-62.75 15.792z"/></g></svg>