<svg clip-rule="evenodd" fill-rule="evenodd" stroke-linejoin="round" stroke-miterlimit="2" viewBox="0 0 160 72" xmlns="http://www.w3.org/2000/svg"><g fill="#f56960"><path d="m61.27 24.762h-5.33c-1.197 0-1.865-1.384-1.119-2.322l8.12-10.2c.802-1.007 2.021-1.595 3.308-1.595h3.383c.67 0 1.251.466 1.397 1.12l.37 1.66c.299 1.346 2.284 1.106 2.255-.272l-.023-1.049c0-.01 0-.021 0-.031 0-.784.645-1.43 1.429-1.43l2.544-.004c.784 0 1.43.646 1.43 1.43v11.264c0 .79-.64 1.43-1.43 1.43l-4.884.007c-.597.001-1.134-.372-1.342-.932l-1.873-5.034c-.207-.559-.744-.933-1.341-.933-.441 0-.858.205-1.129.553l-4.43 5.686c-.321.412-.814.652-1.335.652z" fill-rule="nonzero"/><path d="m80.735 23.345v-11.272c0-.79.64-1.43 1.43-1.43h10.337c3.344 0 5.953 1.46 6.164 5.702.024.466.724.858 1.622 1.36 1.65.925 3.967 2.223 3.967 5.034 0 2.037-3.565 2.037-3.565 2.037h-18.524c-.79 0-1.43-.64-1.43-1.431zm5.974-8.212v-.836s4.153-.344 4.153.393c0 .738-4.153.443-4.153.443zm0 4.976v.836s5.947.357 5.947-.442-5.947-.394-5.947-.394z"/><path d="m83.992 37.784-2.783-8.655c-.418-1.299-2.245-1.33-2.706-.045l-3.156 8.8c-.204.566-.744.946-1.346.946-.423 0-.825-.188-1.097-.513l-7.993-9.59c-.272-.325-.674-.514-1.098-.514h-10.175c-1.208 0-1.871 1.406-1.102 2.338l23.301 28.24c.79.958 2.343.52 2.517-.71l.298-2.107c.206-1.457 2.311-1.453 2.513.004l.289 2.091c.17 1.233 1.725 1.674 2.517.715l23.32-28.232c.77-.932.108-2.34-1.101-2.34h-10.58c-.42 0-.82.186-1.092.507l-8.074 9.55c-.272.321-.671.506-1.091.506-.619 0-1.171-.402-1.361-.991z" fill-rule="nonzero"/><path d="m66.253 8.537c-1.932 0-3.763.883-4.965 2.396l-10.374 13.054c-1.854 2.334-1.825 5.676.07 7.977l24.035 29.189c2.537 3.08 7.255 3.08 9.792 0l24.036-29.189c1.895-2.301 1.924-5.643.07-7.977l-10.374-13.054c-1.202-1.513-3.033-2.396-4.965-2.396zm-6.951.818c1.683-2.118 4.245-3.354 6.95-3.355h27.326c2.705.001 5.267 1.237 6.95 3.355l10.375 13.053c2.597 3.268 2.556 7.947-.097 11.169l-24.037 29.188c-3.551 4.313-10.156 4.313-13.708 0l-24.036-29.188c-2.653-3.222-2.694-7.901-.097-11.169z"/></g></svg>